<svg xmlns="http://www.w3.org/2000/svg" width="321.965" height="646.791" viewBox="0 0 321.965 646.791">
  <g id="Group_369" data-name="Group 369" transform="translate(-1531.917 -1270.558)">
    <g id="Group_296" data-name="Group 296" transform="translate(1563.523 1770.826) rotate(-19)" style="mix-blend-mode: hard-light;isolation: isolate">
      <ellipse id="Ellipse_275" data-name="Ellipse 275" cx="11.685" cy="11.73" rx="11.685" ry="11.73" transform="translate(0 131.506)" fill="#b5b5b5"/>
      <ellipse id="Ellipse_285" data-name="Ellipse 285" cx="11.685" cy="11.73" rx="11.685" ry="11.73" transform="translate(342.09 -403.255)" fill="#b5b5b5" opacity="0.38"/>
      <path id="Path_2762" data-name="Path 2762" d="M1426.176,406.768a11.685,11.685,0,1,1-11.684-11.732A11.707,11.707,0,0,1,1426.176,406.768Z" transform="translate(-1274.041 -353.066)" fill="#b5b5b5"/>
      <path id="Path_2830" data-name="Path 2830" d="M1426.176,406.768a11.685,11.685,0,1,1-11.684-11.732A11.707,11.707,0,0,1,1426.176,406.768Z" transform="translate(-1202.521 -637.265)" fill="#b5b5b5" opacity="0.65"/>
      <ellipse id="Ellipse_276" data-name="Ellipse 276" cx="11.685" cy="11.73" rx="11.685" ry="11.73" transform="translate(75.521 48.31)" fill="#b5b5b5"/>
      <ellipse id="Ellipse_284" data-name="Ellipse 284" cx="11.685" cy="11.73" rx="11.685" ry="11.73" transform="translate(133.149 -296.853)" fill="#b5b5b5" opacity="0.52"/>
      <path id="Path_2763" data-name="Path 2763" d="M1435.727,421.234a8.04,8.04,0,1,1-8.042-8.072A8.056,8.056,0,0,1,1435.727,421.234Z" transform="translate(-1239.933 -316.353)" fill="#b5b5b5"/>
      <path id="Path_2831" data-name="Path 2831" d="M1435.727,421.234a8.04,8.04,0,1,1-8.042-8.072A8.056,8.056,0,0,1,1435.727,421.234Z" transform="translate(-1155.53 -764.278)" fill="#b5b5b5" opacity="0.46"/>
      <path id="Path_2765" data-name="Path 2765" d="M1402.494,438.6a8.041,8.041,0,1,1-8.041-8.068A8.056,8.056,0,0,1,1402.494,438.6Z" transform="translate(-1307.246 -281.174)" fill="#b5b5b5"/>
      <path id="Path_2767" data-name="Path 2767" d="M1399.835,389.234a8.041,8.041,0,1,1-8.041-8.071A8.057,8.057,0,0,1,1399.835,389.234Z" transform="translate(-1312.629 -381.163)" fill="#b5b5b5"/>
    </g>
    <g id="Group_319" data-name="Group 319" transform="translate(1722.828 1615.754) rotate(-19)">
      <g id="Group_314" data-name="Group 314" transform="translate(44.535 160.708)">
        <g id="Group_313" data-name="Group 313" transform="translate(0 0)">
          <path id="Path_2807" data-name="Path 2807" d="M370.6,230.186a14.016,14.016,0,1,1-14.016-14.017A14.014,14.014,0,0,1,370.6,230.186Z" transform="translate(-342.174 -215.781)" fill="#e4f4fe" opacity="0.4"/>
          <path id="Path_2808" data-name="Path 2808" d="M356.729,244.739a14.405,14.405,0,1,1,14.405-14.405A14.422,14.422,0,0,1,356.729,244.739Zm0-28.033a13.627,13.627,0,1,0,13.627,13.627A13.643,13.643,0,0,0,356.729,216.706Z" transform="translate(-342.322 -215.928)" fill="#eef8fe"/>
        </g>
        <path id="Path_2809" data-name="Path 2809" d="M353.873,217.615c-3.344-1.148-8.165,2.771-8.951,5.858-.776,3.046,2.514,4.288,4.834,3.47C352.038,226.142,358.791,219.3,353.873,217.615Z" transform="translate(-340.805 -215.023)" fill="#fff" opacity="0.6"/>
        <path id="Path_2810" data-name="Path 2810" d="M347.273,224.823c-.3-.805-.947-.765-1.537-.42a3.094,3.094,0,0,0-1.437,1.682,4.871,4.871,0,0,0-.417,1.6,2.688,2.688,0,0,0,.2.97.819.819,0,0,0,1.07.619,2.744,2.744,0,0,0,1.464-1.318c.029-.05.043-.076.058-.1a4.761,4.761,0,0,0,.548-.989A2.8,2.8,0,0,0,347.273,224.823Z" transform="translate(-341.371 -210.894)" fill="#fff" opacity="0.6"/>
      </g>
      <g id="Group_316" data-name="Group 316" transform="translate(73.348 81.566)" opacity="0.78">
        <g id="Group_315" data-name="Group 315">
          <path id="Path_2811" data-name="Path 2811" d="M332.177,206.638a7.709,7.709,0,1,1-7.709-7.709A7.71,7.71,0,0,1,332.177,206.638Z" transform="translate(-316.544 -198.715)" fill="#e4f4fe" opacity="0.4"/>
          <path id="Path_2812" data-name="Path 2812" d="M324.549,214.643a7.924,7.924,0,1,1,7.924-7.924A7.933,7.933,0,0,1,324.549,214.643Zm0-15.419a7.494,7.494,0,1,0,7.493,7.5A7.5,7.5,0,0,0,324.549,199.224Z" transform="translate(-316.625 -198.796)" fill="#eef8fe"/>
        </g>
        <path id="Path_2813" data-name="Path 2813" d="M322.978,199.725c-1.84-.633-4.491,1.522-4.923,3.222-.427,1.675,1.382,2.357,2.659,1.909C321.969,204.414,325.684,200.653,322.978,199.725Z" transform="translate(-315.79 -198.298)" fill="#fff" opacity="0.6"/>
        <path id="Path_2814" data-name="Path 2814" d="M319.348,203.69c-.163-.445-.52-.424-.844-.232a1.707,1.707,0,0,0-.791.923,2.72,2.72,0,0,0-.23.883,1.521,1.521,0,0,0,.11.532.45.45,0,0,0,.588.341,1.5,1.5,0,0,0,.805-.723c.016-.029.026-.043.032-.058a2.474,2.474,0,0,0,.3-.544A1.516,1.516,0,0,0,319.348,203.69Z" transform="translate(-316.102 -196.027)" fill="#fff" opacity="0.6"/>
      </g>
      <g id="Group_318" data-name="Group 318" transform="translate(0 0)" opacity="0.76">
        <g id="Group_317" data-name="Group 317">
          <path id="Path_2815" data-name="Path 2815" d="M375.557,168.053a18.574,18.574,0,1,1-18.574-18.574A18.574,18.574,0,0,1,375.557,168.053Z" transform="translate(-337.895 -148.964)" fill="#e4f4fe" opacity="0.4"/>
          <path id="Path_2816" data-name="Path 2816" d="M357.178,187.335a19.088,19.088,0,1,1,19.088-19.086A19.11,19.11,0,0,1,357.178,187.335Zm0-37.142a18.055,18.055,0,1,0,18.052,18.055A18.072,18.072,0,0,0,357.178,150.193Z" transform="translate(-338.09 -149.159)" fill="#eef8fe"/>
        </g>
        <path id="Path_2817" data-name="Path 2817" d="M353.394,151.4c-4.43-1.522-10.818,3.669-11.859,7.761-1.031,4.037,3.328,5.681,6.406,4.6C350.965,162.693,359.913,153.633,353.394,151.4Z" transform="translate(-336.08 -147.959)" fill="#fff" opacity="0.6"/>
        <path id="Path_2818" data-name="Path 2818" d="M344.647,160.947c-.393-1.068-1.25-1.018-2.033-.554a4.08,4.08,0,0,0-1.906,2.224,6.439,6.439,0,0,0-.551,2.126,3.584,3.584,0,0,0,.259,1.282,1.087,1.087,0,0,0,1.417.818,3.633,3.633,0,0,0,1.943-1.741c.037-.069.06-.1.074-.14a6.016,6.016,0,0,0,.725-1.311A3.685,3.685,0,0,0,344.647,160.947Z" transform="translate(-336.83 -142.489)" fill="#fff" opacity="0.6"/>
      </g>
    </g>
    <g id="Group_326" data-name="Group 326" transform="matrix(0.982, 0.191, -0.191, 0.982, 1544.582, 1631.137)">
      <g id="Group_321" data-name="Group 321" transform="translate(28.679 74.519)" opacity="0.81">
        <g id="Group_320" data-name="Group 320">
          <path id="Path_2819" data-name="Path 2819" d="M19.425,9.713A9.712,9.712,0,1,1,9.713,0,9.711,9.711,0,0,1,19.425,9.713Z" transform="translate(0.269 0.269)" fill="#e4f4fe" opacity="0.4"/>
          <path id="Path_2820" data-name="Path 2820" d="M9.982,19.963a9.981,9.981,0,1,1,9.982-9.981A9.993,9.993,0,0,1,9.982,19.963ZM9.982.54a9.442,9.442,0,1,0,9.443,9.443A9.454,9.454,0,0,0,9.982.54Z" fill="#eef8fe"/>
        </g>
        <path id="Path_2821" data-name="Path 2821" d="M6.282.142C3.967-.654.626,2.062.08,4.2c-.536,2.11,1.743,2.97,3.35,2.4C5.011,6.05,9.69,1.313,6.282.142Z" transform="translate(2.773 1.654)" fill="#fff" opacity="0.6"/>
        <path id="Path_2822" data-name="Path 2822" d="M2.352.454C2.144-.105,1.7-.078,1.287.162a2.14,2.14,0,0,0-1,1.165A3.377,3.377,0,0,0,0,2.438a1.909,1.909,0,0,0,.137.672.568.568,0,0,0,.741.428A1.915,1.915,0,0,0,1.9,2.627c.019-.037.031-.053.04-.073a3.286,3.286,0,0,0,.378-.686A1.933,1.933,0,0,0,2.352.454Z" transform="translate(1.738 9.198)" fill="#fff" opacity="0.6"/>
      </g>
      <g id="Group_332" data-name="Group 332" transform="translate(216.183 -181.971)" opacity="0.61">
        <g id="Group_320-2" data-name="Group 320">
          <path id="Path_2819-2" data-name="Path 2819" d="M19.425,9.713A9.712,9.712,0,1,1,9.713,0,9.711,9.711,0,0,1,19.425,9.713Z" transform="translate(0.269 0.269)" fill="#e4f4fe" opacity="0.4"/>
          <path id="Path_2820-2" data-name="Path 2820" d="M9.982,19.963a9.981,9.981,0,1,1,9.982-9.981A9.993,9.993,0,0,1,9.982,19.963ZM9.982.54a9.442,9.442,0,1,0,9.443,9.443A9.454,9.454,0,0,0,9.982.54Z" fill="#eef8fe"/>
        </g>
        <path id="Path_2821-2" data-name="Path 2821" d="M6.282.142C3.967-.654.626,2.062.08,4.2c-.536,2.11,1.743,2.97,3.35,2.4C5.011,6.05,9.69,1.313,6.282.142Z" transform="translate(2.773 1.654)" fill="#fff" opacity="0.6"/>
        <path id="Path_2822-2" data-name="Path 2822" d="M2.352.454C2.144-.105,1.7-.078,1.287.162a2.14,2.14,0,0,0-1,1.165A3.377,3.377,0,0,0,0,2.438a1.909,1.909,0,0,0,.137.672.568.568,0,0,0,.741.428A1.915,1.915,0,0,0,1.9,2.627c.019-.037.031-.053.04-.073a3.286,3.286,0,0,0,.378-.686A1.933,1.933,0,0,0,2.352.454Z" transform="translate(1.738 9.198)" fill="#fff" opacity="0.6"/>
      </g>
      <g id="Group_323" data-name="Group 323" transform="translate(0 55.399)" opacity="0.77">
        <g id="Group_322" data-name="Group 322">
          <path id="Path_2823" data-name="Path 2823" d="M10.684,5.34A5.342,5.342,0,1,1,5.343,0,5.341,5.341,0,0,1,10.684,5.34Z" transform="translate(0.147 0.15)" fill="#e4f4fe" opacity="0.4"/>
          <path id="Path_2824" data-name="Path 2824" d="M5.49,10.979a5.49,5.49,0,1,1,5.49-5.49A5.5,5.5,0,0,1,5.49,10.979ZM5.49.3A5.193,5.193,0,1,0,10.681,5.49,5.2,5.2,0,0,0,5.49.3Z" fill="#eef8fe"/>
        </g>
        <path id="Path_2825" data-name="Path 2825" d="M3.454.078C2.18-.36.344,1.132.044,2.311-.252,3.472,1,3.943,1.887,3.633,2.757,3.327,5.328.721,3.454.078Z" transform="translate(1.525 0.911)" fill="#fff" opacity="0.6"/>
        <path id="Path_2826" data-name="Path 2826" d="M1.293.25C1.182-.057.934-.043.71.089A1.167,1.167,0,0,0,.162.73,1.843,1.843,0,0,0,0,1.341a1.092,1.092,0,0,0,.076.369.31.31,0,0,0,.408.235,1.053,1.053,0,0,0,.559-.5l.021-.04a1.737,1.737,0,0,0,.208-.379A1.044,1.044,0,0,0,1.293.25Z" transform="translate(0.954 5.059)" fill="#fff" opacity="0.6"/>
      </g>
      <g id="Group_325" data-name="Group 325" transform="translate(23.956)" opacity="0.73">
        <g id="Group_324" data-name="Group 324">
          <circle id="Ellipse_283" data-name="Ellipse 283" cx="12.869" cy="12.869" r="12.869" transform="translate(0.356 0.357)" fill="#e4f4fe" opacity="0.4"/>
          <path id="Path_2827" data-name="Path 2827" d="M13.226,26.451A13.225,13.225,0,1,1,26.451,13.226,13.24,13.24,0,0,1,13.226,26.451Zm0-25.734a12.509,12.509,0,1,0,12.508,12.51A12.521,12.521,0,0,0,13.226.717Z" fill="#eef8fe"/>
        </g>
        <path id="Path_2828" data-name="Path 2828" d="M8.324.189C5.255-.868.829,2.731.107,5.566-.608,8.362,2.412,9.5,4.545,8.752,6.641,8.014,12.841,1.738,8.324.189Z" transform="translate(3.673 2.194)" fill="#fff" opacity="0.6"/>
        <path id="Path_2829" data-name="Path 2829" d="M3.115.6C2.843-.138,2.248-.1,1.705.216A2.82,2.82,0,0,0,.386,1.758,4.481,4.481,0,0,0,0,3.23a2.49,2.49,0,0,0,.182.889.753.753,0,0,0,.981.569A2.537,2.537,0,0,0,2.512,3.481c.024-.05.039-.074.05-.1a4.239,4.239,0,0,0,.5-.908A2.561,2.561,0,0,0,3.115.6Z" transform="translate(2.302 12.189)" fill="#fff" opacity="0.6"/>
      </g>
      <g id="Group_333" data-name="Group 333" transform="translate(57.048 -97.098)" opacity="0.69">
        <g id="Group_324-2" data-name="Group 324">
          <circle id="Ellipse_283-2" data-name="Ellipse 283" cx="10.685" cy="10.685" r="10.685" transform="translate(0.296 0.297)" fill="#e4f4fe" opacity="0.4"/>
          <path id="Path_2827-2" data-name="Path 2827" d="M10.982,21.962a10.981,10.981,0,1,1,10.98-10.98A10.993,10.993,0,0,1,10.982,21.962ZM10.982.6A10.387,10.387,0,1,0,21.367,10.982,10.4,10.4,0,0,0,10.982.6Z" fill="#eef8fe"/>
        </g>
        <path id="Path_2828-2" data-name="Path 2828" d="M6.911.157C4.363-.721.688,2.267.089,4.621-.5,6.943,2,7.889,3.774,7.267,5.514,6.654,10.662,1.443,6.911.157Z" transform="translate(3.05 1.821)" fill="#fff" opacity="0.6"/>
        <path id="Path_2829-2" data-name="Path 2829" d="M2.586.5c-.226-.614-.72-.586-1.17-.32a2.341,2.341,0,0,0-1.1,1.28A3.72,3.72,0,0,0,0,2.682a2.068,2.068,0,0,0,.151.738.625.625,0,0,0,.814.472,2.106,2.106,0,0,0,1.118-1c.02-.041.032-.062.042-.082a3.52,3.52,0,0,0,.419-.754A2.126,2.126,0,0,0,2.586.5Z" transform="translate(1.912 10.12)" fill="#fff" opacity="0.6"/>
      </g>
    </g>
  </g>
</svg>
