<svg xmlns="http://www.w3.org/2000/svg" xmlns:xlink="http://www.w3.org/1999/xlink" width="3017.843" height="1130" viewBox="0 0 3017.843 1130">
  <defs>
    <linearGradient id="linear-gradient" x1="0.5" x2="0.5" y2="1" gradientUnits="objectBoundingBox">
      <stop offset="0" stop-color="#115bb1"/>
      <stop offset="1" stop-color="#1d66bb"/>
    </linearGradient>
    <linearGradient id="linear-gradient-2" x1="0.5" x2="0.5" y2="1" gradientUnits="objectBoundingBox">
      <stop offset="0" stop-color="#08366b"/>
      <stop offset="1" stop-color="#1c73d8"/>
    </linearGradient>
    <linearGradient id="linear-gradient-3" x1="0.5" y1="0.054" x2="0.5" y2="0.97" gradientUnits="objectBoundingBox">
      <stop offset="0" stop-color="#e6f5fa"/>
      <stop offset="1" stop-color="#e6f5fa"/>
    </linearGradient>
    <linearGradient id="linear-gradient-4" x1="0.5" x2="0.5" y2="1" gradientUnits="objectBoundingBox">
      <stop offset="0" stop-color="#effbff"/>
      <stop offset="1" stop-color="#ccc"/>
    </linearGradient>
    <linearGradient id="linear-gradient-5" x1="0.5" x2="0.5" y2="1" gradientUnits="objectBoundingBox">
      <stop offset="0"/>
      <stop offset="1" stop-color="#fff"/>
    </linearGradient>
    <linearGradient id="linear-gradient-11" y1="0.054" y2="0.97" xlink:href="#linear-gradient-5"/>
  </defs>
  <g id="Envirnment" transform="translate(401.57 50)">
    <rect id="Sky" width="1920" height="651" transform="translate(-0.047 -50)" fill="url(#linear-gradient)"/>
    <rect id="Sea" width="1920" height="300" transform="translate(1919.953 1080) rotate(180)" fill="url(#linear-gradient-2)"/>
    <g id="Float_1" data-name="Float 1">
      <path id="Path_15" data-name="Path 15" d="M201,894l116.923-20L399,889h73l88,59H366.978Z" fill="#fbfdff"/>
      <path id="Path_16" data-name="Path 16" d="M201,894v57.813L365,987l1.978-39Z" fill="#bfe1ef"/>
      <path id="Path_17" data-name="Path 17" d="M365,987l191-14,4-25H366.978Z" fill="#85ceec"/>
    </g>
    <g id="Float_2" data-name="Float 2" transform="translate(-22 -42)">
      <path id="Path_18" data-name="Path 18" d="M776,1014l30-21,44-6,89,28.9L837,1024Z" fill="#fbfdff"/>
      <path id="Path_19" data-name="Path 19" d="M776,1014v15.352L835,1041l2-17Z" fill="#b8dbed"/>
      <path id="Path_20" data-name="Path 20" d="M835,1041l104-11v-14.1L837,1024Z" fill="#87c9e2"/>
    </g>
    <g id="Mountain_Left" data-name="Mountain Left" transform="translate(-98.523)">
      <g id="Group_1" data-name="Group 1">
        <path id="Path_21" data-name="Path 21" d="M-303.047,601H500L362.771,562.212,235.706,462.818l-98.28-40.353L98.477,361H-33.67l-101.652,99.394-116.9,33.939Z" fill="#eefafd"/>
        <path id="Path_22" data-name="Path 22" d="M172.026,547.667,117.965,601H246.9Z" fill="#e6f5fa"/>
        <path id="Path_23" data-name="Path 23" d="M235.706,462.818l-83.23,5.842,29.957,25.673,17.255-16.538h24.9L335.31,540.731Z" fill="#e6f5fa"/>
        <path id="Path_24" data-name="Path 24" d="M98.477,361,43.361,448.636V560.029L-2.051,601H-115.578l-22.706-48.707V491.955l2.963-31.561L-33.67,361Z" fill="#9bd6ea"/>
        <path id="Path_25" data-name="Path 25" d="M53.091,369.732,4.437,464.107V553.84L-2.051,601H-115.578l84.335-53.348V474.937Z" fill="#bbe4f1"/>
        <path id="Path_26" data-name="Path 26" d="M-135.321,460.394l-58.1,72.16v50.682L-303.047,601h187.469l-22.706-48.707Z" fill="#e6f5fa"/>
        <path id="Path_27" data-name="Path 27" d="M-252.221,494.333v98.43L-303.047,601Z" fill="#bbe4f1"/>
        <path id="Path_28" data-name="Path 28" d="M43.361,448.636,79.309,562.212,53.091,601H-2.051l45.411-40.971Z" fill="#bbe4f1"/>
        <path id="Path_29" data-name="Path 29" d="M362.771,562.212,413.137,601H500Z" fill="#e6f5fa"/>
      </g>
      <path id="Path_30" data-name="Path 30" d="M152.476,494.333l19.55,53.334L246.9,601Z" fill="#bbe4f1"/>
    </g>
    <g id="Mountain_Right" data-name="Mountain Right">
      <g id="Group_3" data-name="Group 3" transform="translate(1581.953 286)">
        <path id="Path_31" data-name="Path 31" d="M1581.953,601H2616.272l-176.75-50.909L2275.864,419.636,2149.28,366.674,2099.113,286h-170.2L1797.983,416.455,1647.417,461Z" transform="translate(-1581.953 -286)" fill="#eefafe"/>
        <path id="Path_32" data-name="Path 32" d="M2072.6,531l-69.63,70h166.068Z" transform="translate(-1460.704 -286)" fill="#e6f5fa"/>
        <path id="Path_33" data-name="Path 33" d="M2144.676,419.636l-107.2,7.668L2076.06,461l22.225-21.707h32.065l142.615,82.6Z" transform="translate(-1450.766 -286)" fill="#e6f5fa"/>
        <path id="Path_35" data-name="Path 35" d="M1986.667,297.461,1924,421.328V539.1l-8.356,61.9H1769.422l108.623-70.02V435.542Z" transform="translate(-1527.964 -286)" fill="#bbe4f1"/>
        <path id="Path_36" data-name="Path 36" d="M1797.983,416.455l-74.839,94.709v66.52L1581.953,601h241.458l-29.245-63.928Z" transform="translate(-1581.953 -286)" fill="#e6f5fa"/>
        <path id="Path_37" data-name="Path 37" d="M1647.417,461V590.19L1581.953,601Z" transform="translate(-1581.953 -286)" fill="#bbe4f1"/>
        <path id="Path_38" data-name="Path 38" d="M1941.439,401.022l46.3,149.069L1953.972,601h-71.022l58.49-53.774Z" transform="translate(-1495.268 -286)" fill="#bbe4f1"/>
        <path id="Path_39" data-name="Path 39" d="M2247.771,550.091,2312.642,601h111.879Z" transform="translate(-1390.202 -286)" fill="#e6f5fa"/>
      </g>
      <path id="Path_40" data-name="Path 40" d="M2037.476,461l25.18,70,96.438,70Z" transform="translate(131.188)" fill="#bbe4f1"/>
    </g>
    <g id="Floor">
      <path id="Path_2" data-name="Path 2" d="M0,879.418,285,853l-1-88L0,788.824Z" fill="#9bd6ea"/>
      <path id="Path_3" data-name="Path 3" d="M285,853l237,2-1-87-237-3Z" fill="#e6f5fa"/>
      <path id="Path_5" data-name="Path 5" d="M560,751l-1,82,126-17,1-63Z" fill="#e6f5fa"/>
      <path id="Path_4" data-name="Path 4" d="M522,855l37.078-21.969.984-82.016L521,768Z" fill="#bbe4f1"/>
      <path id="Path_6" data-name="Path 6" d="M684.953,816,909,799l-1-33.121V746l-222.047,7Z" fill="#9bd6ea"/>
      <path id="Path_7" data-name="Path 7" d="M908,765.879v49.415L925,885l78,40,6-79Z" fill="#bbe4f1"/>
      <path id="Path_8" data-name="Path 8" d="M1002.969,925.016,1069,915l-1-82-59.031,13.016Z" fill="url(#linear-gradient-3)"/>
      <path id="Path_9" data-name="Path 9" d="M1068,833l1,82,61-2-4-45Z" fill="#9bd6ea"/>
      <path id="Path_10" data-name="Path 10" d="M1126,868l4,45,140,58,14-58Z" fill="#bbe4f1"/>
      <path id="Path_11" data-name="Path 11" d="M1269.906,970.984l94.172-16.953-7-48L1283.919,913Z" fill="#9bd6ea"/>
      <path id="Path_12" data-name="Path 12" d="M1357,906l7,48,221.065,17.017-3.018-52.033Z" fill="#bbe4f1"/>
      <path id="Path_13" data-name="Path 13" d="M1585,971l115-26,118-37-236,11Z" fill="#9bd6ea"/>
      <path id="Path_14" data-name="Path 14" d="M1700,945v42.154L1924,987V948Z" fill="#e6f5fa"/>
      <path id="Path_1" data-name="Path 1" d="M-.239,789.638l284.066-24.39,237.263,3.038,38.986-17.11L685.9,753.1,908,746.241v19.911l101.064,80.019,58.858-13.061,58.063,34.991,158.02,45.064L1357,906.109l225.018,13.163,235.739-11.209-118.04,36.954L1921,949l5-348H-48Z" fill="url(#linear-gradient-4)"/>
      <path id="Path_250" data-name="Path 250" d="M1700,945v42.154L1924,987V948Z" opacity="0.17" fill="url(#linear-gradient-5)" style="mix-blend-mode: multiply;isolation: isolate"/>
      <path id="Path_251" data-name="Path 251" d="M1585,971l115-26,118-37-236,11Z" opacity="0.17" fill="url(#linear-gradient-5)" style="mix-blend-mode: multiply;isolation: isolate"/>
      <path id="Path_252" data-name="Path 252" d="M1357,906l7,48,221.065,17.017-3.018-52.033Z" opacity="0.17" fill="url(#linear-gradient-5)" style="mix-blend-mode: multiply;isolation: isolate"/>
      <path id="Path_253" data-name="Path 253" d="M1269.906,970.984l94.172-16.953-7-48L1283.919,913Z" opacity="0.17" fill="url(#linear-gradient-5)" style="mix-blend-mode: multiply;isolation: isolate"/>
      <path id="Path_254" data-name="Path 254" d="M1126,868l4,45,140,58,14-58Z" opacity="0.17" fill="url(#linear-gradient-5)" style="mix-blend-mode: multiply;isolation: isolate"/>
      <path id="Path_255" data-name="Path 255" d="M1068,833l1,82,61-2-4-45Z" opacity="0.17" fill="url(#linear-gradient-5)" style="mix-blend-mode: multiply;isolation: isolate"/>
      <path id="Path_256" data-name="Path 256" d="M1002.969,925.016,1069,915l-1-82-59.031,13.016Z" opacity="0.17" fill="url(#linear-gradient-11)" style="mix-blend-mode: multiply;isolation: isolate"/>
      <path id="Path_257" data-name="Path 257" d="M908,765.879v49.415L925,885l78,40,6-79Z" opacity="0.17" fill="url(#linear-gradient-5)" style="mix-blend-mode: multiply;isolation: isolate"/>
      <path id="Path_258" data-name="Path 258" d="M684.953,816,909,799l-1-33.121V746l-222.047,7Z" opacity="0.17" fill="url(#linear-gradient-5)" style="mix-blend-mode: multiply;isolation: isolate"/>
      <path id="Path_259" data-name="Path 259" d="M560,751l-1,82,126-17,1-63Z" opacity="0.17" fill="url(#linear-gradient-5)" style="mix-blend-mode: multiply;isolation: isolate"/>
      <path id="Path_260" data-name="Path 260" d="M522,855l37.078-21.969.984-82.016L521,768Z" opacity="0.17" fill="url(#linear-gradient-5)" style="mix-blend-mode: multiply;isolation: isolate"/>
      <path id="Path_261" data-name="Path 261" d="M285,853l237,2-1-87-237-3Z" opacity="0.17" fill="url(#linear-gradient-5)" style="mix-blend-mode: multiply;isolation: isolate"/>
      <path id="Path_262" data-name="Path 262" d="M0,879.418,285,853l-1-88L0,788.824Z" opacity="0.17" fill="url(#linear-gradient-5)" style="mix-blend-mode: multiply;isolation: isolate"/>
    </g>
    <g id="Polar_Bear" data-name="Polar Bear" transform="matrix(0.999, 0.035, -0.035, 0.999, 519.564, 601.082)">
      <path id="Path_210" data-name="Path 210" d="M879.651,786.131c0,11.735-67.483,21.25-150.725,21.25S578.2,797.865,578.2,786.131s67.483-21.25,150.729-21.25S879.651,774.394,879.651,786.131Z" transform="matrix(1, 0.017, -0.017, 1, -12.705, -640.362)" fill="#9bd6ea" opacity="0.2" style="mix-blend-mode: multiply;isolation: isolate"/>
      <path id="Path_191" data-name="Path 191" d="M719.723-7.886l2.124-.411.428-.07.432-.114c7.16-1.394,14.291-2.961,21.484-4.154,34.2-5.673,69.127,13.378,82.933,45.131.726,1.669,1.475,3.328,2.213,4.991q.387,1.89.775,3.78-1.523,1.724-3.047,3.445l4.582,2.635q.813,2.873,1.625,5.744c1.719,14.15,1.564,28.237-2.481,41.995-3.123,10.624-1,19.309,7.958,26.108,1.715,1.3,3.3,2.777,4.947,4.172-.457,2.08-.42,4.452-1.45,6.194-6.835,11.563-15.467,20.432-30.5,18.779-.523-1.658-.52-4.021-1.651-4.865-11.024-8.235-22.238-16.215-33.4-24.268l-8.9-5.95c-5.629-3.292-10.881-7.88-16.955-9.651-26.3-7.668-52.846-14.52-79.313-21.628-.877-.235-1.872-.03-4.349-.03L673.616,98.3c3.926,10.143,8.039,20.218,11.725,30.448,3.907,10.84-.9,19.552-7.524,27.655l-36-4.349c4.431-3.185,4.7-6.95,1.973-11.492-3.551-5.9-6.823-11.972-10.216-17.969-1.9-2.935-3.611-6.011-5.728-8.778-7.577-9.9-15.292-19.7-22.954-29.537-1.98-1.317-3.8-3.319-5.966-3.839-13.633-3.262-26.542-7.746-38.417-15.7-5.827-3.9-13.374-5.688-20.406-7.246-11.48-2.543-23.182-4.076-34.774-6.13-2.589-.459-5.107-1.314-7.657-1.987q-.969-9.424-1.937-18.849l3.107-1.557,3.871-1.6c4.345-1.994,6.957-5.285,10.2-8.253.379-.19.522-.246.857-.385l.94-.367,5.007-2.236,3.99-1.788,3-1.068,24.9-5.432c4.3,2.264,8.505,4.724,12.917,6.733,3.563,1.622,5.871,5.734,3.207,8.926-5.484,6.571.107,12.4-.035,18.678a11.8,11.8,0,0,0,2.992-4.447,45.674,45.674,0,0,0,.637-33.012C586.51.051,601.95-3.933,616.8-9.484c13.113-4.9,24.989-3.233,36.9,2.787l11.974,23.391L678.775-3.363l25.93-2.3ZM615.68,13.923c-13.595,4.34-22.063,36.948-12.393,46.6C607.377,45.146,611.556,29.432,615.68,13.923Zm139.007,74.4,2.272.048c.25-1.188.543-2.369.743-3.565,1.588-9.465,3.107-18.943,4.769-28.395.43-2.446,1.581-4.785,1.848-7.234.152-1.4-.446-3.765-1.367-4.162a4.632,4.632,0,0,0-4.288,1.23c-1.731,2.345-3.524,5.065-3.977,7.847a131.152,131.152,0,0,0-1.83,19.807C752.813,78.705,754.032,83.518,754.687,88.327Zm-194.4-63.284,2.78.311q.4-3.286.79-6.572l-3.028-.309Z" fill="#f8f8f8"/>
      <path id="Path_192" data-name="Path 192" d="M673.616,98.3l-6.438-14.356c2.477,0,3.472-.205,4.349.03,26.467,7.108,53.009,13.96,79.313,21.628,6.074,1.771,11.326,6.359,16.955,9.651-9.313-3.382-18.852-5.452-28.829-5.007-21.954-.389-43.5-2.986-63.873-11.87A4.3,4.3,0,0,0,673.616,98.3Z" fill="#e4e5e7"/>
      <path id="Path_193" data-name="Path 193" d="M625.06,137.447q-1.191,3.943-2.381,7.886l-37.125-3.056L600.627,107.3c2.728,3.7,5.3,7.524,8.216,11.07C614.142,124.816,619.643,131.1,625.06,137.447Z" fill="#e4e5e7"/>
      <path id="Path_194" data-name="Path 194" d="M625.06,137.447c-5.417-6.35-10.918-12.631-16.217-19.078-2.914-3.546-5.488-7.371-8.216-11.07q2.131-11.51,4.262-23.018c7.662,9.837,15.377,19.635,22.954,29.537,2.117,2.767,3.83,5.843,5.728,8.778Z" fill="#d1d2d4"/>
      <path id="Path_195" data-name="Path 195" d="M767.581,142.318l-2.028,8.988c-8.39-.833-16.813-1.427-25.155-2.6-3.988-.561-7.821-2.221-11.725-3.383q2.6-5.946,5.2-11.893,2.331-7.1,4.663-14.2c5.44,3.494,11.18,6.607,16.231,10.594C759.422,133.5,763.338,138.117,767.581,142.318Z" fill="#e3e4e6"/>
      <path id="Path_196" data-name="Path 196" d="M767.581,142.318c-4.243-4.2-8.159-8.815-12.817-12.491-5.051-3.987-10.791-7.1-16.231-10.594q.216-4.491.433-8.984c9.977-.445,19.516,1.625,28.829,5.007l8.9,5.95Q772.14,131.761,767.581,142.318Z" fill="#d0d1d4"/>
      <path id="Path_197" data-name="Path 197" d="M811.748,150.339c15.031,1.653,23.663-7.216,30.5-18.779,1.03-1.742.993-4.114,1.45-6.194l8.041,2.959a40.136,40.136,0,0,1-2.1,4.921c-3.724,6.3-7.364,12.665-11.4,18.765-7.088,10.718-23.7,14.433-34.76,7.938-3.338-1.96-1.792-3.7.563-5.127C806.583,153.28,809.178,151.829,811.748,150.339Z" fill="#e3e5e7"/>
      <path id="Path_198" data-name="Path 198" d="M585.554,142.277l37.125,3.056c1.6,3.666,1.044,6.276-3.525,6.446-14.1.524-28.2,1.055-42.3,1.319-2.52.048-5.064-1.162-7.6-1.791l-.635-1.772c2.308-1.439,4.479-3.208,6.957-4.233A99.261,99.261,0,0,1,585.554,142.277Z" fill="#ced1d3"/>
      <path id="Path_199" data-name="Path 199" d="M728.673,145.323c3.9,1.162,7.737,2.822,11.725,3.383,8.342,1.173,16.765,1.767,25.155,2.6,1.154,3.178-.311,4.145-3.3,4.12-12.855-.107-25.71-.146-38.566-.21l-12.832-2.869,2.909-4.79,2.945-1.191Z" fill="#cdcfd2"/>
      <path id="Path_200" data-name="Path 200" d="M641.814,152.057l36,4.349c-2.033,1.317-4.006,3.664-6.107,3.784-12.738.728-25.5,1.047-38.265,1.212-1.611.021-3.245-1.663-4.868-2.558,1.508-1.568,2.749-3.714,4.589-4.568C635.82,153.044,638.91,152.751,641.814,152.057Z" fill="#e1e4e7"/>
      <path id="Path_201" data-name="Path 201" d="M571.324,4.717a45.674,45.674,0,0,1-.637,33.012,11.8,11.8,0,0,1-2.992,4.447c.142-6.278-5.449-12.107.035-18.678,2.664-3.192.356-7.3-3.207-8.926-4.412-2.009-8.62-4.469-12.917-6.733Z" fill="#e4e5e8"/>
      <path id="Path_202" data-name="Path 202" d="M678.775-3.363,665.681,16.694,653.707-6.7Z" fill="#e3e5e7"/>
      <path id="Path_203" data-name="Path 203" d="M490.741,46.332c-3.725-4.056-1.252-8.622-1.072-13a1.773,1.773,0,0,1,1.021-1.039l5.042-1.766q.968,9.425,1.937,18.849Z" fill="#d8dadd"/>
      <path id="Path_204" data-name="Path 204" d="M615.68,13.923c-4.124,15.509-8.3,31.223-12.393,46.6C593.617,50.871,602.085,18.263,615.68,13.923Z" fill="#e6e7e9"/>
      <path id="Path_205" data-name="Path 205" d="M754.687,88.327c-.655-4.809-1.874-9.622-1.83-14.424a131.152,131.152,0,0,1,1.83-19.807c.453-2.782,2.246-5.5,3.977-7.847a4.632,4.632,0,0,1,4.288-1.23c.921.4,1.519,2.764,1.367,4.162-.267,2.449-1.418,4.788-1.848,7.234-1.662,9.452-3.181,18.93-4.769,28.395-.2,1.2-.493,2.377-.743,3.565Z" fill="#e6e7e9"/>
      <path id="Path_206" data-name="Path 206" d="M560.292,25.043l.542-6.57,3.028.309q-.395,3.286-.79,6.572Z" fill="#e6e7e9"/>
      <path id="Path_207" data-name="Path 207" d="M830.112,41.267q.768,3.041,1.535,6.08l-4.582-2.635Q828.589,42.99,830.112,41.267Z" fill="#eceff1"/>
      <path id="Path_208" data-name="Path 208" d="M864.713,175.332l2.005,2.022Z" fill="#4472a2"/>
      <ellipse id="Ellipse_1" data-name="Ellipse 1" cx="3.049" cy="2.22" rx="3.049" ry="2.22" transform="translate(516.78 24.415)"/>
      <path id="Path_209" data-name="Path 209" d="M489.154,33.055s2.967,5.143-1.747,7.912c-1.286-.692-1.978-5.242-1.682-5.637C485.791,34.637,487.736,33.088,489.154,33.055Z"/>
    </g>
    <g id="Polar_Bear-2" data-name="Polar Bear" transform="matrix(0.999, 0.035, -0.035, 0.999, 905.58, 697.535)">
      <path id="Path_210-2" data-name="Path 210" d="M228.7,16.121c0,8.9-51.2,16.121-114.35,16.121S0,25.024,0,16.121,51.2,0,114.353,0,228.7,7.217,228.7,16.121Z" transform="matrix(1, 0.017, -0.017, 1, 536.03, 98.745)" fill="#9bd6ea" opacity="0.2" style="mix-blend-mode: multiply;isolation: isolate"/>
      <path id="Path_191-2" data-name="Path 191" d="M665.666-9.272l1.611-.312.325-.053.328-.086c5.432-1.058,10.842-2.246,16.3-3.151,25.949-4.3,52.444,10.149,62.918,34.239.551,1.266,1.119,2.525,1.679,3.786q.294,1.434.588,2.868-1.155,1.308-2.312,2.614l3.476,2,1.233,4.358c1.3,10.735,1.187,21.422-1.882,31.86-2.369,8.06-.756,14.649,6.037,19.807,1.3.989,2.5,2.107,3.753,3.165-.347,1.578-.319,3.378-1.1,4.7-5.185,8.772-11.734,15.5-23.138,14.247-.4-1.258-.394-3.051-1.253-3.691-8.363-6.248-16.871-12.3-25.338-18.411l-6.755-4.514c-4.271-2.5-8.255-5.978-12.863-7.322-19.956-5.817-40.092-11.016-60.172-16.408a18.005,18.005,0,0,0-3.3-.023l4.884,10.891c2.978,7.7,6.1,15.339,8.9,23.1,2.964,8.224-.683,14.833-5.708,20.981l-27.314-3.3c3.362-2.416,3.569-5.273,1.5-8.719-2.694-4.478-5.176-9.083-7.75-13.632-1.44-2.227-2.74-4.56-4.346-6.66-5.748-7.512-11.6-14.946-17.414-22.409-1.5-1-2.88-2.518-4.526-2.913-10.343-2.475-20.136-5.877-29.146-11.913-4.421-2.963-10.146-4.315-15.481-5.5-8.709-1.929-17.587-3.092-26.382-4.651-1.964-.348-3.874-1-5.809-1.507q-.735-7.15-1.47-14.3l2.357-1.181,2.937-1.216c3.3-1.513,5.278-4.01,7.735-6.261.288-.144.4-.187.65-.292l.713-.278,3.8-1.7,3.027-1.356,2.279-.81,18.893-4.121c3.26,1.718,6.452,3.584,9.8,5.108,2.7,1.231,4.454,4.35,2.433,6.772-4.161,4.985.081,9.407-.027,14.17a8.953,8.953,0,0,0,2.27-3.374A34.651,34.651,0,0,0,553.081.289c11.521-3.54,23.235-6.562,34.5-10.774,9.948-3.717,18.958-2.453,28,2.114l9.084,17.746L634.6-5.841l19.672-1.746ZM586.732,7.273c-10.314,3.293-16.738,28.031-9.4,35.355C580.433,30.961,583.6,19.039,586.732,7.273ZM692.191,63.721l1.724.036c.19-.9.412-1.8.564-2.7,1.2-7.181,2.357-14.371,3.618-21.542.326-1.856,1.2-3.63,1.4-5.488.115-1.061-.338-2.856-1.037-3.158a3.514,3.514,0,0,0-3.253.933,14.819,14.819,0,0,0-3.017,5.953A99.5,99.5,0,0,0,690.8,52.778C690.77,56.421,691.695,60.072,692.191,63.721ZM544.711,15.71l2.109.236q.3-2.493.6-4.986l-2.3-.234Z" transform="translate(-2.431 0)" fill="#fdfdfd"/>
      <path id="Path_192-2" data-name="Path 192" d="M672.062,94.818l-4.884-10.891a18.006,18.006,0,0,1,3.3.023c20.08,5.393,40.216,10.591,60.172,16.408,4.608,1.344,8.593,4.824,12.863,7.322a56.3,56.3,0,0,0-21.871-3.8c-16.656-.3-33-2.265-48.458-9.005A3.264,3.264,0,0,0,672.062,94.818Z" transform="translate(-43.808 -23.529)" fill="#e4e5e7"/>
      <path id="Path_193-2" data-name="Path 193" d="M615.526,130.171q-.9,2.992-1.806,5.983l-28.165-2.318L596.989,107.3c2.07,2.806,4.022,5.708,6.233,8.4C607.243,120.589,611.416,125.354,615.526,130.171Z" transform="translate(-24.109 -29.185)" fill="#e4e5e7"/>
      <path id="Path_194-2" data-name="Path 194" d="M619.163,124.616c-4.11-4.818-8.283-9.583-12.3-14.474-2.211-2.69-4.164-5.592-6.233-8.4q1.617-8.732,3.233-17.463c5.813,7.463,11.666,14.9,17.414,22.409,1.606,2.1,2.906,4.433,4.346,6.66Z" transform="translate(-27.747 -23.63)" fill="#d1d2d4"/>
      <path id="Path_195-2" data-name="Path 195" d="M758.191,136.747l-1.539,6.819c-6.365-.632-12.755-1.083-19.084-1.973-3.026-.426-5.934-1.685-8.9-2.567q1.971-4.511,3.943-9.023l3.538-10.771c4.127,2.651,8.482,5.012,12.314,8.037C752,130.059,754.972,133.56,758.191,136.747Z" transform="translate(-58.649 -32.065)" fill="#e3e4e6"/>
      <path id="Path_196-2" data-name="Path 196" d="M760.571,134.564c-3.219-3.187-6.19-6.688-9.724-9.476-3.832-3.025-8.187-5.386-12.314-8.037q.164-3.407.328-6.816a56.3,56.3,0,0,1,21.871,3.8l6.755,4.514Q764.03,126.555,760.571,134.564Z" transform="translate(-61.028 -29.882)" fill="#d0d1d4"/>
      <path id="Path_197-2" data-name="Path 197" d="M809.289,144.312c11.4,1.254,17.952-5.475,23.138-14.247.781-1.322.753-3.121,1.1-4.7l6.1,2.245a30.447,30.447,0,0,1-1.59,3.733c-2.825,4.78-5.587,9.608-8.648,14.236-5.377,8.131-17.978,10.95-26.371,6.022-2.532-1.487-1.359-2.8.427-3.89C805.37,146.543,807.339,145.442,809.289,144.312Z" transform="translate(-76.239 -33.545)" fill="#e3e5e7"/>
      <path id="Path_198-2" data-name="Path 198" d="M581.468,142.277l28.165,2.318c1.212,2.781.792,4.761-2.674,4.89-10.695.4-21.392.8-32.091,1-1.912.036-3.842-.882-5.763-1.359l-.482-1.344a38,38,0,0,1,5.278-3.211A75.3,75.3,0,0,1,581.468,142.277Z" transform="translate(-20.023 -37.626)" fill="#ced1d3"/>
      <path id="Path_199-2" data-name="Path 199" d="M724.373,145.323c2.962.882,5.87,2.141,8.9,2.567,6.329.89,12.719,1.341,19.084,1.973.875,2.411-.236,3.145-2.5,3.126-9.753-.081-19.505-.111-29.259-.159l-9.735-2.177,2.207-3.634,2.234-.9Z" transform="translate(-54.349 -38.361)" fill="#cdcfd2"/>
      <path id="Path_200-2" data-name="Path 200" d="M638.619,152.057l27.314,3.3c-1.542,1-3.039,2.78-4.633,2.871-9.664.552-19.349.794-29.03.919-1.222.016-2.462-1.262-3.693-1.941,1.144-1.19,2.086-2.818,3.482-3.466C634.072,152.806,636.416,152.584,638.619,152.057Z" transform="translate(-34.492 -39.987)" fill="#e1e4e7"/>
      <path id="Path_201-2" data-name="Path 201" d="M566.565,4.717a34.651,34.651,0,0,1-.483,25.045,8.953,8.953,0,0,1-2.27,3.374c.108-4.763-4.134-9.185.027-14.17,2.021-2.422.27-5.541-2.433-6.772-3.347-1.524-6.54-3.39-9.8-5.108Z" transform="translate(-15.916 -4.428)" fill="#e4e5e8"/>
      <path id="Path_202-2" data-name="Path 202" d="M672.725-4.168l-9.934,15.216L653.707-6.7Z" transform="translate(-40.557 -1.673)" fill="#e3e5e7"/>
      <path id="Path_203-2" data-name="Path 203" d="M490.248,42.518c-2.826-3.077-.95-6.541-.813-9.862a1.345,1.345,0,0,1,.775-.788l3.825-1.34q.734,7.15,1.47,14.3Z" transform="translate(-0.734 -10.657)" fill="#d8dadd"/>
      <path id="Path_204-2" data-name="Path 204" d="M611.686,13.923c-3.129,11.766-6.3,23.688-9.4,35.355C594.948,41.954,601.372,17.216,611.686,13.923Z" transform="translate(-27.385 -6.65)" fill="#e6e7e9"/>
      <path id="Path_205-2" data-name="Path 205" d="M754.245,77.838c-.5-3.648-1.422-7.3-1.388-10.943a99.5,99.5,0,0,1,1.388-15.027,14.819,14.819,0,0,1,3.017-5.953,3.514,3.514,0,0,1,3.253-.933c.7.3,1.152,2.1,1.037,3.158-.2,1.858-1.076,3.632-1.4,5.488-1.261,7.171-2.413,14.361-3.618,21.542-.152.907-.374,1.8-.564,2.7Z" transform="translate(-64.485 -14.117)" fill="#e6e7e9"/>
      <path id="Path_206-2" data-name="Path 206" d="M560.292,23.457l.411-4.984,2.3.234q-.3,2.493-.6,4.986Z" transform="translate(-18.012 -7.748)" fill="#e6e7e9"/>
      <path id="Path_207-2" data-name="Path 207" d="M829.377,41.267l1.165,4.613-3.476-2Q828.221,42.574,829.377,41.267Z" transform="translate(-82.395 -13.249)" fill="#eceff1"/>
      <path id="Path_208-2" data-name="Path 208" d="M864.713,175.332l1.521,1.534Z" transform="translate(-91.48 -45.604)" fill="#4472a2"/>
      <ellipse id="Ellipse_1-2" data-name="Ellipse 1" cx="2.314" cy="1.684" rx="2.314" ry="1.684" transform="translate(509.269 15.233)"/>
      <path id="Path_209-2" data-name="Path 209" d="M488.31,33.055s2.251,3.9-1.325,6c-.976-.525-1.5-3.977-1.276-4.277A3.428,3.428,0,0,1,488.31,33.055Z" transform="translate(0 -11.267)"/>
    </g>
    <g id="Group_12" data-name="Group 12" transform="translate(372.535 468.441)">
      <g id="Group_10" data-name="Group 10" transform="translate(0)">
        <g id="Group_4" data-name="Group 4">
          <path id="Path_52" data-name="Path 52" d="M1082.172,764.277l1.781-46.871C1099.421,534.564,1288.18,535,1288.18,535c209.812.741,224.522,156.883,220.084,229.492-.541,8.845-1.364,16.451-2.156,22.384-49.558,4.2-126.163,6.9-212.145,6.9-86.27,0-163.106-2.714-212.647-6.939Z" transform="translate(-1081.315 -535)" fill="#a2def9" style="mix-blend-mode: multiply;isolation: isolate"/>
          <path id="Path_53" data-name="Path 53" d="M1082.172,764.277l1.781-46.871C1099.421,534.564,1288.18,535,1288.18,535c209.812.741,224.522,156.883,220.084,229.492-.541,8.845-1.364,16.451-2.156,22.384-49.558,4.2-126.163,6.9-212.145,6.9-86.27,0-163.106-2.714-212.647-6.939Z" transform="translate(-1081.315 -535)" fill="#d8f0f6"/>
        </g>
        <g id="Group_5" data-name="Group 5" transform="translate(0 1.115)" opacity="0.4" style="mix-blend-mode: multiply;isolation: isolate">
          <path id="Path_54" data-name="Path 54" d="M1082.172,764.5l1.781-46.871c12.61-149.064,140.392-176.311,187.178-181.291A102.572,102.572,0,0,0,1246,551.372l42.765,10.91-45.819-.874c-11.782,4.364-26.183,27.055-26.183,27.055l14.838-29.237-7.856.873c-16.581,7.419-42.328,43.2-42.328,43.2l34.911,5.236c-6.546,7.855-13.092,36.22-13.092,36.22l61.094,8.727-62.839-.873-6.546,39.276,46.692,10.474-95.568,1.314L1143.89,749.5l43.346,3.5,4.218,31.01c11.347,1.747,99.932,3.545,99.932,3.545l5.237-25.234,1.744,25.055h50.621l1.749-26.579-54.107-5.87,58.483-4.458s-1.3-44.111,33.178-65.494,93.412-9.16,103.448-9.16c5.144,0,6.057-5.386,5.731-10.625,11.511,36.574,12.389,73.442,10.794,99.529-.541,8.844-1.364,16.447-2.156,22.379-49.558,4.2-126.163,6.9-212.145,6.9-86.27,0-163.106-2.716-212.647-6.94Z" transform="translate(-1081.315 -536.34)" fill="#b5dff2" style="mix-blend-mode: multiply;isolation: isolate"/>
        </g>
        <g id="Group_7" data-name="Group 7" transform="translate(279.872 145.315)">
          <path id="Path_55" data-name="Path 55" d="M1101.775,823.188c-.224-16.4,1.095-58.189,18.525-87.087,12.676-21.017,29.875-25.86,42.244-26.168l69.076.123.816,113.132Z" transform="translate(-1101.755 -709.729)" fill="#bfe7fb"/>
          <path id="Path_56" data-name="Path 56" d="M1101.775,823.188c-.224-16.4,1.095-58.189,18.525-87.087,12.676-21.017,29.875-25.86,42.244-26.168l69.076.123.816,113.132Z" transform="translate(-1101.755 -709.729)" fill="#caebf5"/>
          <path id="Path_57" data-name="Path 57" d="M1120.3,736.124c9.462-15.688,21.442-22.363,32.054-24.867-.727.282-1.452.572-2.17.88a34.127,34.127,0,0,0-7.658,4.326,38.174,38.174,0,0,0-5.909,6.194,51,51,0,0,0-3.9,5.232c-.77,1.235-2.171,3.2-1.838,4.787.29,1.367,2,1.7,3.163,1.986.649.16,1.3.294,1.957.422a16.435,16.435,0,0,0-4.833.422c-2.382.709-3.593,2.787-4.5,4.969-4.01,9.589-6.1,19.761-7.855,29.966a.445.445,0,0,0,.2.492c3.884,2.181,8.13,3.488,12.289,5.014-2.713-.462-7.027.606-9.741,1.882-2.872,1.353-1.883,2.716-2.458,5.7-1.487,7.718-3.33,16.086-1.954,23.951.536,3.058,35.218,8.346,35.921,5.643,1.307-5.04,2.761-9.942,4.394-14.893,1.78-5.394,3.539-10.907,3.807-16.621a.441.441,0,0,0-.32-.422c-4.208-1.314-9.159-1.061-12.977-3.422,3.267-.56,6.69-.007,9.968.131,2.493.106,6.168.413,8.35-1.147,1.8-1.286,2.624-3.657,3.263-5.685.9-2.836,1.492-5.744,2.179-8.635.906-3.836,2.672-7.429,3.9-11.175.659-2.021,1.178-4.087,1.855-6.1a4.043,4.043,0,0,0,.426-1.987c-.419-1.8-3.457-3.145-4.932-3.766-2.707-1.143-5.641-1.59-8.468-2.361,5.807-1.889,12.545,1.157,18.118-1.763,2.455-1.288,4.056-3.387,5.815-5.46a47.746,47.746,0,0,1,6.94-6.62c8.218-6.467,18.317-11.459,28.819-13.13l7.423.013.816,113.132H1101.775C1101.552,806.81,1102.87,765.021,1120.3,736.124Z" transform="translate(-1101.755 -709.751)" fill="#b5dff2" opacity="0.5" style="mix-blend-mode: multiply;isolation: isolate"/>
          <path id="Path_58" data-name="Path 58" d="M1038.773,823.184c-.223-16.4,1.095-58.189,18.526-87.087,22.109-36.656,57.981-24.117,57.981-24.117,39.081,16.264,42.43,76.293,39.377,111.2Z" transform="translate(-972.424 -709.726)" fill="#d8f0f6"/>
          <path id="Path_59" data-name="Path 59" d="M1157.453,716.913c-9.252-4.538-19.322-6.041-29.343-3.329-11.43,3.093-20.616,9.613-27.915,18.877-6.975,8.853-11.47,19.447-14.81,30.134a362.007,362.007,0,0,0-9.689,38.871c-1.253,6.456-2.2,12.9-2.847,19.363-.053-17.755,1.888-57.12,18.544-84.731,22.109-36.656,57.981-24.117,57.981-24.117a48.833,48.833,0,0,1,11.873,7.058A41.544,41.544,0,0,0,1157.453,716.913Z" transform="translate(-1006.516 -709.726)" fill="#a2def9" style="mix-blend-mode: screen;isolation: isolate"/>
          <path id="Path_60" data-name="Path 60" d="M1057.027,829.006c-.151-12.23.736-43.394,12.459-64.943,14.869-27.336,38.994-17.985,38.994-17.985,26.283,12.127,28.537,56.895,26.483,82.928Z" transform="translate(-967.639 -715.547)" fill="#a2def9" style="mix-blend-mode: screen;isolation: isolate"/>
          <path id="Path_61" data-name="Path 61" d="M1058,829.359c-.146-11.977.72-42.5,12.2-63.6,14.561-26.772,38.188-17.615,38.188-17.615,25.74,11.876,27.947,55.719,25.935,81.215Z" transform="translate(-967.804 -715.9)" fill="#93c4d6"/>
          <g id="Group_6" data-name="Group 6" transform="translate(5.546)" style="mix-blend-mode: color-dodge;isolation: isolate">
            <path id="Path_62" data-name="Path 62" d="M1181.539,733.835a38.147,38.147,0,0,1,26.974-24.147l4.88.512C1194.384,712.513,1181.539,733.835,1181.539,733.835Z" transform="translate(-1154.626 -709.688)" fill="#a2def9" opacity="0.6" style="mix-blend-mode: multiply;isolation: isolate"/>
            <path id="Path_63" data-name="Path 63" d="M1137.783,775.939c-5.468-1.229-8.7-2.25-8.7-2.25l31.5,2.2A105.175,105.175,0,0,1,1170,737.826c-17.6-1.42-26.378-4.573-26.378-4.573l51.916,3.445a43.209,43.209,0,0,1,30.414-27.011l5.529.582c-20.064,2.44-34.056,23.568-35.869,26.434l13.759.913a252.621,252.621,0,0,1-35.99.453c-6.915,10.973-11.224,31.249-12.491,37.843l34.808,2.432c-3.169.552-6.336.957-9.472,1.238L1175.919,821.4a237.042,237.042,0,0,1,6.294-41.53,163.942,163.942,0,0,1-41.515-3.307l-7.835,31.778A184.282,184.282,0,0,1,1137.783,775.939Z" transform="translate(-1129.08 -709.688)" fill="#a2def9" opacity="0.6" style="mix-blend-mode: multiply;isolation: isolate"/>
          </g>
        </g>
        <path id="Path_64" data-name="Path 64" d="M1054.148,827.337l-13.673.581v-3.344Z" transform="translate(-592.617 -583.691)" fill="#a2def9" style="mix-blend-mode: screen;isolation: isolate"/>
        <path id="Path_65" data-name="Path 65" d="M1056.9,793.728l-12.773,4.916-1.068-3.169Z" transform="translate(-597.518 -578.504)" fill="#a2def9" style="mix-blend-mode: screen;isolation: isolate"/>
        <path id="Path_66" data-name="Path 66" d="M1068.422,746.147l-14.182,14.837,1.527,2.181Z" transform="translate(-618.343 -570.504)" fill="#a2def9" style="mix-blend-mode: screen;isolation: isolate"/>
        <path id="Path_67" data-name="Path 67" d="M1097.205,714.409l-.654,25.746-3.492-.654Z" transform="translate(-679.417 -565.167)" fill="#a2def9" style="mix-blend-mode: screen;isolation: isolate"/>
        <path id="Path_68" data-name="Path 68" d="M1138.5,750.1l-2.617,2.4-12.656-15.273Z" transform="translate(-745.8 -569.004)" fill="#a2def9" style="mix-blend-mode: screen;isolation: isolate"/>
        <path id="Path_69" data-name="Path 69" d="M1161.411,784.593l-.8,2.4-17.454-6.836Z" transform="translate(-785.298 -576.223)" fill="#a2def9" style="mix-blend-mode: screen;isolation: isolate"/>
        <path id="Path_70" data-name="Path 70" d="M1169.319,821.6l-.192,2.523-18.594-2.38Z" transform="translate(-799.339 -583.191)" fill="#a2def9" style="mix-blend-mode: screen;isolation: isolate"/>
        <path id="Path_71" data-name="Path 71" d="M1085.973,732.926a46.3,46.3,0,0,1,4.784,6.656c-1.944,2.63-3.995,5.183-6.03,7.743-6.036-11.275-14.9-21.14-27.845-27.2C1056.882,720.126,1071.982,716.907,1085.973,732.926Z" transform="translate(-642.875 -566.084)" fill="#5bcbf5" style="mix-blend-mode: screen;isolation: isolate"/>
        <path id="Path_72" data-name="Path 72" d="M1049.975,786.13a112.461,112.461,0,0,0-7.26-26.451q3.493-3.22,6.737-6.693c3.92,9.168,6.41,19.99,7.838,30.93C1054.906,784.8,1052.443,785.466,1049.975,786.13Z" transform="translate(-597.625 -571.654)" fill="#5bcbf5" style="mix-blend-mode: screen;isolation: isolate"/>
        <path id="Path_73" data-name="Path 73" d="M1041.864,819.791a169.214,169.214,0,0,0-1.011-19.872c2.411-.616,4.8-1.344,7.212-1.942a195.327,195.327,0,0,1,.756,23.19A36.492,36.492,0,0,1,1041.864,819.791Z" transform="translate(-587.674 -579.219)" fill="#5bcbf5" style="mix-blend-mode: screen;isolation: isolate"/>
        <path id="Path_74" data-name="Path 74" d="M1048.847,832.062c-.214,3.747-.536,7.236-.95,10.357l-6.691-.873s.516-3.944.771-10.323Q1045.409,831.676,1048.847,832.062Z" transform="translate(-587.926 -584.809)" fill="#5bcbf5" style="mix-blend-mode: screen;isolation: isolate"/>
        <path id="Path_75" data-name="Path 75" d="M1302.07,669.322s-18.038-126.55-201.317-132.224c0,0,43.639,4.8,74.476,15.275,0,0,18.908,5.236,22.108,8.728l-16.289.291,27.928,3.781s31.128,16.291,41.6,29.965l-31.71,6.691,35.2-1.745s17.747,21.529,25.02,42.765l-14.546,1.454,17.164,1.455,8.437,22.4Z" transform="translate(-890.682 -535.353)" fill="#5bcbf5" style="mix-blend-mode: screen;isolation: isolate"/>
        <g id="Group_8" data-name="Group 8" transform="translate(3.664 0.874)" style="mix-blend-mode: screen;isolation: isolate">
          <path id="Path_76" data-name="Path 76" d="M1590.715,783.319c-.591-.121-.88-.189-.88-.189Z" transform="translate(-1589.835 -577.597)" fill="#5bcbf5"/>
          <path id="Path_77" data-name="Path 77" d="M1521.808,612.209c-1-.178-1.48-.276-1.48-.276Z" transform="translate(-1463.108 -548.81)" fill="#5bcbf5"/>
          <path id="Path_78" data-name="Path 78" d="M1342.258,785.5c-33-2.291-66.514-6.221-96.545-12.674,3.391.7,16.812,3.256,43.8,5.936-1.065-23.653.174-46.652.488-51.858-12.085-1.707-23.869-3.753-35.132-6.2,0,0,70.695,11.784,277.1,9.164,0,0-6.3.585-17.261,1.342l-2.159,43.387-3.85-42.987c-23.255,1.495-61.7,3.343-104.94,2.907l-2.705,41.389-2.134-41.449c-33.443-.468-69.481-2.339-103.419-6.807-3.51,12.529-5.518,44.846-5.88,51.118,41.126,4.078,113.68,8.432,230.129,6.957,0,0-24.473,1.71-61.006,2.372l-1.4,36.611-2.233-36.549c-30.5.482-68.8.2-108.1-2.343l-1.385,36.274Z" transform="translate(-1244.833 -567.1)" fill="#5bcbf5"/>
          <path id="Path_79" data-name="Path 79" d="M1458.161,655.042s-14.014-30.986-20.744-38.7c-18.615,1.763-48.072,4.167-82.809,5.616,1.143,5.57,4.5,23.575,3.773,39.927,0,0-3.981-28.6-8.406-39.74-26.987,1.043-56.931,1.485-87.322.6l-6.894,38.556,1.942-38.712a773.2,773.2,0,0,1-83.3-6.919c-1.669,2.951-14.148,25.246-19.3,40.976,0,0,4.563-24.5,14.807-41.642q-8.219-1.255-16.183-2.744c2.39.426,7.733,1.3,16.441,2.308l.061-.106,1.322.264c35.461,4.012,122.851,9.927,287.135-.6,0,0-5.015.6-13.944,1.5C1445.814,617.874,1454.759,636.9,1458.161,655.042Z" transform="translate(-1095.026 -548.866)" fill="#5bcbf5"/>
          <path id="Path_80" data-name="Path 80" d="M1106.626,702.585l-15.929-34.91,3.492-1.528S1102.917,689.275,1106.626,702.585Z" transform="translate(-690.536 -557.926)" fill="#5bcbf5"/>
          <path id="Path_81" data-name="Path 81" d="M1400.487,603.453s-13.813-29.563-23.251-39.471c-17.078,1.532-38.88,2.986-62.416,3.307l-2.19,39.436-1.095-39.4a547.655,547.655,0,0,1-62.672-2.742c-4.372,5.141-18.654,22.6-23.8,37.124,0,0,6.88-25.215,18.193-37.763-9.625-1.175-19.052-2.7-28.084-4.639,0,0,51.994,9.786,198.067.618,0,0-12.38,1.838-31.931,3.684A120,120,0,0,1,1400.487,603.453Z" transform="translate(-1100.694 -539.961)" fill="#5bcbf5"/>
          <path id="Path_82" data-name="Path 82" d="M1297.474,536.051l3.35.144s8.708,10.693,11.924,21.819C1312.748,558.014,1303.77,541.83,1297.474,536.051Z" transform="translate(-1068.666 -536.051)" fill="#5bcbf5"/>
          <path id="Path_83" data-name="Path 83" d="M1357.276,558.014c3.215-11.125,11.923-21.819,11.923-21.819l3.351-.144C1366.252,541.83,1357.276,558.014,1357.276,558.014Z" transform="translate(-1178.214 -536.051)" fill="#5bcbf5"/>
          <path id="Path_84" data-name="Path 84" d="M1318.469,676.124l-1.422,37.319-2.278-37.286c-32.1.24-65.777-.428-98.773-2.61-1.515,4.109-5.291,16.115-8.628,41.059,0,0,1.026-28.5,4-41.375-14.546-1.026-28.938-2.352-42.982-4.033-11.822-1.1-27.771-3.332-35.79-3.758a32.7,32.7,0,0,0-5.053.069c-2.75,5.638-10.487,22.637-12.984,39.932,0,0,3.475-24.514,10.245-39.41a4.988,4.988,0,0,0-2.3,1.3l2.82-6.252c7.884,1.6,32.01,5.173,42,6.633,53.019,4.65,158.584,9.183,333.435-2.023,0,0-32.1,3.657-80.19,6.659.663,3.209,4.2,21.023,3.6,33.1l-8.728-32.782C1387.194,674.353,1353.849,675.781,1318.469,676.124Z" transform="translate(-1104.529 -557.074)" fill="#5bcbf5"/>
          <path id="Path_85" data-name="Path 85" d="M1569.8,668.593l-.525,1.167A1.717,1.717,0,0,1,1569.8,668.593Z" transform="translate(-1551.823 -558.338)" fill="#5bcbf5"/>
        </g>
        <path id="Path_86" data-name="Path 86" d="M1127.394,825.386l-63.712-2.037S1102.084,829.168,1127.394,825.386Z" transform="translate(-685.168 -583.485)" fill="#93c4d6" style="mix-blend-mode: multiply;isolation: isolate"/>
        <path id="Path_87" data-name="Path 87" d="M1129.087,798.451l-62.258-1.781S1104.355,801.761,1129.087,798.451Z" transform="translate(-689.48 -578.999)" fill="#93c4d6" style="mix-blend-mode: multiply;isolation: isolate"/>
        <path id="Path_88" data-name="Path 88" d="M1118.277,766.459l-44.8-1.164A174.959,174.959,0,0,0,1118.277,766.459Z" transform="translate(-684.197 -573.724)" fill="#93c4d6" style="mix-blend-mode: multiply;isolation: isolate"/>
        <path id="Path_89" data-name="Path 89" d="M1079.448,766.867a51.753,51.753,0,0,1,6.983,26.329s2.327-17.019-4.073-26.183Z" transform="translate(-657.732 -573.988)" fill="#93c4d6" style="mix-blend-mode: multiply;isolation: isolate"/>
        <path id="Path_90" data-name="Path 90" d="M1116.169,765.819a51.749,51.749,0,0,1,6.982,26.327s2.328-17.018-4.073-26.182Z" transform="translate(-724.999 -573.812)" fill="#93c4d6" style="mix-blend-mode: multiply;isolation: isolate"/>
        <path id="Path_91" data-name="Path 91" d="M1111.927,763.3s-4.365-10.911-9.6-14.255c0,0,6.109,6.977,7.128,14.255Z" transform="translate(-701.848 -570.991)" fill="#93c4d6" style="mix-blend-mode: multiply;isolation: isolate"/>
        <path id="Path_92" data-name="Path 92" d="M1097.729,799.363a142.317,142.317,0,0,1,0,22.255l-1.891-22.4Z" transform="translate(-682.705 -579.427)" fill="#93c4d6" style="mix-blend-mode: multiply;isolation: isolate"/>
        <path id="Path_93" data-name="Path 93" d="M1075.341,826.78l.436,14.4s2.765-14.547,2.329-14.693A13.431,13.431,0,0,0,1075.341,826.78Z" transform="translate(-645.625 -584.008)" fill="#93c4d6" style="mix-blend-mode: multiply;isolation: isolate"/>
        <path id="Path_94" data-name="Path 94" d="M1115.211,825.234l.436,15.682s2.764-15.84,2.328-16A12.41,12.41,0,0,0,1115.211,825.234Z" transform="translate(-718.66 -583.743)" fill="#93c4d6" style="mix-blend-mode: multiply;isolation: isolate"/>
        <path id="Path_95" data-name="Path 95" d="M1131.845,796.77c0,.435,2.543,13.672,2.409,22.11,0,0,1.608-15.128.671-21.82Z" transform="translate(-749.694 -579.016)" fill="#93c4d6" style="mix-blend-mode: multiply;isolation: isolate"/>
        <g id="Group_9" data-name="Group 9" transform="translate(370.057 176.241)" style="mix-blend-mode: multiply;isolation: isolate">
          <path id="Path_96" data-name="Path 96" d="M1070.187,766.127c11.786-21.667,29.508-19.966,35.836-18.465-6.884.2-15.15,1.656-20.321,7.125l-.91,5.157,20.928,2.872-18.629,2.016s4.07,13.953,4.07,21.519l25.452,3.485-23.419,1.452s1.162,12.509.872,17.745l27.928,3.49-27.056,1.745.873,10.183,19.425-.873,5.168-5.817v7.272l9.524-1.164a127.494,127.494,0,0,0-.523-48.6c5.877,17.573,6.1,39.424,4.9,54.79h-76.325C1057.839,817.928,1058.7,787.232,1070.187,766.127Z" transform="translate(-1057.971 -746.865)" fill="#93c4d6"/>
        </g>
      </g>
      <g id="Group_11" data-name="Group 11" transform="translate(0 9.877)" opacity="0.4" style="mix-blend-mode: multiply;isolation: isolate">
        <path id="Path_97" data-name="Path 97" d="M1418.111,766.273l1.781-46.871c9.594-113.417,85.856-156.306,142.393-172.53-7.583,4.218-9.581,8.015-9.581,8.015L1565.359,561l-24.438-2.181c-18.327,5.237-47.13,38.837-47.13,38.837l14.839,7.42c-.873-.438-10.037,0-10.037,0l-15.275,41.019,23.567,6.546-41.456,2.618-7.855,29.675,52.8,13.964-40.583-.873-5.237,15.71-7.417-16.583-6.547,47.566,21.383,6.982-20.946-2.183-2.183,35.783c24.875,3.929,66.331,4.366,66.331,4.366l5.236-20.51,3.9,25.183c-42.266-1.206-79.032-3.111-107.059-5.5Z" transform="translate(-1417.254 -546.873)" fill="#b5dff2" style="mix-blend-mode: multiply;isolation: isolate"/>
      </g>
    </g>
  </g>
</svg>
