<svg width="5000" height="1130" viewBox="0 0 5000 1130" fill="none" xmlns="http://www.w3.org/2000/svg">
<path d="M2321.52 0H401.523V651H2321.52V0Z" fill="url(#paint0_linear_61_159)"/>
<path d="M401.523 1130L2321.52 1130V830L401.523 830V1130Z" fill="url(#paint1_linear_61_159)"/>
<path d="M602.57 944L719.493 924L800.57 939H873.57L961.57 998H768.548L602.57 944Z" fill="#FBFDFF"/>
<path d="M602.57 944V1001.81L766.57 1037L768.548 998L602.57 944Z" fill="#BFE1EF"/>
<path d="M766.57 1037L957.57 1023L961.57 998H768.548L766.57 1037Z" fill="#85CEEC"/>
<path d="M1155.57 1022L1185.57 1001L1229.57 995L1318.57 1023.9L1216.57 1032L1155.57 1022Z" fill="#FBFDFF"/>
<path d="M1155.57 1022V1037.35L1214.57 1049L1216.57 1032L1155.57 1022Z" fill="#B8DBED"/>
<path d="M1214.57 1049L1318.57 1038V1023.9L1216.57 1032L1214.57 1049Z" fill="#87C9E2"/>
<path d="M720.57 651L919.904 619.338L989.237 551.492V479.123L1283.9 357L1535.24 551.492L1864.57 596.723L1916.57 651H720.57Z" fill="#FBFDFF"/>
<path d="M1283.9 357L1382.1 562.812L1490.16 651L1535.24 551.492L1283.9 357Z" fill="#9BD6EA"/>
<path d="M1864.57 596.723L1676.85 651H1916.57L1864.57 596.723Z" fill="#BBE4F1"/>
<path d="M1382.1 562.812L1283.9 651H1490.16L1382.1 562.812Z" fill="#BBE4F1"/>
<path d="M989.236 551.492L1103.08 651H926.235L919.903 619.338L989.236 551.492Z" fill="#BBE4F1"/>
<path d="M1011.49 651C1024.48 651 989.237 551.492 989.237 551.492L1103.08 651H1011.49Z" fill="#E6F5FA"/>
<path d="M1535.23 551.492L1490.16 651L1535.23 596.723L1553.71 627.088L1676.84 570.941L1535.23 551.492Z" fill="#E6F5FA"/>
<path d="M1283.9 357L1382.1 562.812L1318.57 487.612L1268.13 480.775L1207.88 542.3L1103.08 606.9L1152.86 540.929L1165.96 480.767L1283.9 357Z" fill="#E6F5FA"/>
<path d="M1268.14 480.772L1318.57 580.583L1283.9 651L1382.1 562.812L1318.57 487.612L1268.14 480.772Z" fill="#9BD6EA"/>
<path d="M1864.57 596.723L1807.84 651H1760.68L1864.57 596.723Z" fill="#9BD6EA"/>
<path d="M400.038 929.418L685.265 903L684.264 815L400.038 838.824V929.418Z" fill="#9BD6EA"/>
<path d="M685.264 903L922.453 905L921.452 818L684.264 815L685.264 903Z" fill="#E6F5FA"/>
<path d="M960.483 801L959.482 883L1085.58 866L1086.58 803L960.483 801Z" fill="#E6F5FA"/>
<path d="M922.453 905L959.56 883.031L960.545 801.015L921.452 818L922.453 905Z" fill="#BBE4F1"/>
<path d="M1085.54 866L1309.76 849L1308.76 815.879V796L1086.54 803L1085.54 866Z" fill="#9BD6EA"/>
<path d="M1308.76 815.879V865.294L1325.77 935L1403.84 975L1409.84 896L1308.76 815.879Z" fill="#BBE4F1"/>
<path d="M1403.8 975.016L1469.89 965L1468.89 883L1409.81 896.016L1403.8 975.016Z" fill="url(#paint2_linear_61_159)"/>
<path d="M1468.89 883L1469.89 965L1530.94 963L1526.93 918L1468.89 883Z" fill="#9BD6EA"/>
<path d="M1526.93 918L1530.94 963L1671.05 1021L1685.06 963L1526.93 918Z" fill="#BBE4F1"/>
<path d="M1670.95 1020.98L1765.2 1004.03L1758.19 956.031L1684.98 963L1670.95 1020.98Z" fill="#9BD6EA"/>
<path d="M1758.12 956L1765.12 1004L1986.36 1021.02L1983.34 968.984L1758.12 956Z" fill="#BBE4F1"/>
<path d="M1986.3 1021L2101.39 995L2219.48 958L1983.3 969L1986.3 1021Z" fill="#9BD6EA"/>
<path d="M2101.39 995V1037.15L2325.57 1037V998L2101.39 995Z" fill="#E6F5FA"/>
<path d="M399.799 839.638L684.091 815.248L921.542 818.286L960.559 801.176L1086.48 803.1L1308.76 796.241V816.152L1409.9 896.171L1468.81 883.11L1526.92 918.101L1685.06 963.165L1758.12 956.109L1983.31 969.272L2219.24 958.063L2101.11 995.017L2322.57 999L2327.57 651H399.799L399.799 839.638Z" fill="url(#paint3_linear_61_159)"/>
<path style="mix-blend-mode:multiply" opacity="0.17" d="M2101.39 995V1037.15L2325.57 1037V998L2101.39 995Z" fill="url(#paint4_linear_61_159)"/>
<path style="mix-blend-mode:multiply" opacity="0.17" d="M1986.3 1021L2101.39 995L2219.48 958L1983.3 969L1986.3 1021Z" fill="url(#paint5_linear_61_159)"/>
<path style="mix-blend-mode:multiply" opacity="0.17" d="M1758.12 956L1765.12 1004L1986.36 1021.02L1983.34 968.984L1758.12 956Z" fill="url(#paint6_linear_61_159)"/>
<path style="mix-blend-mode:multiply" opacity="0.17" d="M1670.95 1020.98L1765.2 1004.03L1758.19 956.031L1684.98 963L1670.95 1020.98Z" fill="url(#paint7_linear_61_159)"/>
<path style="mix-blend-mode:multiply" opacity="0.17" d="M1526.93 918L1530.94 963L1671.05 1021L1685.06 963L1526.93 918Z" fill="url(#paint8_linear_61_159)"/>
<path style="mix-blend-mode:multiply" opacity="0.17" d="M1468.89 883L1469.89 965L1530.94 963L1526.93 918L1468.89 883Z" fill="url(#paint9_linear_61_159)"/>
<path style="mix-blend-mode:multiply" opacity="0.17" d="M1403.8 975.016L1469.89 965L1468.89 883L1409.81 896.016L1403.8 975.016Z" fill="url(#paint10_linear_61_159)"/>
<path style="mix-blend-mode:multiply" opacity="0.17" d="M1308.76 815.879V865.294L1325.77 935L1403.84 975L1409.84 896L1308.76 815.879Z" fill="url(#paint11_linear_61_159)"/>
<path style="mix-blend-mode:multiply" opacity="0.17" d="M1085.54 866L1309.76 849L1308.76 815.879V796L1086.54 803L1085.54 866Z" fill="url(#paint12_linear_61_159)"/>
<path style="mix-blend-mode:multiply" opacity="0.17" d="M960.483 801L959.482 883L1085.58 866L1086.58 803L960.483 801Z" fill="url(#paint13_linear_61_159)"/>
<path style="mix-blend-mode:multiply" opacity="0.17" d="M922.453 905L959.56 883.031L960.545 801.015L921.452 818L922.453 905Z" fill="url(#paint14_linear_61_159)"/>
<path style="mix-blend-mode:multiply" opacity="0.17" d="M685.264 903L922.453 905L921.452 818L684.264 815L685.264 903Z" fill="url(#paint15_linear_61_159)"/>
<path style="mix-blend-mode:multiply" opacity="0.17" d="M400.038 929.418L685.265 903L684.264 815L400.038 838.824V929.418Z" fill="url(#paint16_linear_61_159)"/>
<g style="mix-blend-mode:multiply" opacity="0.48">
<path d="M745.861 754.174C745.861 765.909 722.601 775.424 693.909 775.424C665.217 775.424 641.956 765.909 641.956 754.174C641.956 742.439 665.216 732.924 693.909 732.924C722.602 732.924 745.861 742.437 745.861 754.174Z" fill="#9BD6EA"/>
</g>
<path d="M705.609 760.083C705.204 760.283 704.809 760.483 704.396 760.647C703.147 761.159 701.896 761.647 700.618 762.071C697.751 763.031 694.933 763.897 691.998 764.607C691.414 764.75 690.827 764.879 690.24 765.007C687.153 765.807 682.587 765.921 678.916 766.077C670.189 766.477 661.265 762.26 653.616 758.661C650.993 757.432 648.405 755.95 646.858 753.414C644.838 750.1 646.002 746.692 647.658 743.53C649.235 740.83 651.078 738.293 653.158 735.958C655.231 733.356 657.512 730.927 659.978 728.694C661.629 727.234 663.389 725.903 665.244 724.712C665.294 724.702 665.342 724.685 665.387 724.66C666.052 724.303 666.713 723.94 667.378 723.574C669.961 721.757 672.779 720.298 675.754 719.238C679.657 717.624 683.787 716.624 687.996 716.272C689.755 716.107 691.529 716.37 693.165 717.037C693.901 717.384 694.594 717.815 695.231 718.321C695.868 718.72 696.467 719.175 697.021 719.683C698.636 721.246 700.017 723.034 701.121 724.992C702.509 727.292 707.292 735.692 708.272 737.662C709.521 740.183 710.244 742.932 710.396 745.742C710.461 746.842 710.814 748.437 710.396 749.595C710.379 750.5 710.13 751.386 709.673 752.167C709.085 753.083 708.434 753.956 707.724 754.781C707.143 755.669 706.628 756.598 706.18 757.56C705.791 758.344 705.596 759.209 705.609 760.083V760.083Z" fill="#9EA8AA"/>
<g style="mix-blend-mode:multiply">
<path d="M710.399 745.743C710.248 742.932 709.527 740.181 708.278 737.658C707.299 735.693 702.515 727.284 701.127 724.988C700.023 723.03 698.642 721.242 697.027 719.679C696.473 719.171 695.874 718.716 695.237 718.317C694.6 717.811 693.907 717.38 693.171 717.033C691.903 716.486 690.533 716.218 689.153 716.248C691.64 718.894 689.292 723.204 688.177 726.025C685.995 731.551 684.114 737.174 681.72 742.619C681.12 743.978 680.546 745.395 679.936 746.809C679.191 748.838 678.321 750.819 677.329 752.74C676.456 754.583 675.159 756.194 673.545 757.44C671.703 758.682 669.511 758.692 667.371 758.41C665.071 758.099 662.824 757.522 660.542 757.119C658.727 756.815 656.931 756.408 655.162 755.9C653.142 755.294 650.457 754.408 648.689 752.819C647.212 751.702 646.226 750.056 645.939 748.227L645.929 748.143C645.56 749.951 645.893 751.831 646.86 753.403C648.407 755.939 650.995 757.421 653.618 758.65C661.268 762.25 670.192 766.465 678.918 766.066C682.589 765.91 687.155 765.794 690.242 764.996C690.829 764.873 691.416 764.743 692 764.596C694.935 763.886 697.753 763.02 700.62 762.06C701.901 761.632 703.149 761.149 704.398 760.636C704.807 760.471 705.205 760.27 705.611 760.072C705.597 759.199 705.791 758.335 706.178 757.552C706.625 756.59 707.141 755.661 707.722 754.773C708.432 753.948 709.083 753.075 709.671 752.159C710.128 751.377 710.376 750.492 710.394 749.587C710.814 748.443 710.461 746.843 710.399 745.743Z" fill="#9EA8AA"/>
</g>
<g style="mix-blend-mode:multiply">
<path d="M710.396 745.747C710.245 742.936 709.523 740.186 708.275 737.663C707.296 735.698 702.512 727.289 701.124 724.993C700.02 723.035 698.639 721.247 697.024 719.684C696.47 719.176 695.871 718.721 695.234 718.322C694.597 717.816 693.904 717.385 693.168 717.038C692.853 716.893 692.527 716.771 692.195 716.672C692.395 716.792 692.595 716.909 692.775 717.032C695.143 718.786 696.905 721.236 697.814 724.04C698.981 727.085 699.727 730.266 700.632 733.396C701.61 736.474 702.403 739.608 703.009 742.781C703.546 745.299 703.557 747.901 703.041 750.424C702.513 752.309 701.431 753.992 699.934 755.253C696.675 758.113 692.505 759.686 688.493 761.175C682.47 763.494 676.017 764.478 669.577 764.061C667.962 763.938 666.334 763.74 664.713 763.461C669.23 765.251 674.054 766.139 678.913 766.075C682.584 765.919 687.15 765.803 690.237 765.005C690.824 764.882 691.411 764.752 691.995 764.605C694.93 763.895 697.748 763.029 700.615 762.069C701.896 761.641 703.144 761.158 704.393 760.645C704.802 760.48 705.2 760.279 705.606 760.081C705.592 759.208 705.787 758.344 706.174 757.561C706.622 756.599 707.138 755.67 707.718 754.782C708.428 753.957 709.079 753.084 709.667 752.168C710.124 751.387 710.373 750.501 710.39 749.596C710.814 748.441 710.461 746.843 710.396 745.747Z" fill="#9EA8AA"/>
</g>
<path d="M741.932 746.622C741.844 747.533 741.533 748.408 741.025 749.17C740.518 749.931 739.83 750.555 739.023 750.987C737.623 751.597 733.923 753.487 732.323 753.335C731.161 750.844 729.284 748.755 726.93 747.335C725.729 746.561 724.362 746.081 722.941 745.935C721.52 745.788 720.084 745.979 718.751 746.492C717.308 747.004 715.641 746.07 714.38 746.93C713.446 747.569 710.573 749.19 709.752 749.93C709.913 749.389 710.013 748.833 710.052 748.27C710.107 746.134 709.837 744.001 709.252 741.946C708.252 738.162 709.09 733.43 706.979 730.106C705.753 728.167 704.521 726.211 703.272 724.272C703.658 724.037 704.013 723.755 704.329 723.432C705.445 722.368 706.716 721.418 707.929 720.471C710.517 718.49 713.426 716.968 716.529 715.971C722.668 713.931 728.1 717.343 732.208 721.656C736.113 725.866 738.977 730.933 740.568 736.45C741.707 739.713 742.171 743.174 741.932 746.622V746.622Z" fill="#9EA8AA"/>
<g style="mix-blend-mode:screen">
<path d="M707.321 724.052C709.258 722.148 711.355 720.413 713.589 718.867C716.422 716.835 719.828 715.758 723.314 715.793C721.088 715.17 718.726 715.232 716.536 715.971C713.433 716.968 710.524 718.49 707.936 720.471C706.72 721.418 705.449 722.371 704.336 723.432C704.019 723.755 703.664 724.037 703.279 724.272C703.801 725.079 704.318 725.891 704.832 726.707C705.608 725.774 706.439 724.887 707.321 724.052V724.052Z" fill="#9EA8AA"/>
</g>
<g style="mix-blend-mode:multiply">
<path d="M740.576 736.45C738.985 730.933 736.121 725.866 732.216 721.656C730.967 720.326 729.584 719.128 728.088 718.082C728.445 718.62 728.752 719.189 729.006 719.782C730.07 722.073 730.568 724.586 730.457 727.109C729.915 731.996 726.034 735.816 722.009 738.229C720.875 738.945 719.663 739.531 718.396 739.974C717.381 740.402 716.267 740.536 715.179 740.363C713.334 739.821 712.598 737.571 711.625 736.112C710.312 734.208 708.875 732.391 707.325 730.674C709.255 733.874 708.314 738.374 709.255 741.946C709.84 744.001 710.11 746.134 710.055 748.27C710.017 748.833 709.916 749.389 709.755 749.93C710.575 749.187 713.449 747.566 714.383 746.93C715.644 746.071 717.311 747.005 718.754 746.492C720.088 745.979 721.523 745.788 722.945 745.935C724.366 746.081 725.732 746.561 726.933 747.335C729.287 748.755 731.164 750.844 732.326 753.335C733.926 753.491 737.626 751.597 739.026 750.987C739.833 750.555 740.521 749.931 741.028 749.17C741.536 748.408 741.847 747.533 741.935 746.622C742.176 743.174 741.713 739.714 740.576 736.45V736.45Z" fill="#9EA8AA"/>
</g>
<g style="mix-blend-mode:multiply">
<path d="M740.576 736.449C739.261 731.986 737.142 727.801 734.324 724.1C735.543 726.721 736.43 729.484 736.964 732.324C737.755 736.438 737.56 740.681 736.396 744.705C735.747 746.836 733.25 751.126 732.132 753.013C732.194 753.123 732.262 753.224 732.323 753.334C733.923 753.49 737.623 751.596 739.023 750.986C739.83 750.554 740.518 749.93 741.025 749.169C741.533 748.407 741.844 747.532 741.932 746.621C742.173 743.174 741.712 739.713 740.576 736.449V736.449Z" fill="#9EA8AA"/>
</g>
<path d="M732.853 758.663C726.643 760.709 720.034 761.925 713.506 761.105C713.206 761.066 712.906 761.017 712.606 760.966C712.379 760.959 712.155 760.953 711.928 760.937C711.072 760.896 710.222 760.768 709.392 760.554C708.844 760.398 705.442 760.223 705.043 759.769C704.931 759.64 704.837 759.496 704.764 759.341L704.699 759.357C704.592 759.155 704.53 758.933 704.518 758.705C704.506 758.477 704.545 758.249 704.631 758.037C704.768 757.421 705.02 756.837 705.374 756.315C705.432 756.215 706.174 754.969 706.207 754.915C706.976 753.764 706.797 753.634 707.614 752.502C708.259 751.612 708.958 750.763 709.709 749.96C710.724 748.927 711.894 748.057 713.176 747.382C715.631 746.137 721.124 745.521 723.858 745.894C726.592 746.267 729.076 748.342 730.749 750.421C731.289 751.099 731.771 751.821 732.192 752.578C732.181 752.652 732.195 752.728 732.231 752.794C732.267 752.86 732.324 752.913 732.392 752.944C732.655 753.45 732.898 753.975 733.118 754.514C733.345 755.069 733.53 755.652 733.718 756.223C734.156 757.544 734.26 758.202 732.853 758.663Z" fill="#9EA8AA"/>
<g style="mix-blend-mode:multiply">
<path d="M733.724 756.225C733.533 755.654 733.348 755.071 733.124 754.516C732.903 753.978 732.66 753.452 732.398 752.946C732.33 752.915 732.273 752.862 732.237 752.796C732.201 752.73 732.187 752.654 732.198 752.58C731.777 751.823 731.295 751.101 730.755 750.423C729.082 748.344 726.598 746.262 723.864 745.896C723.802 745.886 723.738 745.883 723.673 745.877C724.701 746.98 725.385 748.36 725.641 749.846C725.983 751.366 725.914 752.95 725.441 754.435C724.864 756.047 723.158 757.007 721.624 757.529C719.681 758.141 717.666 758.493 715.631 758.576C713.967 758.676 711.892 758.923 710.352 758.125C709.081 757.47 706.029 756.202 706.211 754.918C705.997 755.318 705.773 755.703 705.524 756.079C705.492 756.131 705.436 756.215 705.378 756.316C705.024 756.838 704.772 757.422 704.635 758.038C704.549 758.25 704.51 758.478 704.522 758.706C704.534 758.934 704.596 759.156 704.703 759.358L704.768 759.342C704.841 759.497 704.935 759.641 705.047 759.77C705.447 760.224 708.847 760.399 709.396 760.555C710.226 760.769 711.076 760.897 711.932 760.938C712.159 760.954 712.383 760.961 712.61 760.967C712.91 761.019 713.21 761.067 713.51 761.106C720.038 761.926 726.647 760.706 732.857 758.664C734.26 758.203 734.156 757.545 733.724 756.225Z" fill="#9EA8AA"/>
</g>
<path d="M740.918 728.179C740.166 724.307 735.483 720.811 732.976 718.126C729.843 714.77 727.23 710.972 722.242 711.361C716.758 711.786 712.076 715.538 707.409 717.961C703.222 720.137 702.85 719.391 700.352 715.808C699.371 714.211 698.043 712.855 696.467 711.842C689.167 707.513 681.19 711.599 674.973 715.866C669.853 719.385 659.394 723.208 657.166 729.544C654.559 736.967 661.631 739.782 667.498 737.344C672.025 735.457 676.049 731.773 681.287 732.652C688.243 733.819 689.187 740.081 690.438 745.776C691.605 751.081 697.209 756.276 701.838 750.926C703.949 748.481 703.884 745.621 703.563 742.582C703.527 742.248 702.895 739.102 702.663 737.063C703.688 738.538 706.463 740.218 707.132 740.646C710.346 742.599 714.042 743.616 717.803 743.584C721.564 743.551 725.241 742.47 728.421 740.461C730.659 739.061 732.484 737.056 734.884 735.901C736.11 735.314 737.465 735.288 738.561 734.361C739.441 733.612 740.119 732.652 740.531 731.572C740.943 730.491 741.076 729.324 740.918 728.179V728.179Z" fill="#E7F4FB"/>
<path d="M737.665 722.774C737.626 723.836 737.475 724.89 737.214 725.92C736.588 728.313 735.418 730.53 733.796 732.397C732.173 734.263 730.141 735.73 727.858 736.683C723.509 738.201 718.764 738.137 714.458 736.501C710.952 735.278 707.638 733.171 703.98 732.428C703.674 732.354 703.36 732.318 703.046 732.321C702.955 732.321 702.553 732.344 702.485 732.337C702.341 732.369 702.199 732.409 702.06 732.457L701.998 732.486C701.942 732.516 701.89 732.552 701.842 732.593C701.773 732.72 701.684 732.835 701.579 732.934C701.517 733.044 701.453 733.154 701.404 733.262C701.252 733.583 701.123 733.915 701.018 734.254C700.664 735.457 700.422 736.69 700.295 737.938C700.113 739.472 698.751 741.08 697.081 740.779C693.867 740.202 692.119 737.279 690.774 734.588C689.506 732.055 688.374 729.169 686.091 727.363C683.578 725.378 680.38 725.55 677.501 726.53C671.482 728.573 664.38 734.319 658.101 729.886C657.908 729.725 657.761 729.516 657.673 729.281C657.586 729.045 657.561 728.791 657.601 728.543C657.433 728.869 657.285 729.205 657.157 729.548C654.55 736.971 661.622 739.786 667.489 737.348C672.016 735.461 676.04 731.777 681.278 732.656C688.234 733.823 689.178 740.085 690.429 745.78C691.596 751.085 697.2 756.28 701.829 750.93C703.94 748.485 703.875 745.625 703.554 742.586C703.518 742.252 702.886 739.106 702.654 737.067C703.679 738.542 706.454 740.222 707.123 740.65C710.337 742.603 714.033 743.62 717.794 743.588C721.555 743.555 725.232 742.474 728.412 740.465C730.65 739.065 732.475 737.06 734.875 735.906C736.101 735.319 737.456 735.293 738.552 734.366C739.434 733.617 740.112 732.659 740.525 731.578C740.939 730.498 741.073 729.331 740.916 728.185C740.337 726.122 739.215 724.253 737.665 722.774V722.774Z" fill="#DAEEF8"/>
<path style="mix-blend-mode:multiply" opacity="0.17" d="M1320.22 814.687C1310.08 886.794 1178.9 927.978 1027.21 906.66C980.337 900.073 936.99 888.288 899.764 873.019C874.517 862.663 852.086 850.705 833.001 837.473C822.174 830.051 812.045 821.661 802.737 812.405C789.411 798.981 779.802 784.845 774.547 770.124C772.58 764.624 779.954 758.581 779.342 752.758C778.817 747.776 785.893 741.117 786.633 735.857C796.768 663.739 912.224 624.194 1063.92 645.513C1215.61 666.832 1330.35 742.569 1320.22 814.687Z" fill="url(#paint17_linear_61_159)"/>
<g style="mix-blend-mode:multiply" opacity="0.4">
<g style="mix-blend-mode:multiply" opacity="0.4">
<path d="M774.963 747.718L776.744 700.847C786.338 587.43 862.6 544.541 919.137 528.317C911.554 532.535 909.556 536.332 909.556 536.332L922.211 542.445L897.773 540.264C879.446 545.501 850.643 579.101 850.643 579.101L865.482 586.521C864.609 586.083 855.445 586.521 855.445 586.521L840.17 627.54L863.737 634.086L822.281 636.704L814.426 666.379L867.226 680.343L826.643 679.47L821.406 695.18L813.989 678.597L807.442 726.163L828.825 733.145L807.879 730.962L805.696 766.745C830.571 770.674 872.027 771.111 872.027 771.111L877.263 750.601L881.163 775.784C838.897 774.578 802.131 772.673 774.104 770.284L774.963 747.718Z" fill="#B5DFF2"/>
</g>
</g>
<g style="mix-blend-mode:multiply">
<path d="M774.962 747.718L776.743 700.847C792.211 518.005 980.97 518.441 980.97 518.441C1190.78 519.182 1205.49 675.324 1201.05 747.933C1200.51 756.778 1199.69 764.384 1198.9 770.317C1149.34 774.517 1072.74 777.217 986.753 777.217C900.483 777.217 823.647 774.503 774.106 770.278L774.962 747.718Z" fill="#A2DEF9"/>
</g>
<path d="M774.962 747.718L776.743 700.847C792.211 518.005 980.97 518.441 980.97 518.441C1190.78 519.182 1205.49 675.324 1201.05 747.933C1200.51 756.778 1199.69 764.384 1198.9 770.317C1149.34 774.517 1072.74 777.217 986.753 777.217C900.483 777.217 823.647 774.503 774.106 770.278L774.962 747.718Z" fill="#D8F0F6"/>
<g style="mix-blend-mode:multiply" opacity="0.4">
<g style="mix-blend-mode:multiply" opacity="0.4">
<path d="M774.962 747.716L776.743 700.845C789.353 551.781 917.135 524.534 963.921 519.554C954.868 523.338 946.405 528.4 938.79 534.588L981.555 545.498L935.736 544.624C923.954 548.988 909.553 571.679 909.553 571.679L924.391 542.442L916.535 543.315C899.954 550.734 874.207 586.515 874.207 586.515L909.118 591.751C902.572 599.606 896.026 627.971 896.026 627.971L957.12 636.698L894.281 635.825L887.735 675.101L934.427 685.575L838.859 686.889L836.68 732.716L880.026 736.216L884.244 767.226C895.591 768.973 984.176 770.771 984.176 770.771L989.413 745.537L991.157 770.592H1041.78L1043.53 744.013L989.42 738.143L1047.9 733.685C1047.9 733.685 1046.6 689.574 1081.08 668.191C1115.56 646.808 1174.49 659.031 1184.53 659.031C1189.67 659.031 1190.59 653.645 1190.26 648.406C1201.77 684.98 1202.65 721.848 1201.05 747.935C1200.51 756.779 1199.69 764.382 1198.9 770.314C1149.34 774.514 1072.74 777.214 986.753 777.214C900.483 777.214 823.647 774.498 774.106 770.274L774.962 747.716Z" fill="#B5DFF2"/>
</g>
</g>
<path d="M1054 777.215C1053.77 760.815 1055.09 719.026 1072.52 690.128C1085.2 669.111 1102.4 664.268 1114.77 663.96L1183.84 664.083L1184.66 777.215H1054Z" fill="#BFE7FB"/>
<path d="M1054 777.215C1053.77 760.815 1055.09 719.026 1072.52 690.128C1085.2 669.111 1102.4 664.268 1114.77 663.96L1183.84 664.083L1184.66 777.215H1054Z" fill="#CAEBF5"/>
<g style="mix-blend-mode:multiply" opacity="0.5">
<path d="M1072.52 690.129C1081.98 674.441 1093.96 667.766 1104.58 665.262C1103.85 665.544 1103.12 665.834 1102.41 666.142C1099.68 667.248 1097.1 668.702 1094.75 670.468C1092.55 672.304 1090.57 674.382 1088.84 676.662C1087.43 678.321 1086.13 680.068 1084.94 681.894C1084.17 683.129 1082.77 685.094 1083.1 686.681C1083.39 688.048 1085.1 688.381 1086.26 688.667C1086.91 688.827 1087.56 688.961 1088.22 689.089C1086.6 688.99 1084.97 689.132 1083.39 689.511C1081.01 690.22 1079.8 692.298 1078.89 694.48C1074.88 704.069 1072.79 714.241 1071.03 724.446C1071.01 724.538 1071.02 724.636 1071.05 724.725C1071.09 724.814 1071.15 724.888 1071.23 724.938C1075.12 727.119 1079.36 728.426 1083.52 729.952C1080.81 729.49 1076.5 730.558 1073.78 731.834C1070.91 733.187 1071.9 734.55 1071.32 737.534C1069.84 745.252 1067.99 753.62 1069.37 761.485C1069.91 764.543 1104.59 769.831 1105.29 767.128C1106.6 762.088 1108.05 757.186 1109.68 752.235C1111.46 746.841 1113.22 741.328 1113.49 735.614C1113.49 735.518 1113.46 735.426 1113.4 735.349C1113.34 735.273 1113.26 735.218 1113.17 735.192C1108.96 733.878 1104.01 734.131 1100.19 731.77C1103.46 731.21 1106.88 731.763 1110.16 731.901C1112.66 732.007 1116.33 732.314 1118.51 730.754C1120.31 729.468 1121.14 727.097 1121.78 725.069C1122.68 722.233 1123.27 719.325 1123.95 716.434C1124.86 712.598 1126.63 709.005 1127.85 705.259C1128.51 703.238 1129.03 701.172 1129.71 699.159C1130.02 698.544 1130.16 697.86 1130.14 697.172C1129.72 695.372 1126.68 694.027 1125.2 693.406C1122.5 692.263 1119.56 691.816 1116.74 691.045C1122.54 689.156 1129.28 692.202 1134.85 689.282C1137.31 687.994 1138.91 685.895 1140.67 683.822C1142.75 681.388 1145.08 679.17 1147.61 677.202C1155.83 670.735 1165.93 665.743 1176.43 664.072L1183.85 664.085L1184.67 777.217H1054C1053.77 760.815 1055.09 719.026 1072.52 690.129Z" fill="#B5DFF2"/>
</g>
<path d="M1120.33 777.214C1120.1 760.814 1121.42 719.025 1138.85 690.127C1160.96 653.471 1196.83 666.01 1196.83 666.01C1235.91 682.274 1239.26 742.303 1236.21 777.21L1120.33 777.214Z" fill="#D8F0F6"/>
<g style="mix-blend-mode:screen">
<path d="M1204.91 670.943C1195.66 666.405 1185.59 664.902 1175.57 667.614C1164.14 670.707 1154.96 677.227 1147.66 686.491C1140.68 695.344 1136.19 705.938 1132.85 716.625C1128.9 729.393 1125.67 742.37 1123.16 755.496C1121.9 761.952 1120.96 768.396 1120.31 774.859C1120.26 757.104 1122.2 717.739 1138.85 690.128C1160.96 653.472 1196.84 666.011 1196.84 666.011C1201.11 667.789 1205.11 670.165 1208.71 673.069C1207.48 672.294 1206.22 671.585 1204.91 670.943V670.943Z" fill="#A2DEF9"/>
</g>
<g style="mix-blend-mode:screen">
<path d="M1143.37 777.215C1143.21 764.985 1144.1 733.821 1155.82 712.272C1170.69 684.936 1194.82 694.287 1194.82 694.287C1221.1 706.414 1223.36 751.182 1221.3 777.215H1143.37Z" fill="#A2DEF9"/>
</g>
<path d="M1144.17 777.215C1144.03 765.238 1144.89 734.715 1156.37 713.615C1170.93 686.843 1194.56 696 1194.56 696C1220.3 707.876 1222.51 751.719 1220.5 777.215H1144.17Z" fill="#93C4D6"/>
<g style="mix-blend-mode:color-dodge">
<g style="mix-blend-mode:multiply" opacity="0.6">
<path d="M1086.44 687.903C1088.58 681.959 1092.17 676.64 1096.88 672.426C1101.58 668.211 1107.27 665.232 1113.41 663.756L1118.29 664.268C1099.28 666.581 1086.44 687.903 1086.44 687.903Z" fill="#A2DEF9"/>
</g>
<g style="mix-blend-mode:multiply" opacity="0.6">
<path d="M1068.23 730.007C1062.76 728.778 1059.53 727.757 1059.53 727.757L1091.03 729.957C1091.75 716.791 1094.95 703.879 1100.44 691.894C1082.84 690.474 1074.07 687.321 1074.07 687.321L1125.98 690.766C1128.44 684.113 1132.51 678.168 1137.81 673.458C1143.12 668.747 1149.5 665.414 1156.4 663.755L1161.92 664.337C1141.86 666.777 1127.87 687.905 1126.06 690.771L1139.81 691.684C1127.84 692.69 1115.82 692.842 1103.82 692.137C1096.91 703.11 1092.6 723.386 1091.33 729.98L1126.14 732.412C1122.97 732.964 1119.81 733.369 1116.67 733.65L1106.36 775.468C1107.23 761.466 1109.33 747.568 1112.66 733.938C1098.73 734.605 1084.78 733.494 1071.14 730.631L1063.31 762.409C1063.98 751.484 1065.63 740.64 1068.23 730.007V730.007Z" fill="#A2DEF9"/>
</g>
</g>
<g style="mix-blend-mode:screen">
<path d="M1235.64 762.087L1221.96 762.668V759.324L1235.64 762.087Z" fill="#A2DEF9"/>
</g>
<g style="mix-blend-mode:screen">
<path d="M1233.49 733.665L1220.71 738.581L1219.65 735.412L1233.49 733.665Z" fill="#A2DEF9"/>
</g>
<g style="mix-blend-mode:screen">
<path d="M1224.18 694.084L1210 708.921L1211.53 711.102L1224.18 694.084Z" fill="#A2DEF9"/>
</g>
<g style="mix-blend-mode:screen">
<path d="M1191.89 667.683L1191.24 693.429L1187.75 692.775L1191.89 667.683Z" fill="#A2DEF9"/>
</g>
<g style="mix-blend-mode:screen">
<path d="M1166.81 699.537L1164.19 701.937L1151.53 686.664L1166.81 699.537Z" fill="#A2DEF9"/>
</g>
<g style="mix-blend-mode:screen">
<path d="M1150.22 726.811L1149.42 729.211L1131.96 722.375L1150.22 726.811Z" fill="#A2DEF9"/>
</g>
<g style="mix-blend-mode:screen">
<path d="M1144.09 756.85L1143.89 759.373L1125.3 756.993L1144.09 756.85Z" fill="#A2DEF9"/>
</g>
<g style="mix-blend-mode:screen">
<path d="M1217.2 685.283C1218.99 687.356 1220.59 689.583 1221.99 691.939C1220.04 694.569 1217.99 697.122 1215.96 699.682C1209.92 688.407 1201.06 678.542 1188.11 672.482C1188.11 672.483 1203.21 669.264 1217.2 685.283Z" fill="#5BCBF5"/>
</g>
<g style="mix-blend-mode:screen">
<path d="M1226.46 732.917C1225.12 723.837 1222.69 714.954 1219.2 706.466C1221.52 704.319 1223.77 702.088 1225.93 699.773C1229.85 708.941 1232.34 719.763 1233.77 730.703C1231.39 731.587 1228.92 732.253 1226.46 732.917Z" fill="#5BCBF5"/>
</g>
<g style="mix-blend-mode:screen">
<path d="M1228.3 759.013C1228.35 752.375 1228.01 745.739 1227.28 739.141C1229.7 738.525 1232.08 737.797 1234.5 737.199C1235.21 744.907 1235.46 752.651 1235.25 760.389C1232.89 760.157 1230.56 759.696 1228.3 759.013Z" fill="#5BCBF5"/>
</g>
<g style="mix-blend-mode:screen">
<path d="M1235.03 765.694C1234.81 769.441 1234.49 772.93 1234.08 776.051L1227.39 775.178C1227.39 775.178 1227.9 771.234 1228.16 764.855C1230.44 765.157 1232.73 765.437 1235.03 765.694Z" fill="#5BCBF5"/>
</g>
<g style="mix-blend-mode:screen">
<path d="M1185.49 652.41C1185.49 652.41 1167.46 525.86 984.176 520.186C984.176 520.186 1027.82 524.986 1058.65 535.461C1058.65 535.461 1077.56 540.697 1080.76 544.189L1064.47 544.48L1092.4 548.261C1092.4 548.261 1123.53 564.552 1134 578.226L1102.29 584.917L1137.49 583.172C1137.49 583.172 1155.24 604.701 1162.51 625.937L1147.96 627.391L1165.13 628.846L1173.56 651.246L1185.49 652.41Z" fill="#5BCBF5"/>
</g>
<g style="mix-blend-mode:screen">
<g style="mix-blend-mode:screen">
<path d="M778.65 725.037C778.059 724.916 777.77 724.848 777.77 724.848L778.65 725.037Z" fill="#5BCBF5"/>
</g>
<g style="mix-blend-mode:screen">
<path d="M836.47 582.714C835.47 582.536 834.99 582.438 834.99 582.438L836.47 582.714Z" fill="#5BCBF5"/>
</g>
<g style="mix-blend-mode:screen">
<path d="M875.194 737.715C842.194 735.424 808.68 731.494 778.649 725.041C782.04 725.741 795.461 728.297 822.449 730.977C821.384 707.324 822.623 684.325 822.937 679.119C810.852 677.412 799.068 675.366 787.805 672.919C787.805 672.919 858.5 684.703 1064.91 682.083C1064.91 682.083 1058.61 682.668 1047.64 683.425L1045.49 726.812L1041.64 683.825C1018.38 685.32 979.935 687.168 936.695 686.732L933.99 728.121L931.856 686.672C898.413 686.204 862.375 684.333 828.437 679.865C824.927 692.394 822.919 724.711 822.557 730.983C863.683 735.061 936.237 739.415 1052.69 737.94C1052.69 737.94 1028.21 739.65 991.68 740.312L990.28 776.923L988.047 740.374C957.547 740.856 919.247 740.574 879.947 738.031L878.562 774.305L875.194 737.715Z" fill="#5BCBF5"/>
</g>
<g style="mix-blend-mode:screen">
<path d="M1140.9 625.491C1140.9 625.491 1126.89 594.505 1120.16 586.791C1101.55 588.554 1072.09 590.958 1037.35 592.407C1038.49 597.977 1041.85 615.982 1041.12 632.334C1041.12 632.334 1037.14 603.734 1032.72 592.594C1005.73 593.637 975.788 594.079 945.397 593.194L938.503 631.75L940.445 593.038C912.574 592.235 884.766 589.926 857.145 586.119C855.476 589.07 842.997 611.365 837.845 627.095C837.845 627.095 842.408 602.595 852.652 585.453C847.172 584.616 841.778 583.702 836.469 582.709C838.859 583.135 844.202 584.009 852.91 585.017L852.971 584.911L854.293 585.175C889.754 589.187 977.144 595.102 1141.43 584.575C1141.43 584.575 1136.41 585.175 1127.48 586.075C1128.56 588.323 1137.5 607.349 1140.9 625.491Z" fill="#5BCBF5"/>
</g>
<g style="mix-blend-mode:screen">
<path d="M1193.86 663.974L1177.93 629.064L1181.42 627.536C1181.42 627.536 1190.15 650.664 1193.86 663.974Z" fill="#5BCBF5"/>
</g>
<g style="mix-blend-mode:screen">
<path d="M1077.56 582.807C1077.56 582.807 1063.75 553.244 1054.31 543.336C1037.23 544.868 1015.43 546.322 991.896 546.643L989.706 586.079L988.611 546.679C967.685 546.963 946.76 546.048 925.939 543.937C921.567 549.078 907.285 566.537 902.139 581.061C902.139 581.061 909.019 555.846 920.332 543.298C910.707 542.123 901.28 540.598 892.248 538.659C892.248 538.659 944.242 548.445 1090.31 539.277C1090.31 539.277 1077.93 541.115 1058.38 542.961C1067.19 554.94 1073.69 568.452 1077.56 582.807V582.807Z" fill="#5BCBF5"/>
</g>
<g style="mix-blend-mode:screen">
<path d="M1006.58 519.315L1009.93 519.459C1009.93 519.459 1018.64 530.152 1021.85 541.278C1021.85 541.278 1012.87 525.094 1006.58 519.315Z" fill="#5BCBF5"/>
</g>
<g style="mix-blend-mode:screen">
<path d="M956.832 541.278C960.047 530.153 968.755 519.459 968.755 519.459L972.106 519.315C965.808 525.094 956.832 541.278 956.832 541.278Z" fill="#5BCBF5"/>
</g>
<g style="mix-blend-mode:screen">
<path d="M991.709 638.365L990.287 675.684L988.009 638.398C955.909 638.638 922.232 637.97 889.236 635.788C887.721 639.897 883.945 651.903 880.608 676.847C880.608 676.847 881.634 648.347 884.608 635.472C870.062 634.446 855.67 633.12 841.626 631.439C829.804 630.339 813.855 628.107 805.836 627.681C804.153 627.573 802.463 627.597 800.783 627.75C798.033 633.388 790.296 650.387 787.799 667.682C787.799 667.682 791.274 643.168 798.044 628.272C797.175 628.491 796.38 628.94 795.744 629.572L798.564 623.32C806.448 624.92 830.574 628.493 840.564 629.953C893.583 634.603 999.148 639.136 1174 627.93C1174 627.93 1141.9 631.587 1093.81 634.589C1094.47 637.798 1098.01 655.612 1097.41 667.689L1088.68 634.907C1060.43 636.594 1027.09 638.022 991.709 638.365Z" fill="#5BCBF5"/>
</g>
<g style="mix-blend-mode:screen">
<path d="M795.747 629.57L795.222 630.737C795.24 630.295 795.428 629.877 795.747 629.57V629.57Z" fill="#5BCBF5"/>
</g>
</g>
<g style="mix-blend-mode:multiply">
<path d="M1216.33 760.342L1152.62 758.305C1152.62 758.305 1191.02 764.124 1216.33 760.342Z" fill="#93C4D6"/>
</g>
<g style="mix-blend-mode:multiply">
<path d="M1213.71 737.893L1151.45 736.112C1151.45 736.112 1188.98 741.203 1213.71 737.893Z" fill="#93C4D6"/>
</g>
<g style="mix-blend-mode:multiply">
<path d="M1208.19 711.176L1163.39 710.012C1178.21 712.319 1193.26 712.71 1208.19 711.176V711.176Z" fill="#93C4D6"/>
</g>
<g style="mix-blend-mode:multiply">
<path d="M1195.82 711.32C1200.46 719.315 1202.87 728.406 1202.8 737.649C1202.8 737.649 1205.13 720.63 1198.73 711.466L1195.82 711.32Z" fill="#93C4D6"/>
</g>
<g style="mix-blend-mode:multiply">
<path d="M1165.28 710.448C1169.91 718.443 1172.32 727.533 1172.26 736.775C1172.26 736.775 1174.59 719.757 1168.18 710.593L1165.28 710.448Z" fill="#93C4D6"/>
</g>
<g style="mix-blend-mode:multiply">
<path d="M1184.18 710.75C1184.18 710.75 1179.82 699.839 1174.58 696.495C1174.58 696.495 1180.69 703.472 1181.71 710.75H1184.18Z" fill="#93C4D6"/>
</g>
<g style="mix-blend-mode:multiply">
<path d="M1189.13 738.377C1189.71 745.784 1189.71 753.225 1189.13 760.632L1187.24 738.232L1189.13 738.377Z" fill="#93C4D6"/>
</g>
<g style="mix-blend-mode:multiply">
<path d="M1203.82 761.213L1204.26 775.613C1204.26 775.613 1207.02 761.066 1206.59 760.92C1205.66 760.922 1204.73 761.02 1203.82 761.213Z" fill="#93C4D6"/>
</g>
<g style="mix-blend-mode:multiply">
<path d="M1170.66 759.932L1171.09 775.614C1171.09 775.614 1173.86 759.774 1173.42 759.614C1172.49 759.616 1171.56 759.723 1170.66 759.932V759.932Z" fill="#93C4D6"/>
</g>
<g style="mix-blend-mode:multiply">
<path d="M1156.26 736.195C1156.26 736.63 1158.8 749.867 1158.67 758.305C1158.67 758.305 1160.27 743.177 1159.34 736.485L1156.26 736.195Z" fill="#93C4D6"/>
</g>
<g style="mix-blend-mode:multiply">
<g style="mix-blend-mode:multiply">
<path d="M1156.38 713.944C1168.16 692.277 1185.89 693.978 1192.21 695.479C1185.33 695.679 1177.06 697.135 1171.89 702.604L1170.98 707.761L1191.91 710.633L1173.28 712.649C1173.28 712.649 1177.35 726.602 1177.35 734.168L1202.8 737.653L1179.39 739.105C1179.39 739.105 1180.55 751.614 1180.26 756.85L1208.19 760.34L1181.13 762.085L1182 772.268L1201.43 771.395L1206.6 765.578V772.85L1216.12 771.686C1219.06 755.602 1218.89 739.102 1215.6 723.086C1221.47 740.659 1221.7 762.51 1220.5 777.876H1144.17C1144.03 765.745 1144.89 735.049 1156.38 713.944Z" fill="#93C4D6"/>
</g>
</g>
<g clip-path="url(#clip0_61_159)">
<path d="M182 652H787.047L683.653 613.212L587.918 513.818L513.87 473.465L484.524 412H384.959L308.371 511.394L220.294 545.333L182 652Z" fill="#FBFDFF"/>
<path d="M539.939 598.667L499.207 652H596.352L539.939 598.667Z" fill="#E6F5FA"/>
<path d="M587.918 513.818L525.209 519.66L547.78 545.333L560.78 528.795H579.541L662.963 591.731L587.918 513.818Z" fill="#E6F5FA"/>
<path d="M683.653 613.212L721.601 652H787.047L683.653 613.212Z" fill="#E6F5FA"/>
<path d="M525.209 545.333L539.939 598.667L596.352 652L525.209 545.333Z" fill="#BBE4F1"/>
</g>
<g clip-path="url(#clip1_61_159)">
<path d="M1553.98 662H2615.83L2434.38 611.091L2266.37 480.636L2136.41 427.674L2084.91 347H1910.18L1775.76 477.455L1621.19 522L1553.98 662Z" fill="#FBFDFF"/>
<path d="M2182.17 592L2110.68 662H2281.17L2182.17 592Z" fill="#E6F5FA"/>
<path d="M2266.36 480.636L2156.31 488.304L2195.92 522L2218.74 500.293H2251.66L2398.07 582.893L2266.36 480.636Z" fill="#E6F5FA"/>
<path d="M2024.9 358.461L1960.56 482.328V600.1L1951.98 662H1801.87L1913.38 591.98V496.542L2024.9 358.461Z" fill="#BBE4F1"/>
<path d="M1775.76 477.455L1698.93 572.164V638.684L1553.98 662H1801.87L1771.85 598.072L1775.76 477.455Z" fill="#E6F5FA"/>
<path d="M1621.19 522V651.19L1553.98 662L1621.19 522Z" fill="#BBE4F1"/>
<path d="M2012.03 462.022L2059.56 611.091L2024.9 662H1951.99L2012.03 608.226L2012.03 462.022Z" fill="#BBE4F1"/>
<path d="M2156.31 522L2182.16 592L2281.17 662L2156.31 522Z" fill="#BBE4F1"/>
</g>
<defs>
<linearGradient id="paint0_linear_61_159" x1="1361.52" y1="0" x2="1361.52" y2="651" gradientUnits="userSpaceOnUse">
<stop stop-color="#115BB1"/>
<stop offset="1" stop-color="#1D66BB"/>
</linearGradient>
<linearGradient id="paint1_linear_61_159" x1="1361.52" y1="1130" x2="1361.52" y2="830" gradientUnits="userSpaceOnUse">
<stop stop-color="#08366B"/>
<stop offset="1" stop-color="#1C73D8"/>
</linearGradient>
<linearGradient id="paint2_linear_61_159" x1="1436.85" y1="887.969" x2="1436.85" y2="972.256" gradientUnits="userSpaceOnUse">
<stop stop-color="#E6F5FA"/>
<stop offset="1" stop-color="#E6F5FA"/>
</linearGradient>
<linearGradient id="paint3_linear_61_159" x1="1339.78" y1="651" x2="1339.78" y2="999" gradientUnits="userSpaceOnUse">
<stop stop-color="white"/>
<stop offset="1" stop-color="#D9D9D9"/>
</linearGradient>
<linearGradient id="paint4_linear_61_159" x1="2213.48" y1="995" x2="2213.48" y2="1037.15" gradientUnits="userSpaceOnUse">
<stop/>
<stop offset="1" stop-color="white"/>
</linearGradient>
<linearGradient id="paint5_linear_61_159" x1="2101.39" y1="958" x2="2101.39" y2="1021" gradientUnits="userSpaceOnUse">
<stop/>
<stop offset="1" stop-color="white"/>
</linearGradient>
<linearGradient id="paint6_linear_61_159" x1="1872.24" y1="956" x2="1872.24" y2="1021.02" gradientUnits="userSpaceOnUse">
<stop/>
<stop offset="1" stop-color="white"/>
</linearGradient>
<linearGradient id="paint7_linear_61_159" x1="1718.08" y1="956.031" x2="1718.08" y2="1020.98" gradientUnits="userSpaceOnUse">
<stop/>
<stop offset="1" stop-color="white"/>
</linearGradient>
<linearGradient id="paint8_linear_61_159" x1="1606" y1="918" x2="1606" y2="1021" gradientUnits="userSpaceOnUse">
<stop/>
<stop offset="1" stop-color="white"/>
</linearGradient>
<linearGradient id="paint9_linear_61_159" x1="1499.91" y1="883" x2="1499.91" y2="965" gradientUnits="userSpaceOnUse">
<stop/>
<stop offset="1" stop-color="white"/>
</linearGradient>
<linearGradient id="paint10_linear_61_159" x1="1403.8" y1="887.969" x2="1488.63" y2="943.769" gradientUnits="userSpaceOnUse">
<stop/>
<stop offset="1" stop-color="white"/>
</linearGradient>
<linearGradient id="paint11_linear_61_159" x1="1359.3" y1="815.879" x2="1359.3" y2="975" gradientUnits="userSpaceOnUse">
<stop/>
<stop offset="1" stop-color="white"/>
</linearGradient>
<linearGradient id="paint12_linear_61_159" x1="1197.65" y1="796" x2="1197.65" y2="866" gradientUnits="userSpaceOnUse">
<stop/>
<stop offset="1" stop-color="white"/>
</linearGradient>
<linearGradient id="paint13_linear_61_159" x1="1023.03" y1="801" x2="1023.03" y2="883" gradientUnits="userSpaceOnUse">
<stop/>
<stop offset="1" stop-color="white"/>
</linearGradient>
<linearGradient id="paint14_linear_61_159" x1="940.999" y1="801.015" x2="940.999" y2="905" gradientUnits="userSpaceOnUse">
<stop/>
<stop offset="1" stop-color="white"/>
</linearGradient>
<linearGradient id="paint15_linear_61_159" x1="803.358" y1="815" x2="803.358" y2="905" gradientUnits="userSpaceOnUse">
<stop/>
<stop offset="1" stop-color="white"/>
</linearGradient>
<linearGradient id="paint16_linear_61_159" x1="542.651" y1="815" x2="542.651" y2="929.418" gradientUnits="userSpaceOnUse">
<stop/>
<stop offset="1" stop-color="white"/>
</linearGradient>
<linearGradient id="paint17_linear_61_159" x1="1011.26" y1="736.38" x2="1018.39" y2="867.168" gradientUnits="userSpaceOnUse">
<stop stop-color="#9BD6EA"/>
<stop offset="1" stop-color="#4E6B75" stop-opacity="0"/>
</linearGradient>
<clipPath id="clip0_61_159">
<rect width="457" height="240" fill="white" transform="translate(402 412)"/>
</clipPath>
<clipPath id="clip1_61_159">
<rect width="1080" height="315" fill="white" transform="translate(1246 347)"/>
</clipPath>
</defs>
</svg>
