<svg xmlns="http://www.w3.org/2000/svg" xmlns:xlink="http://www.w3.org/1999/xlink" width="5000" height="1130" viewBox="0 0 5000 1130">
  <defs>
    <linearGradient id="linear-gradient" x1="0.5" x2="0.5" y2="1" gradientUnits="objectBoundingBox">
      <stop offset="0" stop-color="#fff"/>
      <stop offset="1" stop-color="#95ccff"/>
    </linearGradient>
    <linearGradient id="linear-gradient-2" x1="0.5" x2="0.5" y2="1" gradientUnits="objectBoundingBox">
      <stop offset="0" stop-color="#115bb1"/>
      <stop offset="1" stop-color="#1d66bb"/>
    </linearGradient>
    <linearGradient id="linear-gradient-3" x1="0.5" x2="0.5" y2="1" gradientUnits="objectBoundingBox">
      <stop offset="0" stop-color="#08366b"/>
      <stop offset="1" stop-color="#1c73d8"/>
    </linearGradient>
    <linearGradient id="linear-gradient-4" x1="0.5" y1="0.054" x2="0.5" y2="0.97" gradientUnits="objectBoundingBox">
      <stop offset="0" stop-color="#e6f5fa"/>
      <stop offset="1" stop-color="#e6f5fa"/>
    </linearGradient>
    <linearGradient id="linear-gradient-5" x1="0.5" x2="0.5" y2="1" gradientUnits="objectBoundingBox">
      <stop offset="0" stop-color="#fff"/>
      <stop offset="1" stop-color="#d9d9d9"/>
    </linearGradient>
    <linearGradient id="linear-gradient-6" x1="0.5" x2="0.5" y2="1" gradientUnits="objectBoundingBox">
      <stop offset="0"/>
      <stop offset="1" stop-color="#fff"/>
    </linearGradient>
    <linearGradient id="linear-gradient-12" y1="0.054" y2="0.97" xlink:href="#linear-gradient-6"/>
    <clipPath id="clip-path">
      <path id="Path_223" data-name="Path 223" d="M-.239,789.638l284.066-24.39,237.263,3.038,38.986-17.11L685.9,753.1,908,746.241v19.911l101.064,80.019,58.858-13.061,58.063,34.991,158.02,45.064L1357,906.109l225.018,13.163,235.739-11.209-118.04,36.954L1921,949l5-348H-48Z" transform="translate(-372.536 -468.441)" fill="url(#linear-gradient)"/>
    </clipPath>
    <linearGradient id="linear-gradient-19" x1="0.421" y1="0.369" x2="0.598" y2="0.803" gradientUnits="objectBoundingBox">
      <stop offset="0" stop-color="#9bd6ea"/>
      <stop offset="1" stop-color="#4e6b75" stop-opacity="0"/>
    </linearGradient>
  </defs>
  <g id="Envirnment" transform="translate(401.57 50)">
    <rect id="Sky" width="1920" height="651" transform="translate(-0.047 -50)" fill="url(#linear-gradient-2)"/>
    <rect id="Sea" width="1920" height="300" transform="translate(1919.953 1080) rotate(180)" fill="url(#linear-gradient-3)"/>
    <g id="Float_1" data-name="Float 1">
      <path id="Path_15" data-name="Path 15" d="M201,894l116.923-20L399,889h73l88,59H366.978Z" fill="#fbfdff"/>
      <path id="Path_16" data-name="Path 16" d="M201,894v57.813L365,987l1.978-39Z" fill="#bfe1ef"/>
      <path id="Path_17" data-name="Path 17" d="M365,987l191-14,4-25H366.978Z" fill="#85ceec"/>
    </g>
    <g id="Float_2" data-name="Float 2" transform="translate(-22 -42)">
      <path id="Path_18" data-name="Path 18" d="M776,1014l30-21,44-6,89,28.9L837,1024Z" fill="#fbfdff"/>
      <path id="Path_19" data-name="Path 19" d="M776,1014v15.352L835,1041l2-17Z" fill="#b8dbed"/>
      <path id="Path_20" data-name="Path 20" d="M835,1041l104-11v-14.1L837,1024Z" fill="#87c9e2"/>
    </g>
    <g id="Mountain_Left" data-name="Mountain Left" transform="translate(-98.523)">
      <g id="Group_1" data-name="Group 1">
        <path id="Path_21" data-name="Path 21" d="M-303.047,601H500L362.771,562.212,235.706,462.818l-98.28-40.353L98.477,361H-33.67l-101.652,99.394-116.9,33.939Z" fill="#fbfdff"/>
        <path id="Path_22" data-name="Path 22" d="M172.026,547.667,117.965,601H246.9Z" fill="#e6f5fa"/>
        <path id="Path_23" data-name="Path 23" d="M235.706,462.818l-83.23,5.842,29.957,25.673,17.255-16.538h24.9L335.31,540.731Z" fill="#e6f5fa"/>
        <path id="Path_24" data-name="Path 24" d="M98.477,361,43.361,448.636V560.029L-2.051,601H-115.578l-22.706-48.707V491.955l2.963-31.561L-33.67,361Z" fill="#9bd6ea"/>
        <path id="Path_25" data-name="Path 25" d="M53.091,369.732,4.437,464.107V553.84L-2.051,601H-115.578l84.335-53.348V474.937Z" fill="#bbe4f1"/>
        <path id="Path_26" data-name="Path 26" d="M-135.321,460.394l-58.1,72.16v50.682L-303.047,601h187.469l-22.706-48.707Z" fill="#e6f5fa"/>
        <path id="Path_27" data-name="Path 27" d="M-252.221,494.333v98.43L-303.047,601Z" fill="#bbe4f1"/>
        <path id="Path_28" data-name="Path 28" d="M43.361,448.636,79.309,562.212,53.091,601H-2.051l45.411-40.971Z" fill="#bbe4f1"/>
        <path id="Path_29" data-name="Path 29" d="M362.771,562.212,413.137,601H500Z" fill="#e6f5fa"/>
      </g>
      <path id="Path_30" data-name="Path 30" d="M152.476,494.333l19.55,53.334L246.9,601Z" fill="#bbe4f1"/>
    </g>
    <g id="Mountain_Right" data-name="Mountain Right">
      <g id="Group_3" data-name="Group 3" transform="translate(1581.953 286)">
        <path id="Path_31" data-name="Path 31" d="M1581.953,601H2616.272l-176.75-50.909L2275.864,419.636,2149.28,366.674,2099.113,286h-170.2L1797.983,416.455,1647.417,461Z" transform="translate(-1581.953 -286)" fill="#fbfdff"/>
        <path id="Path_32" data-name="Path 32" d="M2072.6,531l-69.63,70h166.068Z" transform="translate(-1460.704 -286)" fill="#e6f5fa"/>
        <path id="Path_33" data-name="Path 33" d="M2144.676,419.636l-107.2,7.668L2076.06,461l22.225-21.707h32.065l142.615,82.6Z" transform="translate(-1450.766 -286)" fill="#e6f5fa"/>
        <path id="Path_35" data-name="Path 35" d="M1986.667,297.461,1924,421.328V539.1l-8.356,61.9H1769.422l108.623-70.02V435.542Z" transform="translate(-1527.964 -286)" fill="#bbe4f1"/>
        <path id="Path_36" data-name="Path 36" d="M1797.983,416.455l-74.839,94.709v66.52L1581.953,601h241.458l-29.245-63.928Z" transform="translate(-1581.953 -286)" fill="#e6f5fa"/>
        <path id="Path_37" data-name="Path 37" d="M1647.417,461V590.19L1581.953,601Z" transform="translate(-1581.953 -286)" fill="#bbe4f1"/>
        <path id="Path_38" data-name="Path 38" d="M1941.439,401.022l46.3,149.069L1953.972,601h-71.022l58.49-53.774Z" transform="translate(-1495.268 -286)" fill="#bbe4f1"/>
        <path id="Path_39" data-name="Path 39" d="M2247.771,550.091,2312.642,601h111.879Z" transform="translate(-1390.202 -286)" fill="#e6f5fa"/>
      </g>
      <path id="Path_40" data-name="Path 40" d="M2037.476,461l25.18,70,96.438,70Z" transform="translate(131.188)" fill="#bbe4f1"/>
    </g>
    <g id="Mountain_Middle" data-name="Mountain Middle" transform="translate(319 307)">
      <path id="Path_41" data-name="Path 41" d="M319,601l199.334-31.662,69.333-67.846V429.123L882.333,307l251.333,194.492L1463,546.723,1515,601Z" transform="translate(-319 -307)" fill="#fbfdff"/>
      <path id="Path_42" data-name="Path 42" d="M700.333,307l98.2,205.812L906.588,601l45.079-99.508Z" transform="translate(-137 -307)" fill="#9bd6ea"/>
      <path id="Path_43" data-name="Path 43" d="M506.724,546.723,319,601H558.724Z" transform="translate(637.276 -307)" fill="#bbe4f1"/>
      <path id="Path_44" data-name="Path 44" d="M843.612,512.812,745.412,601H951.667Z" transform="translate(-182.078 -307)" fill="#bbe4f1"/>
      <path id="Path_45" data-name="Path 45" d="M1201.822,501.492,1315.666,601H1138.821l-6.332-31.662Z" transform="translate(-933.156 -307)" fill="#bbe4f1"/>
      <path id="Path_46" data-name="Path 46" d="M1154.744,601c12.991,0-22.255-99.508-22.255-99.508L1246.333,601Z" transform="translate(-863.822 -307)" fill="#e6f5fa"/>
      <path id="Path_47" data-name="Path 47" d="M603.8,501.492,558.724,601,603.8,546.723l18.473,30.365,123.137-56.147Z" transform="translate(210.865 -307)" fill="#e6f5fa"/>
      <path id="Path_48" data-name="Path 48" d="M1034.289,307l98.2,205.812-63.534-75.2-50.434-6.837L958.264,492.3l-104.8,64.6,49.779-65.971,13.1-60.162Z" transform="translate(-470.956 -307)" fill="#e6f5fa"/>
      <path id="Path_49" data-name="Path 49" d="M853.466,430.772,903.9,530.583,869.234,601l98.2-88.188-63.534-75.2Z" transform="translate(-305.9 -307)" fill="#9bd6ea"/>
      <path id="Path_50" data-name="Path 50" d="M474.886,546.723,418.159,601H371Z" transform="translate(669.114 -307)" fill="#9bd6ea"/>
    </g>
    <g id="Floor">
      <path id="Path_2" data-name="Path 2" d="M0,879.418,285,853l-1-88L0,788.824Z" fill="#9bd6ea"/>
      <path id="Path_3" data-name="Path 3" d="M285,853l237,2-1-87-237-3Z" fill="#e6f5fa"/>
      <path id="Path_5" data-name="Path 5" d="M560,751l-1,82,126-17,1-63Z" fill="#e6f5fa"/>
      <path id="Path_4" data-name="Path 4" d="M522,855l37.078-21.969.984-82.016L521,768Z" fill="#bbe4f1"/>
      <path id="Path_6" data-name="Path 6" d="M684.953,816,909,799l-1-33.121V746l-222.047,7Z" fill="#9bd6ea"/>
      <path id="Path_7" data-name="Path 7" d="M908,765.879v49.415L925,885l78,40,6-79Z" fill="#bbe4f1"/>
      <path id="Path_8" data-name="Path 8" d="M1002.969,925.016,1069,915l-1-82-59.031,13.016Z" fill="url(#linear-gradient-4)"/>
      <path id="Path_9" data-name="Path 9" d="M1068,833l1,82,61-2-4-45Z" fill="#9bd6ea"/>
      <path id="Path_10" data-name="Path 10" d="M1126,868l4,45,140,58,14-58Z" fill="#bbe4f1"/>
      <path id="Path_11" data-name="Path 11" d="M1269.906,970.984l94.172-16.953-7-48L1283.919,913Z" fill="#9bd6ea"/>
      <path id="Path_12" data-name="Path 12" d="M1357,906l7,48,221.065,17.017-3.018-52.033Z" fill="#bbe4f1"/>
      <path id="Path_13" data-name="Path 13" d="M1585,971l115-26,118-37-236,11Z" fill="#9bd6ea"/>
      <path id="Path_14" data-name="Path 14" d="M1700,945v42.154L1924,987V948Z" fill="#e6f5fa"/>
      <path id="Path_1" data-name="Path 1" d="M-.239,789.638l284.066-24.39,237.263,3.038,38.986-17.11L685.9,753.1,908,746.241v19.911l101.064,80.019,58.858-13.061,58.063,34.991,158.02,45.064L1357,906.109l225.018,13.163,235.739-11.209-118.04,36.954L1921,949l5-348H-48Z" fill="url(#linear-gradient-5)"/>
      <path id="Path_250" data-name="Path 250" d="M1700,945v42.154L1924,987V948Z" opacity="0.17" fill="url(#linear-gradient-6)" style="mix-blend-mode: multiply;isolation: isolate"/>
      <path id="Path_251" data-name="Path 251" d="M1585,971l115-26,118-37-236,11Z" opacity="0.17" fill="url(#linear-gradient-6)" style="mix-blend-mode: multiply;isolation: isolate"/>
      <path id="Path_252" data-name="Path 252" d="M1357,906l7,48,221.065,17.017-3.018-52.033Z" opacity="0.17" fill="url(#linear-gradient-6)" style="mix-blend-mode: multiply;isolation: isolate"/>
      <path id="Path_253" data-name="Path 253" d="M1269.906,970.984l94.172-16.953-7-48L1283.919,913Z" opacity="0.17" fill="url(#linear-gradient-6)" style="mix-blend-mode: multiply;isolation: isolate"/>
      <path id="Path_254" data-name="Path 254" d="M1126,868l4,45,140,58,14-58Z" opacity="0.17" fill="url(#linear-gradient-6)" style="mix-blend-mode: multiply;isolation: isolate"/>
      <path id="Path_255" data-name="Path 255" d="M1068,833l1,82,61-2-4-45Z" opacity="0.17" fill="url(#linear-gradient-6)" style="mix-blend-mode: multiply;isolation: isolate"/>
      <path id="Path_256" data-name="Path 256" d="M1002.969,925.016,1069,915l-1-82-59.031,13.016Z" opacity="0.17" fill="url(#linear-gradient-12)" style="mix-blend-mode: multiply;isolation: isolate"/>
      <path id="Path_257" data-name="Path 257" d="M908,765.879v49.415L925,885l78,40,6-79Z" opacity="0.17" fill="url(#linear-gradient-6)" style="mix-blend-mode: multiply;isolation: isolate"/>
      <path id="Path_258" data-name="Path 258" d="M684.953,816,909,799l-1-33.121V746l-222.047,7Z" opacity="0.17" fill="url(#linear-gradient-6)" style="mix-blend-mode: multiply;isolation: isolate"/>
      <path id="Path_259" data-name="Path 259" d="M560,751l-1,82,126-17,1-63Z" opacity="0.17" fill="url(#linear-gradient-6)" style="mix-blend-mode: multiply;isolation: isolate"/>
      <path id="Path_260" data-name="Path 260" d="M522,855l37.078-21.969.984-82.016L521,768Z" opacity="0.17" fill="url(#linear-gradient-6)" style="mix-blend-mode: multiply;isolation: isolate"/>
      <path id="Path_261" data-name="Path 261" d="M285,853l237,2-1-87-237-3Z" opacity="0.17" fill="url(#linear-gradient-6)" style="mix-blend-mode: multiply;isolation: isolate"/>
      <path id="Path_262" data-name="Path 262" d="M0,879.418,285,853l-1-88L0,788.824Z" opacity="0.17" fill="url(#linear-gradient-6)" style="mix-blend-mode: multiply;isolation: isolate"/>
    </g>
    <g id="Igloo" transform="translate(372.536 468.441)">
      <g id="Group_13" data-name="Group 13" transform="translate(0)">
        <g id="Mask_Group_1" data-name="Mask Group 1" clip-path="url(#clip-path)">
          <path id="Path_222" data-name="Path 222" d="M1132.912,896.74c0,72.816-124.178,131.857-277.355,131.857-47.334,0-91.9-5.637-130.888-15.577-26.443-6.741-50.32-15.461-71.061-25.908A216.7,216.7,0,0,1,620.15,966.5c-15.065-11.439-26.547-24.1-33.8-37.946-2.713-5.173,3.748-12.184,2.331-17.865-1.213-4.86,4.868-12.439,4.868-17.751,0-72.827,108.829-128.055,262.012-128.055S1132.912,823.913,1132.912,896.74Z" transform="translate(-450.973 -749.438) rotate(8)" opacity="0.17" fill="url(#linear-gradient-19)" style="mix-blend-mode: multiply;isolation: isolate"/>
        </g>
        <g id="Group_12" data-name="Group 12" transform="translate(0)">
          <g id="Group_10" data-name="Group 10" transform="translate(0)">
            <g id="Group_4" data-name="Group 4">
              <path id="Path_52" data-name="Path 52" d="M1082.172,764.277l1.781-46.871C1099.421,534.564,1288.18,535,1288.18,535c209.812.741,224.522,156.883,220.084,229.492-.541,8.845-1.364,16.451-2.156,22.384-49.558,4.2-126.163,6.9-212.145,6.9-86.27,0-163.106-2.714-212.647-6.939Z" transform="translate(-1081.315 -535)" fill="#a2def9" style="mix-blend-mode: multiply;isolation: isolate"/>
              <path id="Path_53" data-name="Path 53" d="M1082.172,764.277l1.781-46.871C1099.421,534.564,1288.18,535,1288.18,535c209.812.741,224.522,156.883,220.084,229.492-.541,8.845-1.364,16.451-2.156,22.384-49.558,4.2-126.163,6.9-212.145,6.9-86.27,0-163.106-2.714-212.647-6.939Z" transform="translate(-1081.315 -535)" fill="#d8f0f6"/>
            </g>
            <g id="Group_5" data-name="Group 5" transform="translate(0 1.115)" opacity="0.4" style="mix-blend-mode: multiply;isolation: isolate">
              <path id="Path_54" data-name="Path 54" d="M1082.172,764.5l1.781-46.871c12.61-149.064,140.392-176.311,187.178-181.291A102.572,102.572,0,0,0,1246,551.372l42.765,10.91-45.819-.874c-11.782,4.364-26.183,27.055-26.183,27.055l14.838-29.237-7.856.873c-16.581,7.419-42.328,43.2-42.328,43.2l34.911,5.236c-6.546,7.855-13.092,36.22-13.092,36.22l61.094,8.727-62.839-.873-6.546,39.276,46.692,10.474-95.568,1.314L1143.89,749.5l43.346,3.5,4.218,31.01c11.347,1.747,99.932,3.545,99.932,3.545l5.237-25.234,1.744,25.055h50.621l1.749-26.579-54.107-5.87,58.483-4.458s-1.3-44.111,33.178-65.494,93.412-9.16,103.448-9.16c5.144,0,6.057-5.386,5.731-10.625,11.511,36.574,12.389,73.442,10.794,99.529-.541,8.844-1.364,16.447-2.156,22.379-49.558,4.2-126.163,6.9-212.145,6.9-86.27,0-163.106-2.716-212.647-6.94Z" transform="translate(-1081.315 -536.34)" fill="#b5dff2" style="mix-blend-mode: multiply;isolation: isolate"/>
            </g>
            <g id="Group_7" data-name="Group 7" transform="translate(279.872 145.315)">
              <path id="Path_55" data-name="Path 55" d="M1101.775,823.188c-.224-16.4,1.095-58.189,18.525-87.087,12.676-21.017,29.875-25.86,42.244-26.168l69.076.123.816,113.132Z" transform="translate(-1101.755 -709.729)" fill="#bfe7fb"/>
              <path id="Path_56" data-name="Path 56" d="M1101.775,823.188c-.224-16.4,1.095-58.189,18.525-87.087,12.676-21.017,29.875-25.86,42.244-26.168l69.076.123.816,113.132Z" transform="translate(-1101.755 -709.729)" fill="#caebf5"/>
              <path id="Path_57" data-name="Path 57" d="M1120.3,736.124c9.462-15.688,21.442-22.363,32.054-24.867-.727.282-1.452.572-2.17.88a34.127,34.127,0,0,0-7.658,4.326,38.174,38.174,0,0,0-5.909,6.194,51,51,0,0,0-3.9,5.232c-.77,1.235-2.171,3.2-1.838,4.787.29,1.367,2,1.7,3.163,1.986.649.16,1.3.294,1.957.422a16.435,16.435,0,0,0-4.833.422c-2.382.709-3.593,2.787-4.5,4.969-4.01,9.589-6.1,19.761-7.855,29.966a.445.445,0,0,0,.2.492c3.884,2.181,8.13,3.488,12.289,5.014-2.713-.462-7.027.606-9.741,1.882-2.872,1.353-1.883,2.716-2.458,5.7-1.487,7.718-3.33,16.086-1.954,23.951.536,3.058,35.218,8.346,35.921,5.643,1.307-5.04,2.761-9.942,4.394-14.893,1.78-5.394,3.539-10.907,3.807-16.621a.441.441,0,0,0-.32-.422c-4.208-1.314-9.159-1.061-12.977-3.422,3.267-.56,6.69-.007,9.968.131,2.493.106,6.168.413,8.35-1.147,1.8-1.286,2.624-3.657,3.263-5.685.9-2.836,1.492-5.744,2.179-8.635.906-3.836,2.672-7.429,3.9-11.175.659-2.021,1.178-4.087,1.855-6.1a4.043,4.043,0,0,0,.426-1.987c-.419-1.8-3.457-3.145-4.932-3.766-2.707-1.143-5.641-1.59-8.468-2.361,5.807-1.889,12.545,1.157,18.118-1.763,2.455-1.288,4.056-3.387,5.815-5.46a47.746,47.746,0,0,1,6.94-6.62c8.218-6.467,18.317-11.459,28.819-13.13l7.423.013.816,113.132H1101.775C1101.552,806.81,1102.87,765.021,1120.3,736.124Z" transform="translate(-1101.755 -709.751)" fill="#b5dff2" opacity="0.5" style="mix-blend-mode: multiply;isolation: isolate"/>
              <path id="Path_58" data-name="Path 58" d="M1038.773,823.184c-.223-16.4,1.095-58.189,18.526-87.087,22.109-36.656,57.981-24.117,57.981-24.117,39.081,16.264,42.43,76.293,39.377,111.2Z" transform="translate(-972.424 -709.726)" fill="#d8f0f6"/>
              <path id="Path_59" data-name="Path 59" d="M1157.453,716.913c-9.252-4.538-19.322-6.041-29.343-3.329-11.43,3.093-20.616,9.613-27.915,18.877-6.975,8.853-11.47,19.447-14.81,30.134a362.007,362.007,0,0,0-9.689,38.871c-1.253,6.456-2.2,12.9-2.847,19.363-.053-17.755,1.888-57.12,18.544-84.731,22.109-36.656,57.981-24.117,57.981-24.117a48.833,48.833,0,0,1,11.873,7.058A41.544,41.544,0,0,0,1157.453,716.913Z" transform="translate(-1006.516 -709.726)" fill="#a2def9" style="mix-blend-mode: screen;isolation: isolate"/>
              <path id="Path_60" data-name="Path 60" d="M1057.027,829.006c-.151-12.23.736-43.394,12.459-64.943,14.869-27.336,38.994-17.985,38.994-17.985,26.283,12.127,28.537,56.895,26.483,82.928Z" transform="translate(-967.639 -715.547)" fill="#a2def9" style="mix-blend-mode: screen;isolation: isolate"/>
              <path id="Path_61" data-name="Path 61" d="M1058,829.359c-.146-11.977.72-42.5,12.2-63.6,14.561-26.772,38.188-17.615,38.188-17.615,25.74,11.876,27.947,55.719,25.935,81.215Z" transform="translate(-967.804 -715.9)" fill="#93c4d6"/>
              <g id="Group_6" data-name="Group 6" transform="translate(5.546)" style="mix-blend-mode: color-dodge;isolation: isolate">
                <path id="Path_62" data-name="Path 62" d="M1181.539,733.835a38.147,38.147,0,0,1,26.974-24.147l4.88.512C1194.384,712.513,1181.539,733.835,1181.539,733.835Z" transform="translate(-1154.626 -709.688)" fill="#a2def9" opacity="0.6" style="mix-blend-mode: multiply;isolation: isolate"/>
                <path id="Path_63" data-name="Path 63" d="M1137.783,775.939c-5.468-1.229-8.7-2.25-8.7-2.25l31.5,2.2A105.175,105.175,0,0,1,1170,737.826c-17.6-1.42-26.378-4.573-26.378-4.573l51.916,3.445a43.209,43.209,0,0,1,30.414-27.011l5.529.582c-20.064,2.44-34.056,23.568-35.869,26.434l13.759.913a252.621,252.621,0,0,1-35.99.453c-6.915,10.973-11.224,31.249-12.491,37.843l34.808,2.432c-3.169.552-6.336.957-9.472,1.238L1175.919,821.4a237.042,237.042,0,0,1,6.294-41.53,163.942,163.942,0,0,1-41.515-3.307l-7.835,31.778A184.282,184.282,0,0,1,1137.783,775.939Z" transform="translate(-1129.08 -709.688)" fill="#a2def9" opacity="0.6" style="mix-blend-mode: multiply;isolation: isolate"/>
              </g>
            </g>
            <path id="Path_64" data-name="Path 64" d="M1054.148,827.337l-13.673.581v-3.344Z" transform="translate(-592.617 -583.691)" fill="#a2def9" style="mix-blend-mode: screen;isolation: isolate"/>
            <path id="Path_65" data-name="Path 65" d="M1056.9,793.728l-12.773,4.916-1.068-3.169Z" transform="translate(-597.518 -578.504)" fill="#a2def9" style="mix-blend-mode: screen;isolation: isolate"/>
            <path id="Path_66" data-name="Path 66" d="M1068.422,746.147l-14.182,14.837,1.527,2.181Z" transform="translate(-618.343 -570.504)" fill="#a2def9" style="mix-blend-mode: screen;isolation: isolate"/>
            <path id="Path_67" data-name="Path 67" d="M1097.205,714.409l-.654,25.746-3.492-.654Z" transform="translate(-679.417 -565.167)" fill="#a2def9" style="mix-blend-mode: screen;isolation: isolate"/>
            <path id="Path_68" data-name="Path 68" d="M1138.5,750.1l-2.617,2.4-12.656-15.273Z" transform="translate(-745.8 -569.004)" fill="#a2def9" style="mix-blend-mode: screen;isolation: isolate"/>
            <path id="Path_69" data-name="Path 69" d="M1161.411,784.593l-.8,2.4-17.454-6.836Z" transform="translate(-785.298 -576.223)" fill="#a2def9" style="mix-blend-mode: screen;isolation: isolate"/>
            <path id="Path_70" data-name="Path 70" d="M1169.319,821.6l-.192,2.523-18.594-2.38Z" transform="translate(-799.339 -583.191)" fill="#a2def9" style="mix-blend-mode: screen;isolation: isolate"/>
            <path id="Path_71" data-name="Path 71" d="M1085.973,732.926a46.3,46.3,0,0,1,4.784,6.656c-1.944,2.63-3.995,5.183-6.03,7.743-6.036-11.275-14.9-21.14-27.845-27.2C1056.882,720.126,1071.982,716.907,1085.973,732.926Z" transform="translate(-642.875 -566.084)" fill="#5bcbf5" style="mix-blend-mode: screen;isolation: isolate"/>
            <path id="Path_72" data-name="Path 72" d="M1049.975,786.13a112.461,112.461,0,0,0-7.26-26.451q3.493-3.22,6.737-6.693c3.92,9.168,6.41,19.99,7.838,30.93C1054.906,784.8,1052.443,785.466,1049.975,786.13Z" transform="translate(-597.625 -571.654)" fill="#5bcbf5" style="mix-blend-mode: screen;isolation: isolate"/>
            <path id="Path_73" data-name="Path 73" d="M1041.864,819.791a169.214,169.214,0,0,0-1.011-19.872c2.411-.616,4.8-1.344,7.212-1.942a195.327,195.327,0,0,1,.756,23.19A36.492,36.492,0,0,1,1041.864,819.791Z" transform="translate(-587.674 -579.219)" fill="#5bcbf5" style="mix-blend-mode: screen;isolation: isolate"/>
            <path id="Path_74" data-name="Path 74" d="M1048.847,832.062c-.214,3.747-.536,7.236-.95,10.357l-6.691-.873s.516-3.944.771-10.323Q1045.409,831.676,1048.847,832.062Z" transform="translate(-587.926 -584.809)" fill="#5bcbf5" style="mix-blend-mode: screen;isolation: isolate"/>
            <path id="Path_75" data-name="Path 75" d="M1302.07,669.322s-18.038-126.55-201.317-132.224c0,0,43.639,4.8,74.476,15.275,0,0,18.908,5.236,22.108,8.728l-16.289.291,27.928,3.781s31.128,16.291,41.6,29.965l-31.71,6.691,35.2-1.745s17.747,21.529,25.02,42.765l-14.546,1.454,17.164,1.455,8.437,22.4Z" transform="translate(-890.682 -535.353)" fill="#5bcbf5" style="mix-blend-mode: screen;isolation: isolate"/>
            <g id="Group_8" data-name="Group 8" transform="translate(3.664 0.874)" style="mix-blend-mode: screen;isolation: isolate">
              <path id="Path_76" data-name="Path 76" d="M1590.715,783.319c-.591-.121-.88-.189-.88-.189Z" transform="translate(-1589.835 -577.597)" fill="#5bcbf5"/>
              <path id="Path_77" data-name="Path 77" d="M1521.808,612.209c-1-.178-1.48-.276-1.48-.276Z" transform="translate(-1463.108 -548.81)" fill="#5bcbf5"/>
              <path id="Path_78" data-name="Path 78" d="M1342.258,785.5c-33-2.291-66.514-6.221-96.545-12.674,3.391.7,16.812,3.256,43.8,5.936-1.065-23.653.174-46.652.488-51.858-12.085-1.707-23.869-3.753-35.132-6.2,0,0,70.695,11.784,277.1,9.164,0,0-6.3.585-17.261,1.342l-2.159,43.387-3.85-42.987c-23.255,1.495-61.7,3.343-104.94,2.907l-2.705,41.389-2.134-41.449c-33.443-.468-69.481-2.339-103.419-6.807-3.51,12.529-5.518,44.846-5.88,51.118,41.126,4.078,113.68,8.432,230.129,6.957,0,0-24.473,1.71-61.006,2.372l-1.4,36.611-2.233-36.549c-30.5.482-68.8.2-108.1-2.343l-1.385,36.274Z" transform="translate(-1244.833 -567.1)" fill="#5bcbf5"/>
              <path id="Path_79" data-name="Path 79" d="M1458.161,655.042s-14.014-30.986-20.744-38.7c-18.615,1.763-48.072,4.167-82.809,5.616,1.143,5.57,4.5,23.575,3.773,39.927,0,0-3.981-28.6-8.406-39.74-26.987,1.043-56.931,1.485-87.322.6l-6.894,38.556,1.942-38.712a773.2,773.2,0,0,1-83.3-6.919c-1.669,2.951-14.148,25.246-19.3,40.976,0,0,4.563-24.5,14.807-41.642q-8.219-1.255-16.183-2.744c2.39.426,7.733,1.3,16.441,2.308l.061-.106,1.322.264c35.461,4.012,122.851,9.927,287.135-.6,0,0-5.015.6-13.944,1.5C1445.814,617.874,1454.759,636.9,1458.161,655.042Z" transform="translate(-1095.026 -548.866)" fill="#5bcbf5"/>
              <path id="Path_80" data-name="Path 80" d="M1106.626,702.585l-15.929-34.91,3.492-1.528S1102.917,689.275,1106.626,702.585Z" transform="translate(-690.536 -557.926)" fill="#5bcbf5"/>
              <path id="Path_81" data-name="Path 81" d="M1400.487,603.453s-13.813-29.563-23.251-39.471c-17.078,1.532-38.88,2.986-62.416,3.307l-2.19,39.436-1.095-39.4a547.655,547.655,0,0,1-62.672-2.742c-4.372,5.141-18.654,22.6-23.8,37.124,0,0,6.88-25.215,18.193-37.763-9.625-1.175-19.052-2.7-28.084-4.639,0,0,51.994,9.786,198.067.618,0,0-12.38,1.838-31.931,3.684A120,120,0,0,1,1400.487,603.453Z" transform="translate(-1100.694 -539.961)" fill="#5bcbf5"/>
              <path id="Path_82" data-name="Path 82" d="M1297.474,536.051l3.35.144s8.708,10.693,11.924,21.819C1312.748,558.014,1303.77,541.83,1297.474,536.051Z" transform="translate(-1068.666 -536.051)" fill="#5bcbf5"/>
              <path id="Path_83" data-name="Path 83" d="M1357.276,558.014c3.215-11.125,11.923-21.819,11.923-21.819l3.351-.144C1366.252,541.83,1357.276,558.014,1357.276,558.014Z" transform="translate(-1178.214 -536.051)" fill="#5bcbf5"/>
              <path id="Path_84" data-name="Path 84" d="M1318.469,676.124l-1.422,37.319-2.278-37.286c-32.1.24-65.777-.428-98.773-2.61-1.515,4.109-5.291,16.115-8.628,41.059,0,0,1.026-28.5,4-41.375-14.546-1.026-28.938-2.352-42.982-4.033-11.822-1.1-27.771-3.332-35.79-3.758a32.7,32.7,0,0,0-5.053.069c-2.75,5.638-10.487,22.637-12.984,39.932,0,0,3.475-24.514,10.245-39.41a4.988,4.988,0,0,0-2.3,1.3l2.82-6.252c7.884,1.6,32.01,5.173,42,6.633,53.019,4.65,158.584,9.183,333.435-2.023,0,0-32.1,3.657-80.19,6.659.663,3.209,4.2,21.023,3.6,33.1l-8.728-32.782C1387.194,674.353,1353.849,675.781,1318.469,676.124Z" transform="translate(-1104.529 -557.074)" fill="#5bcbf5"/>
              <path id="Path_85" data-name="Path 85" d="M1569.8,668.593l-.525,1.167A1.717,1.717,0,0,1,1569.8,668.593Z" transform="translate(-1551.823 -558.338)" fill="#5bcbf5"/>
            </g>
            <path id="Path_86" data-name="Path 86" d="M1127.394,825.386l-63.712-2.037S1102.084,829.168,1127.394,825.386Z" transform="translate(-685.168 -583.485)" fill="#93c4d6" style="mix-blend-mode: multiply;isolation: isolate"/>
            <path id="Path_87" data-name="Path 87" d="M1129.087,798.451l-62.258-1.781S1104.355,801.761,1129.087,798.451Z" transform="translate(-689.48 -578.999)" fill="#93c4d6" style="mix-blend-mode: multiply;isolation: isolate"/>
            <path id="Path_88" data-name="Path 88" d="M1118.277,766.459l-44.8-1.164A174.959,174.959,0,0,0,1118.277,766.459Z" transform="translate(-684.197 -573.724)" fill="#93c4d6" style="mix-blend-mode: multiply;isolation: isolate"/>
            <path id="Path_89" data-name="Path 89" d="M1079.448,766.867a51.753,51.753,0,0,1,6.983,26.329s2.327-17.019-4.073-26.183Z" transform="translate(-657.732 -573.988)" fill="#93c4d6" style="mix-blend-mode: multiply;isolation: isolate"/>
            <path id="Path_90" data-name="Path 90" d="M1116.169,765.819a51.749,51.749,0,0,1,6.982,26.327s2.328-17.018-4.073-26.182Z" transform="translate(-724.999 -573.812)" fill="#93c4d6" style="mix-blend-mode: multiply;isolation: isolate"/>
            <path id="Path_91" data-name="Path 91" d="M1111.927,763.3s-4.365-10.911-9.6-14.255c0,0,6.109,6.977,7.128,14.255Z" transform="translate(-701.848 -570.991)" fill="#93c4d6" style="mix-blend-mode: multiply;isolation: isolate"/>
            <path id="Path_92" data-name="Path 92" d="M1097.729,799.363a142.317,142.317,0,0,1,0,22.255l-1.891-22.4Z" transform="translate(-682.705 -579.427)" fill="#93c4d6" style="mix-blend-mode: multiply;isolation: isolate"/>
            <path id="Path_93" data-name="Path 93" d="M1075.341,826.78l.436,14.4s2.765-14.547,2.329-14.693A13.431,13.431,0,0,0,1075.341,826.78Z" transform="translate(-645.625 -584.008)" fill="#93c4d6" style="mix-blend-mode: multiply;isolation: isolate"/>
            <path id="Path_94" data-name="Path 94" d="M1115.211,825.234l.436,15.682s2.764-15.84,2.328-16A12.41,12.41,0,0,0,1115.211,825.234Z" transform="translate(-718.66 -583.743)" fill="#93c4d6" style="mix-blend-mode: multiply;isolation: isolate"/>
            <path id="Path_95" data-name="Path 95" d="M1131.845,796.77c0,.435,2.543,13.672,2.409,22.11,0,0,1.608-15.128.671-21.82Z" transform="translate(-749.694 -579.016)" fill="#93c4d6" style="mix-blend-mode: multiply;isolation: isolate"/>
            <g id="Group_9" data-name="Group 9" transform="translate(370.057 176.241)" style="mix-blend-mode: multiply;isolation: isolate">
              <path id="Path_96" data-name="Path 96" d="M1070.187,766.127c11.786-21.667,29.508-19.966,35.836-18.465-6.884.2-15.15,1.656-20.321,7.125l-.91,5.157,20.928,2.872-18.629,2.016s4.07,13.953,4.07,21.519l25.452,3.485-23.419,1.452s1.162,12.509.872,17.745l27.928,3.49-27.056,1.745.873,10.183,19.425-.873,5.168-5.817v7.272l9.524-1.164a127.494,127.494,0,0,0-.523-48.6c5.877,17.573,6.1,39.424,4.9,54.79h-76.325C1057.839,817.928,1058.7,787.232,1070.187,766.127Z" transform="translate(-1057.971 -746.865)" fill="#93c4d6"/>
            </g>
          </g>
          <g id="Group_11" data-name="Group 11" transform="translate(0 9.877)" opacity="0.4" style="mix-blend-mode: multiply;isolation: isolate">
            <path id="Path_97" data-name="Path 97" d="M1418.111,766.273l1.781-46.871c9.594-113.417,85.856-156.306,142.393-172.53-7.583,4.218-9.581,8.015-9.581,8.015L1565.359,561l-24.438-2.181c-18.327,5.237-47.13,38.837-47.13,38.837l14.839,7.42c-.873-.438-10.037,0-10.037,0l-15.275,41.019,23.567,6.546-41.456,2.618-7.855,29.675,52.8,13.964-40.583-.873-5.237,15.71-7.417-16.583-6.547,47.566,21.383,6.982-20.946-2.183-2.183,35.783c24.875,3.929,66.331,4.366,66.331,4.366l5.236-20.51,3.9,25.183c-42.266-1.206-79.032-3.111-107.059-5.5Z" transform="translate(-1417.254 -546.873)" fill="#b5dff2" style="mix-blend-mode: multiply;isolation: isolate"/>
          </g>
        </g>
      </g>
    </g>
    <g id="Stone" transform="translate(223.826 448.818)">
      <path id="Path_224" data-name="Path 224" d="M682.1,786.131c0,11.735-23.26,21.25-51.952,21.25s-51.953-9.515-51.953-21.25,23.26-21.25,51.953-21.25S682.1,774.394,682.1,786.131Z" transform="translate(-561.635 -530.775)" fill="#9bd6ea" opacity="0.48" style="mix-blend-mode: multiply;isolation: isolate"/>
      <g id="Group_50" data-name="Group 50" transform="translate(20.391 216.546)">
        <g id="Group_47" data-name="Group 47" transform="translate(0 0.886)">
          <path id="Path_211" data-name="Path 211" d="M80.213,256.941c-.405.2-.8.4-1.213.564-1.249.512-2.5,1-3.778,1.424-2.867.96-5.685,1.826-8.62,2.536-.584.143-1.171.272-1.758.4-3.087.8-7.653.914-11.324,1.07-8.727.4-17.651-3.817-25.3-7.416-2.623-1.229-5.211-2.711-6.758-5.247-2.02-3.314-.856-6.722.8-9.884a47.066,47.066,0,0,1,5.5-7.572,61.5,61.5,0,0,1,6.82-7.264,43.076,43.076,0,0,1,5.266-3.982.483.483,0,0,0,.143-.052c.665-.357,1.326-.72,1.991-1.086a34.924,34.924,0,0,1,8.376-4.336A40.977,40.977,0,0,1,62.6,213.13a10.972,10.972,0,0,1,5.169.765,10.527,10.527,0,0,1,2.066,1.284,12.329,12.329,0,0,1,1.79,1.362,23.3,23.3,0,0,1,4.1,5.309c1.388,2.3,6.171,10.7,7.151,12.67A20.727,20.727,0,0,1,85,242.6c.065,1.1.418,2.695,0,3.853a5.294,5.294,0,0,1-.723,2.572,23.275,23.275,0,0,1-1.949,2.614,22.214,22.214,0,0,0-1.544,2.779A5.494,5.494,0,0,0,80.213,256.941Z" transform="translate(-20.391 -213.108)" fill="#9ea8aa"/>
          <path id="Path_212" data-name="Path 212" d="M85,242.6a20.727,20.727,0,0,0-2.121-8.085c-.979-1.965-5.763-10.374-7.151-12.67a23.3,23.3,0,0,0-4.1-5.309,12.331,12.331,0,0,0-1.79-1.362,10.525,10.525,0,0,0-2.066-1.284,9.607,9.607,0,0,0-4.018-.785c2.487,2.646.139,6.956-.976,9.777-2.182,5.526-4.063,11.149-6.457,16.594-.6,1.359-1.174,2.776-1.784,4.19a51.885,51.885,0,0,1-2.607,5.931,12.925,12.925,0,0,1-3.784,4.7c-1.842,1.242-4.034,1.252-6.174.97-2.3-.311-4.547-.888-6.829-1.291a48.521,48.521,0,0,1-5.38-1.219c-2.02-.606-4.705-1.492-6.473-3.081a7.147,7.147,0,0,1-2.75-4.592l-.01-.084a7.266,7.266,0,0,0,.931,5.26c1.547,2.536,4.135,4.018,6.758,5.247,7.65,3.6,16.574,7.815,25.3,7.416,3.671-.156,8.237-.272,11.324-1.07.587-.123,1.174-.253,1.758-.4,2.935-.71,5.753-1.576,8.62-2.536,1.281-.428,2.529-.911,3.778-1.424.409-.165.807-.366,1.213-.564a5.493,5.493,0,0,1,.567-2.52,22.214,22.214,0,0,1,1.544-2.779,23.274,23.274,0,0,0,1.949-2.614,5.3,5.3,0,0,0,.723-2.572C85.415,245.3,85.062,243.7,85,242.6Z" transform="translate(-20.388 -213.107)" fill="#9ea8aa" style="mix-blend-mode: multiply;isolation: isolate"/>
          <path id="Path_213" data-name="Path 213" d="M71.907,242.314a20.727,20.727,0,0,0-2.121-8.084c-.979-1.965-5.763-10.374-7.151-12.67a23.3,23.3,0,0,0-4.1-5.309,12.328,12.328,0,0,0-1.79-1.362,10.526,10.526,0,0,0-2.066-1.284,7.369,7.369,0,0,0-.973-.366c.2.12.4.237.58.36a14.15,14.15,0,0,1,5.039,7.008c1.167,3.045,1.913,6.226,2.818,9.356a81.468,81.468,0,0,1,2.377,9.385,18.676,18.676,0,0,1,.032,7.643,9.751,9.751,0,0,1-3.107,4.829c-3.259,2.86-7.429,4.433-11.441,5.922a44.614,44.614,0,0,1-18.916,2.886c-1.615-.123-3.243-.321-4.864-.6a37.207,37.207,0,0,0,14.2,2.614c3.671-.156,8.237-.272,11.324-1.07.587-.123,1.174-.253,1.758-.4,2.935-.71,5.753-1.576,8.62-2.536,1.281-.428,2.529-.911,3.778-1.424.409-.165.807-.366,1.213-.564a5.493,5.493,0,0,1,.568-2.52,22.213,22.213,0,0,1,1.544-2.779,23.279,23.279,0,0,0,1.949-2.614,5.294,5.294,0,0,0,.723-2.572C72.325,245.008,71.972,243.41,71.907,242.314Z" transform="translate(-7.298 -212.817)" fill="#9ea8aa" style="mix-blend-mode: multiply;isolation: isolate"/>
        </g>
        <g id="Group_48" data-name="Group 48" transform="translate(57.487)">
          <path id="Path_214" data-name="Path 214" d="M76.776,244.093a5.555,5.555,0,0,1-2.909,4.365c-1.4.61-5.1,2.5-6.7,2.348a13.837,13.837,0,0,0-5.393-6,9.082,9.082,0,0,0-8.179-.843c-1.443.512-3.11-.422-4.371.438-.934.639-3.807,2.26-4.628,3a7.67,7.67,0,0,0,.3-1.66,21.126,21.126,0,0,0-.8-6.324c-1-3.784-.162-8.516-2.273-11.84-1.226-1.939-2.458-3.895-3.707-5.834a5.472,5.472,0,0,0,1.057-.84c1.116-1.064,2.387-2.014,3.6-2.961a28.464,28.464,0,0,1,8.6-4.5c6.139-2.04,11.571,1.372,15.679,5.685a36.712,36.712,0,0,1,8.36,14.794A25.52,25.52,0,0,1,76.776,244.093Z" transform="translate(-38.118 -212.835)" fill="#9ea8aa"/>
          <path id="Path_215" data-name="Path 215" d="M42.165,221.521a47.485,47.485,0,0,1,6.268-5.185,16.405,16.405,0,0,1,9.725-3.074,11.5,11.5,0,0,0-6.778.178,28.464,28.464,0,0,0-8.6,4.5c-1.216.947-2.487,1.9-3.6,2.961a5.473,5.473,0,0,1-1.057.84q.783,1.211,1.553,2.435A30.715,30.715,0,0,1,42.165,221.521Z" transform="translate(-38.118 -212.833)" fill="#9ea8aa" style="mix-blend-mode: screen;isolation: isolate"/>
          <path id="Path_216" data-name="Path 216" d="M72.619,232.041a36.712,36.712,0,0,0-8.36-14.794,26.459,26.459,0,0,0-4.128-3.574,10.735,10.735,0,0,1,.918,1.7A15.751,15.751,0,0,1,62.5,222.7c-.542,4.887-4.423,8.707-8.448,11.12a17.75,17.75,0,0,1-3.613,1.745,5.894,5.894,0,0,1-3.217.389c-1.845-.542-2.581-2.792-3.554-4.251a53.136,53.136,0,0,0-4.3-5.438c1.93,3.2.989,7.7,1.93,11.272a21.126,21.126,0,0,1,.8,6.324,7.669,7.669,0,0,1-.3,1.66c.82-.743,3.694-2.364,4.628-3,1.261-.859,2.928.075,4.371-.438a9.082,9.082,0,0,1,8.179.843,13.837,13.837,0,0,1,5.393,6c1.6.156,5.3-1.738,6.7-2.348a5.555,5.555,0,0,0,2.909-4.365A25.52,25.52,0,0,0,72.619,232.041Z" transform="translate(-35.317 -210.955)" fill="#9ea8aa" style="mix-blend-mode: multiply;isolation: isolate"/>
          <path id="Path_217" data-name="Path 217" d="M55.461,227.878a38.2,38.2,0,0,0-6.252-12.349,34.7,34.7,0,0,1,2.64,8.224,26.521,26.521,0,0,1-.568,12.381c-.649,2.131-3.146,6.421-4.264,8.308.062.11.13.211.191.321,1.6.156,5.3-1.738,6.7-2.348a5.555,5.555,0,0,0,2.909-4.365A25.52,25.52,0,0,0,55.461,227.878Z" transform="translate(-18.159 -206.793)" fill="#9ea8aa" style="mix-blend-mode: multiply;isolation: isolate"/>
        </g>
        <g id="Group_49" data-name="Group 49" transform="translate(58.742 30.424)">
          <path id="Path_218" data-name="Path 218" d="M66.829,235.092c-6.21,2.046-12.819,3.262-19.347,2.442-.3-.039-.6-.088-.9-.139-.227-.007-.451-.013-.678-.029a12.6,12.6,0,0,1-2.536-.383c-.548-.156-3.95-.331-4.349-.785a1.9,1.9,0,0,1-.279-.428l-.065.016a1.559,1.559,0,0,1-.068-1.32,5.012,5.012,0,0,1,.743-1.722c.058-.1.8-1.346.833-1.4.769-1.151.59-1.281,1.407-2.413a26.329,26.329,0,0,1,2.095-2.542,14,14,0,0,1,3.467-2.578c2.455-1.245,7.948-1.861,10.682-1.488s5.218,2.448,6.891,4.527a15.719,15.719,0,0,1,1.443,2.157.349.349,0,0,0,.2.366c.263.506.506,1.031.726,1.57.227.555.412,1.138.6,1.709C68.132,233.973,68.236,234.631,66.829,235.092Z" transform="translate(-38.505 -222.217)" fill="#9ea8aa"/>
          <path id="Path_219" data-name="Path 219" d="M67.7,232.592c-.191-.571-.376-1.154-.6-1.709-.221-.538-.464-1.064-.726-1.57a.349.349,0,0,1-.2-.366,15.719,15.719,0,0,0-1.443-2.157c-1.673-2.079-4.157-4.161-6.891-4.527-.062-.01-.126-.013-.191-.019a7.746,7.746,0,0,1,1.968,3.969,8.777,8.777,0,0,1-.2,4.589c-.577,1.612-2.283,2.572-3.817,3.094a23.085,23.085,0,0,1-5.993,1.047c-1.664.1-3.739.347-5.279-.451-1.271-.655-4.323-1.923-4.141-3.207-.214.4-.438.785-.687,1.161-.032.052-.088.136-.146.237a5.012,5.012,0,0,0-.743,1.722,1.559,1.559,0,0,0,.068,1.32l.065-.016a1.9,1.9,0,0,0,.279.428c.4.454,3.8.629,4.349.785a12.6,12.6,0,0,0,2.536.383c.227.016.451.023.678.029.3.052.6.1.9.139,6.528.82,13.137-.4,19.347-2.442C68.236,234.57,68.132,233.912,67.7,232.592Z" transform="translate(-38.505 -222.155)" fill="#9ea8aa" style="mix-blend-mode: multiply;isolation: isolate"/>
        </g>
      </g>
      <g id="Group_51" data-name="Group 51" transform="translate(31.214 211.181)">
        <path id="Path_220" data-name="Path 220" d="M108.036,229.361c-.752-3.872-5.435-7.368-7.942-10.053-3.133-3.356-5.746-7.154-10.734-6.765-5.484.425-10.166,4.177-14.833,6.6-4.187,2.176-4.559,1.43-7.057-2.153a12.464,12.464,0,0,0-3.885-3.966c-7.3-4.329-15.277-.243-21.494,4.024-5.12,3.519-15.579,7.342-17.807,13.678-2.607,7.423,4.465,10.238,10.332,7.8,4.527-1.887,8.551-5.571,13.789-4.692,6.956,1.167,7.9,7.429,9.151,13.124,1.167,5.305,6.771,10.5,11.4,5.15,2.111-2.445,2.046-5.305,1.725-8.344-.036-.334-.668-3.48-.9-5.519,1.025,1.475,3.8,3.155,4.469,3.583a20.212,20.212,0,0,0,21.289-.185c2.238-1.4,4.063-3.405,6.463-4.56,1.226-.587,2.581-.613,3.677-1.54A6.883,6.883,0,0,0,108.036,229.361Z" transform="translate(-23.728 -211.181)" fill="#e7f4fb"/>
        <path id="Path_221" data-name="Path 221" d="M104.783,215.12a15.051,15.051,0,0,1-.451,3.146,16.066,16.066,0,0,1-9.356,10.763,19.573,19.573,0,0,1-13.4-.182c-3.506-1.223-6.82-3.33-10.478-4.073a3.824,3.824,0,0,0-.934-.107c-.091,0-.493.023-.561.016a3.934,3.934,0,0,0-.425.12l-.062.029a.9.9,0,0,0-.156.107,1.373,1.373,0,0,1-.263.341c-.062.11-.126.22-.175.328a7.561,7.561,0,0,0-.386.992,20.337,20.337,0,0,0-.723,3.684c-.182,1.534-1.544,3.142-3.214,2.841-3.214-.577-4.962-3.5-6.307-6.191-1.268-2.533-2.4-5.419-4.683-7.225-2.513-1.985-5.711-1.813-8.59-.833-6.019,2.043-13.121,7.789-19.4,3.356a1.449,1.449,0,0,1-.5-1.343,9.2,9.2,0,0,0-.444,1.005c-2.607,7.423,4.465,10.238,10.332,7.8,4.527-1.887,8.551-5.571,13.789-4.692,6.956,1.167,7.9,7.429,9.151,13.124,1.167,5.305,6.771,10.5,11.4,5.15,2.111-2.445,2.046-5.305,1.725-8.344-.036-.334-.668-3.48-.9-5.519,1.025,1.475,3.8,3.155,4.469,3.583a20.212,20.212,0,0,0,21.289-.185c2.238-1.4,4.063-3.405,6.463-4.559,1.226-.587,2.581-.613,3.677-1.54a6.883,6.883,0,0,0,2.364-6.181A11.936,11.936,0,0,0,104.783,215.12Z" transform="translate(-23.728 -202.345)" fill="#daeef8"/>
      </g>
    </g>
  </g>
</svg>
