<svg width="219" height="77" viewBox="0 0 219 77" fill="none" xmlns="http://www.w3.org/2000/svg">
<path d="M83 73.8V73.6001C83 74.9001 81.8 75.9 80.5 75.7L80.7 75.8C82.2 76.1 83.8 76.2 85.3 76C84.1 76.1 83 75.1 83 73.8Z" fill="url(#paint0_linear_108_2231)"/>
<path d="M215.6 41L84.8001 51.6001C83.8001 51.8001 83.1001 52.7 83.1001 53.7V73.8999C83.1001 75.1999 84.2001 76.2 85.5001 76L217.9 61.3999L218 38.3999C218 39.6999 216.9 40.9 215.6 41Z" fill="#87C9E3"/>
<path d="M83.0001 53.6001C83.0001 53.5001 83.0001 53.3 83.0001 53.2C83.0001 53.1 83.0001 53.1 83.0001 53C83.0001 52.9 83.0001 52.9 83.1001 52.8C83.1001 52.7 83.2001 52.7001 83.2001 52.6001C83.2001 52.6001 83.2 52.5 83.3 52.5C83.3 52.4 83.4001 52.4 83.5001 52.3C83.5001 52.3 83.5001 52.3 83.6001 52.2C83.7001 52.1 83.7 52.1 83.8 52C83.9 51.9 84.0001 51.9 84.1001 51.8C84.4001 51.6 84.7001 51.5 85.0001 51.5L83.1001 51.7L81.7001 51.5C82.5001 51.8 83.1001 52.6 83.1001 53.5L83.0001 53.6001Z" fill="url(#paint1_linear_108_2231)"/>
<path d="M83.3001 51.7C83.2001 51.7 83.0001 51.7 82.9001 51.7L2.3001 38.6001C0.700099 38.3001 0.200096 36.3001 1.5001 35.3001L29.3001 15.1001C36.7001 9.80013 45.3001 6.40008 54.3001 5.30008L91.8001 0.899935C99.4001 -6.44922e-05 107.2 0.800131 114.5 3.10013L216.2 36.1001C217.2 36.4001 218 37.3001 218 38.3001C218.1 39.7001 217.1 40.7999 215.7 40.8999L83.3001 51.7Z" fill="#FDFEFF"/>
<path d="M82.9 52.8999C82.9 52.7999 82.9 52.7999 82.9 52.8999C82.8 52.5999 82.7 52.5 82.6 52.3C82.6 52.3 82.6 52.3 82.6 52.2C82.5 52 82.3 51.9 82.2001 51.8C82.0001 51.7 81.8 51.6 81.6 51.5L2.20004 38.6001C1.20004 38.4001 0.600035 37.6 0.700035 36.7V60.7L80.6 75.7C81.9 75.9 83.1 74.9001 83.1 73.6001V53.5C83 53.3 83 53.0999 82.9 52.8999Z" fill="#B8DBEE"/>
<defs>
<linearGradient id="paint0_linear_108_2231" x1="80.5219" y1="74.8497" x2="85.4099" y2="74.8497" gradientUnits="userSpaceOnUse">
<stop stop-color="#87C9E3"/>
<stop offset="1" stop-color="#B8DBEE"/>
</linearGradient>
<linearGradient id="paint1_linear_108_2231" x1="81.6157" y1="52.5508" x2="84.9785" y2="52.5508" gradientUnits="userSpaceOnUse">
<stop stop-color="#B8DBEE"/>
<stop offset="1" stop-color="#87C9E3"/>
</linearGradient>
</defs>
</svg>
