<svg width="447" height="1079" viewBox="0 0 447 1079" fill="none" xmlns="http://www.w3.org/2000/svg">
<g opacity="0.54">
<g opacity="0.54">
<path opacity="0.63" d="M253.583 371.2C249.311 371.753 246.296 375.665 246.849 379.937C247.402 384.209 251.314 387.224 255.586 386.671C259.858 386.118 262.873 382.207 262.32 377.934C261.767 373.662 257.855 370.647 253.583 371.2Z" fill="#B5B5B5"/>
<path opacity="0.69" d="M222.077 479.124C222.454 482.061 220.392 484.675 217.455 485.051C214.518 485.428 211.904 483.367 211.527 480.429C211.151 477.492 213.212 474.879 216.149 474.502C219.087 474.125 221.7 476.186 222.077 479.124Z" fill="#B5B5B5"/>
</g>
<g opacity="0.54">
<path opacity="0.54" d="M112.464 1067.9C112.98 1072.16 109.983 1076.05 105.718 1076.57C101.454 1077.08 97.5666 1074.09 97.0501 1069.82C96.5337 1065.56 99.5313 1061.67 103.795 1061.15C108.06 1060.64 111.947 1063.63 112.464 1067.9Z" fill="#B5B5B5"/>
<path opacity="0.54" d="M109.888 1024.79C110.265 1027.73 108.204 1030.34 105.266 1030.72C102.329 1031.09 99.7155 1029.03 99.3387 1026.09C98.9618 1023.16 101.023 1020.54 103.961 1020.17C106.803 1019.82 109.511 1021.85 109.888 1024.79Z" fill="#B5B5B5"/>
</g>
<g opacity="0.54">
<g opacity="0.4">
<g opacity="0.4">
<path opacity="0.4" d="M292.701 206.181C293.559 212.972 288.813 219.154 282.022 220.012C275.231 220.869 269.05 216.123 268.192 209.333C267.334 202.542 272.08 196.36 278.871 195.502C285.662 194.645 291.844 199.391 292.701 206.181Z" fill="#E4F4FE"/>
<path opacity="0.4" d="M293.08 206.052C292.157 199.072 285.815 194.169 278.835 195.092C271.856 196.015 266.953 202.356 267.876 209.336C268.799 216.316 275.14 221.218 282.12 220.296C287.584 219.578 291.876 215.456 292.931 210.227C293.14 208.992 293.252 207.473 293.08 206.052ZM268.603 209.297C267.716 202.728 272.4 196.673 279.001 195.881C280.328 195.741 281.72 195.791 282.956 196C287.835 196.964 291.765 201.005 292.385 206.185C293.272 212.754 288.588 218.809 281.987 219.601C275.418 220.488 269.457 215.772 268.603 209.297Z" fill="#EEF8FE"/>
</g>
<path opacity="0.6" d="M278.006 197.599C274.933 196.965 271.208 200.891 270.825 203.773C270.505 206.527 273.484 207.194 275.466 206.194C277.354 205.226 282.443 198.504 278.006 197.599Z" fill="white"/>
<path opacity="0.6" d="M273.02 208.305C272.698 207.676 272.098 207.777 271.69 208.128C271.188 208.513 270.751 209.086 270.663 209.751C270.509 210.227 270.45 210.671 270.519 211.176C270.522 211.492 270.619 211.776 270.812 212.027C270.942 212.405 271.323 212.591 271.701 212.461L271.796 212.428C272.331 212.138 272.706 211.692 272.921 211.089L272.983 210.962C273.107 210.708 273.293 210.326 273.29 210.01C273.316 209.472 273.31 208.84 273.02 208.305Z" fill="white"/>
</g>
</g>
<g opacity="0.54">
<g opacity="0.54">
<g opacity="0.54">
<path opacity="0.4" d="M179.689 755.609C180.546 762.4 175.801 768.582 169.01 769.44C162.219 770.297 156.037 765.551 155.179 758.76C154.322 751.97 159.068 745.788 165.859 744.93C172.649 744.073 178.831 748.818 179.689 755.609Z" fill="#E4F4FE"/>
<path opacity="0.54" d="M180.005 755.606C179.082 748.626 172.741 743.724 165.761 744.647C158.781 745.569 153.879 751.911 154.801 758.891C155.724 765.871 162.066 770.773 169.046 769.85C174.509 769.132 178.801 765.01 179.857 759.782C180.128 758.42 180.272 756.995 180.005 755.606ZM155.59 758.725C154.703 752.156 159.387 746.101 165.989 745.308C167.316 745.169 168.708 745.218 169.943 745.428C174.823 746.391 178.752 750.432 179.373 755.612C180.26 762.182 175.576 768.236 168.974 769.029C162.405 769.916 156.383 765.326 155.59 758.725Z" fill="#EEF8FE"/>
</g>
<path opacity="0.6" d="M164.994 747.026C161.92 746.392 158.196 750.319 157.813 753.2C157.492 755.955 160.471 756.621 162.454 755.621C164.342 754.654 169.43 747.931 164.994 747.026Z" fill="white"/>
<path opacity="0.6" d="M160.008 757.732C159.685 757.103 159.086 757.204 158.678 757.556C158.176 757.94 157.739 758.514 157.65 759.179C157.497 759.655 157.438 760.098 157.506 760.603C157.509 760.919 157.607 761.203 157.799 761.454C157.929 761.832 158.311 762.018 158.689 761.888L158.784 761.856C159.318 761.566 159.693 761.119 159.909 760.516L159.971 760.389C160.095 760.135 160.281 759.754 160.278 759.437C160.304 758.899 160.298 758.267 160.008 757.732Z" fill="white"/>
</g>
</g>
<g opacity="0.54">
<path opacity="0.6" d="M156.006 385.541C151.734 386.094 148.719 390.006 149.272 394.278C149.825 398.55 153.737 401.565 158.009 401.012C162.281 400.459 165.296 396.547 164.743 392.275C164.19 388.003 160.278 384.988 156.006 385.541Z" fill="#B5B5B5"/>
<path opacity="0.27" d="M335.635 4.22845C331.363 4.78145 328.348 8.69307 328.901 12.9653C329.454 17.2375 333.365 20.2525 337.637 19.6995C341.91 19.1465 344.925 15.2349 344.372 10.9627C343.819 6.69047 339.907 3.67545 335.635 4.22845Z" fill="#B5B5B5"/>
<path opacity="0.38" d="M207.066 92.0854C202.794 92.6384 199.779 96.55 200.332 100.822C200.885 105.094 204.796 108.109 209.068 107.556C213.341 107.003 216.356 103.092 215.803 98.8196C215.25 94.5474 211.338 91.5324 207.066 92.0854Z" fill="#B5B5B5"/>
<path opacity="0.5" d="M274.927 352.385C275.303 355.323 273.242 357.936 270.305 358.313C267.367 358.69 264.754 356.629 264.377 353.691C264 350.754 266.062 348.14 268.999 347.763C271.904 347.292 274.55 349.448 274.927 352.385Z" fill="#B5B5B5"/>
<path opacity="0.45" d="M195.139 297.893C195.516 300.831 193.454 303.444 190.517 303.821C187.579 304.198 184.966 302.136 184.589 299.199C184.212 296.262 186.274 293.648 189.211 293.271C192.116 292.8 194.762 294.956 195.139 297.893Z" fill="#B5B5B5"/>
</g>
<g opacity="0.54">
<path opacity="0.83" d="M226.935 533.003C222.662 533.556 219.647 537.468 220.2 541.74C220.753 546.012 224.665 549.027 228.937 548.474C233.21 547.921 236.225 544.01 235.672 539.738C235.119 535.465 231.207 532.45 226.935 533.003Z" fill="#B5B5B5"/>
<path opacity="0.54" d="M155.983 657.855C156.499 662.12 153.502 666.007 149.238 666.524C144.973 667.04 141.086 664.043 140.569 659.778C140.053 655.514 143.05 651.627 147.315 651.11C151.484 650.626 155.372 653.624 155.983 657.855Z" fill="#B5B5B5"/>
<path opacity="0.54" d="M98.3676 620.86C94.0953 621.413 91.0803 625.325 91.6333 629.597C92.1863 633.869 96.0979 636.884 100.37 636.331C104.642 635.778 107.657 631.867 107.104 627.595C106.551 623.322 102.64 620.307 98.3676 620.86Z" fill="#B5B5B5"/>
<path opacity="0.54" d="M166.217 881.086C166.594 884.023 164.533 886.636 161.595 887.013C158.658 887.39 156.044 885.329 155.668 882.391C155.291 879.454 157.352 876.841 160.289 876.464C163.132 876.119 165.84 878.148 166.217 881.086Z" fill="#B5B5B5"/>
<path opacity="0.54" d="M86.4291 826.593C86.8059 829.531 84.7445 832.144 81.8071 832.521C78.8698 832.898 76.2563 830.837 75.8794 827.899C75.5026 824.962 77.564 822.348 80.5014 821.971C83.3442 821.627 86.0522 823.656 86.4291 826.593Z" fill="#B5B5B5"/>
</g>
</g>
</svg>
