<svg width="377" height="1052" viewBox="0 0 377 1052" fill="none" xmlns="http://www.w3.org/2000/svg">
<g opacity="0.54">
<g opacity="0.54">
<path opacity="0.89" d="M263.581 580.366C265.8 584.045 264.676 588.768 260.998 590.986C257.32 593.204 252.597 592.081 250.378 588.403C248.16 584.725 249.284 580.002 252.962 577.783C256.64 575.565 261.363 576.688 263.581 580.366Z" fill="#B5B5B5"/>
<path opacity="0.78" d="M258.956 492.907C260.467 495.454 259.677 498.688 257.163 500.294C254.616 501.805 251.382 501.015 249.776 498.501C248.265 495.954 249.055 492.72 251.602 491.209C254.211 489.57 257.444 490.361 258.956 492.907Z" fill="#B5B5B5"/>
<path opacity="0.66" d="M163.881 475.724C165.393 478.271 164.603 481.504 162.088 483.11C159.542 484.622 156.308 483.832 154.702 481.317C153.191 478.771 153.981 475.537 156.528 474.026C159.137 472.387 162.37 473.178 163.881 475.724Z" fill="#B5B5B5"/>
</g>
<g opacity="0.54">
<path opacity="0.54" d="M284.431 872.97C280.757 875.22 279.602 880.022 281.852 883.696C284.101 887.37 288.903 888.525 292.577 886.275C296.251 884.025 297.406 879.223 295.156 875.549C292.906 871.876 288.104 870.721 284.431 872.97Z" fill="#B5B5B5"/>
<path opacity="0.54" d="M374.323 1014.18C375.834 1016.73 375.044 1019.96 372.53 1021.57C369.983 1023.08 366.75 1022.29 365.144 1019.77C363.632 1017.23 364.422 1013.99 366.969 1012.48C369.483 1010.88 372.844 1011.73 374.323 1014.18Z" fill="#B5B5B5"/>
<path opacity="0.54" d="M279.281 997.092C280.793 999.639 280.002 1002.87 277.488 1004.48C274.942 1005.99 271.708 1005.2 270.102 1002.69C268.591 1000.14 269.381 996.905 271.928 995.394C274.409 993.693 277.77 994.545 279.281 997.092Z" fill="#B5B5B5"/>
</g>
<g opacity="0.54">
<g opacity="0.55">
<g opacity="0.55">
<path opacity="0.4" d="M192.755 281.721C195.423 286.091 194.025 291.86 189.655 294.528C185.286 297.196 179.516 295.798 176.849 291.429C174.181 287.059 175.578 281.29 179.948 278.622C184.317 275.954 190.054 277.257 192.755 281.721C192.722 281.627 192.755 281.721 192.755 281.721Z" fill="#E4F4FE"/>
<path opacity="0.55" d="M193.006 281.529C190.273 276.971 184.409 275.605 179.85 278.338C175.292 281.071 173.926 286.935 176.659 291.494C179.392 296.053 185.351 297.385 189.815 294.685C193.399 292.499 195.034 288.34 194.11 284.428C193.879 283.45 193.553 282.504 193.006 281.529ZM177.1 291.237C174.464 286.962 175.833 281.414 180.108 278.779C184.382 276.143 189.93 277.512 192.566 281.787C195.201 286.061 193.833 291.609 189.558 294.245C185.283 296.88 179.735 295.512 177.1 291.237Z" fill="#EEF8FE"/>
</g>
<path opacity="0.6" d="M179.996 280.298C177.724 280.763 176.34 284.73 176.929 286.748C177.518 288.766 179.79 288.301 180.854 287.089C181.884 285.782 183.341 279.569 179.996 280.298Z" fill="white"/>
<path opacity="0.6" d="M179.8 289.249C179.353 288.874 179.008 289.099 178.727 289.513C178.447 289.927 178.42 290.465 178.489 290.97C178.524 291.381 178.622 291.664 178.847 292.01C179.006 292.167 179.071 292.356 179.326 292.48C179.518 292.731 179.834 292.728 180.085 292.535C180.085 292.535 180.085 292.535 180.18 292.503C180.493 292.184 180.552 291.74 180.578 291.202L180.545 291.108C180.575 290.886 180.572 290.57 180.507 290.381C180.438 289.875 180.214 289.53 179.8 289.249Z" fill="white"/>
</g>
<g opacity="0.53">
<g opacity="0.53">
<path opacity="0.4" d="M118.654 205.578C122.253 211.425 120.398 218.938 114.552 222.538C108.705 226.137 101.192 224.282 97.5921 218.436C93.9926 212.589 95.8475 205.076 101.694 201.476C107.446 197.909 115.054 199.732 118.654 205.578Z" fill="#E4F4FE"/>
<path opacity="0.53" d="M118.905 205.386C115.273 199.445 107.411 197.498 101.502 201.225C95.5608 204.857 93.6144 212.719 97.3411 218.628C100.973 224.569 108.835 226.515 114.744 222.789C120.685 219.157 122.537 211.327 118.905 205.386ZM97.9378 218.211C94.4979 212.521 96.1964 205.167 101.886 201.727C103.018 201.02 104.342 200.565 105.509 200.268C110.337 199.24 115.575 201.244 118.275 205.708C121.715 211.398 120.017 218.752 114.327 222.192C108.764 225.694 101.378 223.901 97.9378 218.211Z" fill="#EEF8FE"/>
</g>
<path opacity="0.6" d="M101.716 203.69C98.6546 204.321 96.8398 209.493 97.6569 212.173C98.4739 214.853 101.535 214.222 102.879 212.596C104.223 210.97 106.166 202.792 101.716 203.69Z" fill="white"/>
<path opacity="0.6" d="M101.548 215.487C100.974 215.05 100.439 215.34 100.191 215.848C99.8489 216.389 99.7606 217.054 99.894 217.749C99.9622 218.254 100.125 218.727 100.288 219.2C100.48 219.451 100.672 219.702 100.926 219.826C101.246 220.139 101.657 220.103 102.002 219.878L102.097 219.846C102.472 219.399 102.687 218.796 102.586 218.197C102.554 218.102 102.554 218.102 102.554 218.102C102.551 217.786 102.548 217.47 102.512 217.059C102.317 216.492 102.027 215.957 101.548 215.487Z" fill="white"/>
</g>
</g>
<g opacity="0.54">
<g opacity="0.54">
<g opacity="0.54">
<path opacity="0.4" d="M288.564 753.911C290.043 756.363 289.315 759.469 286.863 760.948C284.41 762.427 281.304 761.699 279.825 759.246C278.346 756.794 279.075 753.688 281.527 752.209C283.979 750.73 287.085 751.459 288.564 753.911Z" fill="#E4F4FE"/>
<path opacity="0.54" d="M288.721 753.751C287.242 751.299 284.008 750.508 281.462 752.02C279.009 753.499 278.219 756.732 279.731 759.279C281.209 761.731 284.443 762.521 286.99 761.01C289.442 759.531 290.232 756.297 288.721 753.751ZM280.014 759.181C278.568 756.824 279.329 753.812 281.686 752.365C282.221 752.076 282.694 751.913 283.167 751.75C285.123 751.288 287.313 752.12 288.502 754.038C289.948 756.395 289.188 759.407 286.83 760.853C284.44 762.205 281.428 761.444 280.014 759.181Z" fill="#EEF8FE"/>
</g>
<path opacity="0.6" d="M281.536 753.158C280.274 753.486 279.504 755.55 279.895 756.684C280.253 757.724 281.453 757.523 282.079 756.884C282.578 756.183 283.398 752.728 281.536 753.158Z" fill="white"/>
<path opacity="0.6" d="M281.521 758.028C281.234 757.809 281.078 757.969 280.954 758.223C280.83 758.478 280.8 758.699 280.803 759.015C280.868 759.204 280.839 759.426 280.999 759.583C281.031 759.677 281.158 759.739 281.191 759.834C281.35 759.99 281.445 759.958 281.634 759.893C281.791 759.733 281.915 759.479 281.817 759.195C281.879 759.068 281.814 758.879 281.781 758.784C281.778 758.468 281.681 758.184 281.521 758.028Z" fill="white"/>
</g>
</g>
<g opacity="0.54">
<path opacity="0.45" d="M76.9635 10.885C73.2896 13.1346 72.1349 17.9366 74.3845 21.6105C76.6341 25.2844 81.436 26.4391 85.11 24.1895C88.7839 21.9399 89.9386 17.1379 87.689 13.464C85.4394 9.79007 80.6374 8.63543 76.9635 10.885Z" fill="#B5B5B5"/>
<path opacity="0.6" d="M121.242 339.574C123.461 343.252 122.337 347.975 118.659 350.193C114.981 352.412 110.258 351.288 108.039 347.61C105.821 343.932 106.945 339.209 110.623 336.99C114.174 334.71 119.024 335.896 121.242 339.574Z" fill="#B5B5B5"/>
<path opacity="0.46" d="M142.761 119.794C144.98 123.472 143.856 128.195 140.178 130.414C136.5 132.632 131.777 131.508 129.559 127.83C127.34 124.152 128.464 119.429 132.142 117.211C135.693 114.93 140.449 116.148 142.761 119.794Z" fill="#B5B5B5"/>
</g>
<g opacity="0.54">
<path opacity="0.54" d="M222.33 796.4C224.549 800.078 223.425 804.801 219.747 807.019C216.069 809.238 211.346 808.114 209.128 804.436C206.909 800.758 208.033 796.035 211.711 793.816C215.294 791.631 220.112 792.722 222.33 796.4Z" fill="#B5B5B5"/>
<path opacity="0.54" d="M246.85 669.186C249.068 672.864 247.944 677.588 244.266 679.806C240.588 682.024 235.865 680.901 233.647 677.223C231.428 673.544 232.552 668.821 236.23 666.603C239.908 664.385 244.631 665.508 246.85 669.186Z" fill="#B5B5B5"/>
</g>
</g>
</svg>
