<svg width="1920" height="1130" viewBox="0 0 1920 1130" fill="none" xmlns="http://www.w3.org/2000/svg">
<path d="M1920 0H0V651H1920V0Z" fill="url(#paint0_linear_108_2580)"/>
<path d="M1920 830H0V1130H1920V830Z" fill="url(#paint1_linear_108_2580)"/>
<path d="M201 944L318 924L399.1 939H472.1L560.1 998H367L201 944Z" fill="#FBFDFF"/>
<path d="M201 944V1001.8L365 1037L367 998L201 944Z" fill="#BFE1EF"/>
<path d="M365 1037L556 1023L560 998H367L365 1037Z" fill="#85CEEC"/>
<path d="M754 1022L784 1001L828 995L917 1023.9L815 1032L754 1022Z" fill="#FBFDFF"/>
<path d="M754 1022V1037.4L813 1049L815 1032L754 1022Z" fill="#B8DBED"/>
<path d="M813 1049L917 1038V1023.9L815 1032L813 1049Z" fill="#87C9E2"/>
<path d="M401.477 651H0.0770264V411.1L38.977 472.5L137.277 512.8L236.877 590.7L264.277 612.2L401.477 651Z" fill="#EEFAFD"/>
<path d="M73.5771 597.7L19.4771 651H148.377L73.5771 597.7Z" fill="#E6F5FA"/>
<path d="M137.277 512.8L54.077 518.6L84.077 544.3L101.377 527.8H126.277L236.977 590.7L137.277 512.8Z" fill="#E6F5FA"/>
<path d="M264.277 612.2L314.677 651H401.477L264.277 612.2Z" fill="#E6F5FA"/>
<path d="M53.9771 544.3L73.5771 597.6L148.477 650.9L53.9771 544.3Z" fill="#BBE4F1"/>
<path d="M1919.95 344.9V651H1581.95L1647.45 511L1798.05 466.5L1919.95 344.9Z" fill="#EEFAFE"/>
<path d="M1919.95 588.8V651H1823.45L1919.95 588.8Z" fill="#BBE4F1"/>
<path d="M1798.05 466.5L1723.25 561.2V627.7L1581.95 651H1823.45L1794.25 587.1L1798.05 466.5Z" fill="#E6F5FA"/>
<path d="M1647.45 511V640.2L1581.95 651L1647.45 511Z" fill="#BBE4F1"/>
<path d="M1003 975L1069 965L1068 883L1009 896L1003 975Z" fill="url(#paint2_linear_108_2580)"/>
<path opacity="0.08" d="M1003 975L1069 965L1068 883L1009 896L1003 975Z" fill="url(#paint3_linear_108_2580)"/>
<path d="M285 903L0 929.4V838.8L284 815V815.3L285 903Z" fill="#9BD6EA"/>
<path d="M285 903L522 905L521 818L284 815L285 903Z" fill="#E6F5FA"/>
<path d="M560 801L559 883L685 866L686 803L560 801Z" fill="#E6F5FA"/>
<path d="M522 905L559.1 883L560.1 801L521 818L522 905Z" fill="#BBE4F1"/>
<path d="M685 866L909 849L908 815.9V796L686 803L685 866Z" fill="#9BD6EA"/>
<path d="M908 815.9V865.3L925 935L1003 975L1009 896L908 815.9Z" fill="#BBE4F1"/>
<path d="M908 815.9V865.3L925 935L1003 975L1009 896L908 815.9Z" fill="#BBE4F1"/>
<path d="M1068 883L1069 965L1130 963L1126 918L1068 883Z" fill="#9BD6EA"/>
<path opacity="0.08" d="M1068 883L1069 965L1130 963L1126 918L1068 883Z" fill="url(#paint4_linear_108_2580)"/>
<path d="M1126 918L1130 963L1270 1021L1284 963L1126 918Z" fill="#BBE4F1"/>
<path opacity="0.11" d="M1126 918L1130 963L1270 1021L1284 963L1126 918Z" fill="url(#paint5_linear_108_2580)"/>
<path d="M1270 1021L1364.2 1004L1357.2 956L1284 963L1270 1021Z" fill="#9BD6EA"/>
<path opacity="0.11" d="M1270 1021L1364.2 1004L1357.2 956L1284 963L1270 1021Z" fill="url(#paint6_linear_108_2580)"/>
<path d="M1357 956L1364 1004L1585.1 1021L1582.1 969L1357 956Z" fill="#BBE4F1"/>
<path opacity="0.17" d="M1357 956L1364 1004L1585.1 1021L1582.1 969L1357 956Z" fill="url(#paint7_linear_108_2580)"/>
<path d="M1585 1021L1700 995L1818 958L1582 969L1585 1021Z" fill="#9BD6EA"/>
<path d="M1700 995V1037.2L1920 1037V998L1700 995Z" fill="#E6F5FA"/>
<path opacity="0.17" d="M1700 995V1037.2L1920 1037V999L1700 995Z" fill="url(#paint8_linear_108_2580)"/>
<path opacity="0.17" d="M1585 1021L1700 995L1817.8 958.1L1582.1 969.3L1585 1021Z" fill="url(#paint9_linear_108_2580)"/>
<path opacity="0.17" d="M685 866L908 849.1V815.9L686 803L685 866Z" fill="url(#paint10_linear_108_2580)"/>
<path opacity="0.17" d="M560 801L559 883L685 866L686 803L560 801Z" fill="url(#paint11_linear_108_2580)"/>
<path opacity="0.17" d="M522 905L559.1 883L560.1 801L521 818L522 905Z" fill="url(#paint12_linear_108_2580)"/>
<path opacity="0.17" d="M285 903L522 905L521 818L284 815L285 903Z" fill="url(#paint13_linear_108_2580)"/>
<path opacity="0.17" d="M285 903L0 929.4V838.8L284 815V815.3L285 903Z" fill="url(#paint14_linear_108_2580)"/>
<path d="M1920 651V997.9V999L1700.1 995H1699.9H1699.8L1817.8 958.1L1582.1 969.3L1357.1 956.1L1284.1 963.2H1284L1283.9 963.1L1126.1 918.1H1126L1068.1 883.2L1068 883.1L1009.1 896.2L1009 896.1L908.1 816.2L908 816.1L686 803.1L560.1 801.2H560L521.1 818.3H521L284 815.3H283.9L0 839.6V651H1920Z" fill="url(#paint15_linear_108_2580)"/>
<path d="M373.483 747.741L375.283 700.841C390.683 518.041 579.483 518.441 579.483 518.441C789.283 519.141 803.983 675.341 799.583 747.941C799.083 756.741 798.183 764.441 797.383 770.341C747.783 774.541 671.183 777.241 585.283 777.241C498.983 777.241 422.183 774.541 372.683 770.341L373.483 747.741Z" fill="#A2DEF9"/>
<path d="M373.483 747.741L375.283 700.841C390.683 518.041 579.483 518.441 579.483 518.441C789.283 519.141 803.983 675.341 799.583 747.941C799.083 756.741 798.183 764.441 797.383 770.341C747.783 774.541 671.183 777.241 585.283 777.241C498.983 777.241 422.183 774.541 372.683 770.341L373.483 747.741Z" fill="#D8F0F6"/>
<g opacity="0.4">
<path opacity="0.4" d="M373.483 747.756L375.283 700.856C387.783 551.756 515.583 524.556 562.383 519.556C553.283 523.356 544.883 528.356 537.283 534.556L580.083 545.456L534.283 544.556C522.483 548.956 508.083 571.656 508.083 571.656L522.883 542.456L514.983 543.356C498.383 550.756 472.683 586.556 472.683 586.556L507.583 591.756C501.083 599.656 494.483 627.956 494.483 627.956L555.583 636.656L492.783 635.756L486.283 675.056L532.983 685.556L437.383 686.856L435.183 732.656L478.483 736.156L482.683 767.156C493.983 768.856 582.583 770.656 582.583 770.656L587.783 745.456L589.483 770.556H640.083L641.783 743.956L587.683 738.056L646.183 733.556C646.183 733.556 644.883 689.456 679.383 668.056C713.883 646.656 772.783 658.856 782.783 658.856C787.883 658.856 788.883 653.456 788.483 648.256C799.983 684.856 800.883 721.656 799.283 747.756C798.783 756.556 797.883 764.156 797.083 770.156C747.483 774.356 670.883 777.056 584.983 777.056C498.683 777.056 421.883 774.356 372.383 770.156L373.483 747.756Z" fill="#B5DFF2"/>
</g>
<path d="M652.455 777.256C652.255 760.856 653.555 719.056 670.955 690.156C683.655 669.156 700.855 664.256 713.255 663.956L782.355 664.056L783.155 777.156H652.455V777.256Z" fill="#BFE7FB"/>
<path d="M652.455 777.256C652.255 760.856 653.555 719.056 670.955 690.156C683.655 669.156 700.855 664.256 713.255 663.956L782.355 664.056L783.155 777.156H652.455V777.256Z" fill="#CAEBF5"/>
<path opacity="0.5" d="M670.955 690.156C680.455 674.456 692.455 667.756 703.055 665.256C702.355 665.556 701.555 665.856 700.855 666.156C698.155 667.256 695.555 668.756 693.155 670.456C690.955 672.256 688.955 674.356 687.255 676.656C685.855 678.356 684.555 680.056 683.355 681.856C682.555 683.056 681.155 685.056 681.555 686.656C681.855 688.056 683.555 688.356 684.755 688.656C685.355 688.856 686.055 688.956 686.755 689.056C685.155 688.956 683.455 689.056 681.955 689.456C679.555 690.156 678.355 692.256 677.455 694.456C673.455 704.056 671.355 714.256 669.555 724.456C669.555 724.656 669.555 724.856 669.755 724.956C673.655 727.156 677.855 728.456 682.055 729.956C679.355 729.456 675.055 730.556 672.355 731.856C669.455 733.256 670.455 734.556 669.855 737.556C668.355 745.256 666.555 753.656 667.855 761.556C668.355 764.656 703.055 769.856 703.755 767.156C705.055 762.156 706.555 757.256 708.155 752.256C709.955 746.856 711.655 741.356 711.955 735.656C711.955 735.456 711.855 735.256 711.655 735.256C707.455 733.956 702.455 734.156 698.655 731.856C701.955 731.256 705.355 731.856 708.655 731.956C711.155 732.056 714.855 732.356 716.955 730.856C718.755 729.556 719.555 727.156 720.255 725.156C721.155 722.356 721.755 719.456 722.455 716.556C723.355 712.756 725.155 709.156 726.355 705.356C727.055 703.356 727.555 701.256 728.255 699.256C728.555 698.656 728.755 697.956 728.655 697.256C728.255 695.456 725.155 694.156 723.755 693.456C721.055 692.356 718.155 691.856 715.255 691.056C721.055 689.156 727.755 692.256 733.355 689.256C735.855 687.956 737.455 685.856 739.155 683.756C741.255 681.356 743.555 679.056 746.055 677.156C754.255 670.756 764.355 665.756 774.855 664.056H782.255L783.055 777.156H652.455C652.255 760.856 653.555 719.056 670.955 690.156Z" fill="#B5DFF2"/>
<path d="M718.755 777.256C718.555 760.856 719.855 719.056 737.255 690.156C759.355 653.456 795.255 666.056 795.255 666.056C834.355 682.356 837.655 742.356 834.655 777.256H718.755Z" fill="#D8F0F6"/>
<path d="M803.355 670.956C794.055 666.456 784.055 664.956 774.055 667.656C762.655 670.756 753.455 677.256 746.155 686.456C739.155 695.356 734.655 705.856 731.355 716.556C727.455 729.356 724.155 742.256 721.655 755.456C720.355 761.956 719.455 768.356 718.855 774.856C718.755 757.056 720.655 717.756 737.355 690.156C759.455 653.456 795.355 666.056 795.355 666.056C799.655 667.856 803.655 670.256 807.255 673.156C805.955 672.256 804.655 671.556 803.355 670.956Z" fill="#A2DEF9"/>
<path d="M741.855 777.256C741.655 765.056 742.555 733.856 754.355 712.356C769.255 685.056 793.355 694.356 793.355 694.356C819.655 706.456 821.855 751.256 819.855 777.256H741.855Z" fill="#A2DEF9"/>
<path d="M742.655 777.256C742.555 765.256 743.355 734.756 754.855 713.656C769.455 686.856 793.055 696.056 793.055 696.056C818.755 707.956 820.955 751.756 818.955 777.256H742.655Z" fill="#93C4D6"/>
<path opacity="0.6" d="M684.901 687.856C689.301 675.856 699.401 666.756 711.901 663.756L716.801 664.256C697.801 666.556 684.901 687.856 684.901 687.856Z" fill="#A2DEF9"/>
<path opacity="0.6" d="M666.701 730.056C661.201 728.756 658.001 727.756 658.001 727.756L689.501 729.956C690.201 716.756 693.401 703.856 698.901 691.856C681.301 690.456 672.501 687.256 672.501 687.256L724.501 690.756C729.501 677.256 740.901 667.156 754.901 663.756L760.401 664.356C740.301 666.756 726.301 687.856 724.501 690.756L738.301 691.656C726.301 692.656 714.301 692.856 702.301 692.156C695.401 703.156 691.101 723.356 689.801 729.956L724.601 732.356C721.401 732.956 718.301 733.356 715.101 733.556L704.801 775.356C705.701 761.356 707.801 747.456 711.101 733.856C697.201 734.556 683.201 733.456 669.601 730.556L661.801 762.456C662.501 751.456 664.101 740.656 666.701 730.056Z" fill="#A2DEF9"/>
<path d="M834.083 762.041L820.383 762.641V759.341L834.083 762.041Z" fill="#A2DEF9"/>
<path d="M831.983 733.641L819.183 738.541L818.083 735.341L831.983 733.641Z" fill="#A2DEF9"/>
<path d="M822.683 694.041L808.483 708.841L809.983 711.041L822.683 694.041Z" fill="#A2DEF9"/>
<path d="M790.383 667.641L789.683 693.341L786.183 692.641L790.383 667.641Z" fill="#A2DEF9"/>
<path d="M765.283 699.541L762.683 701.941L749.983 686.641L765.283 699.541Z" fill="#A2DEF9"/>
<path d="M748.683 726.841L747.883 729.241L730.383 722.441L748.683 726.841Z" fill="#A2DEF9"/>
<path d="M742.583 756.841L742.383 759.341L723.783 756.941L742.583 756.841Z" fill="#A2DEF9"/>
<path opacity="0.5" d="M815.683 685.241C817.483 687.341 819.083 689.541 820.483 691.941C818.583 694.541 816.483 697.141 814.483 699.641C808.483 688.341 803.383 673.741 790.383 667.641C790.383 667.641 801.683 669.241 815.683 685.241Z" fill="#5BCBF5"/>
<path opacity="0.5" d="M824.883 732.941C823.583 723.841 821.083 714.941 817.583 706.441C819.883 704.341 822.183 702.041 824.283 699.741C828.183 708.941 830.683 719.741 832.083 730.641C829.883 731.541 827.383 732.241 824.883 732.941Z" fill="#5BCBF5"/>
<path opacity="0.5" d="M826.783 759.041C826.883 752.441 826.483 745.741 825.783 739.141C828.183 738.541 830.583 737.841 832.983 737.241C833.683 744.941 833.983 752.741 833.783 760.441C831.383 760.141 829.083 759.741 826.783 759.041Z" fill="#5BCBF5"/>
<path opacity="0.5" d="M833.483 765.741C833.283 769.441 832.983 772.941 832.583 776.141L825.883 775.241C825.883 775.241 826.383 771.341 826.683 764.941C828.883 765.141 831.183 765.441 833.483 765.741Z" fill="#5BCBF5"/>
<path d="M377.147 725.015C376.547 724.915 376.247 724.815 376.247 724.815L377.147 725.015Z" fill="#5BCBF5"/>
<path d="M434.947 582.715C433.947 582.515 433.447 582.415 433.447 582.415L434.947 582.715Z" fill="#5BCBF5"/>
<path d="M473.647 737.715C440.647 735.415 407.147 731.515 377.147 725.015C380.547 725.715 393.947 728.315 420.947 730.915C419.847 707.215 421.147 684.215 421.447 679.015C409.347 677.315 397.547 675.215 386.347 672.815C386.347 672.815 457.047 684.615 663.447 682.015C663.447 682.015 657.147 682.615 646.147 683.315L643.947 726.715L640.147 683.715C616.847 685.215 578.447 687.015 535.247 686.615L532.547 728.015L530.447 686.615C497.047 686.115 460.947 684.315 427.047 679.815C423.547 692.315 421.547 724.615 421.147 730.915C462.247 735.015 534.847 739.315 651.247 737.915C651.247 737.915 626.747 739.615 590.247 740.315L588.847 776.915L586.647 740.415C556.147 740.915 517.847 740.615 478.547 738.115L477.147 774.415L473.647 737.715Z" fill="#5BCBF5"/>
<path d="M739.347 625.515C739.347 625.515 725.347 594.515 718.647 586.815C700.047 588.615 670.547 591.015 635.847 592.415C636.947 598.015 640.347 616.015 639.647 632.315C639.647 632.315 635.647 603.715 631.247 592.615C604.247 593.615 574.347 594.115 543.947 593.215L537.047 631.815L538.947 593.115C511.047 592.315 483.247 590.015 455.647 586.215C453.947 589.215 441.547 611.415 436.347 627.215C436.347 627.215 440.947 602.715 451.147 585.615C445.647 584.815 440.247 583.815 434.947 582.915C437.347 583.315 442.647 584.215 451.347 585.215L451.447 585.115L452.747 585.415C488.247 589.415 589.147 594.515 753.347 583.915C753.347 583.915 734.847 585.415 725.847 586.315C727.047 588.315 735.947 607.315 739.347 625.515Z" fill="#5BCBF5"/>
<path d="M676.047 582.815C676.047 582.815 662.247 553.215 652.747 543.315C635.647 544.815 613.847 546.315 590.347 546.615L588.147 586.015L587.047 546.615C566.147 546.915 545.147 546.015 524.347 543.915C519.947 549.015 505.647 566.515 500.547 581.015C500.547 581.015 507.447 555.815 518.747 543.215C509.147 542.015 499.647 540.515 490.647 538.615C490.647 538.615 542.647 548.415 688.747 539.215C688.747 539.215 676.347 541.015 656.847 542.915C665.647 554.915 672.147 568.415 676.047 582.815Z" fill="#5BCBF5"/>
<path d="M605.047 519.315L608.347 519.415C608.347 519.415 617.047 530.115 620.247 541.215C620.347 541.315 611.347 525.115 605.047 519.315Z" fill="#5BCBF5"/>
<path d="M555.347 541.315C558.547 530.215 567.447 519.115 567.447 519.115L570.947 518.815C564.647 524.615 555.347 541.315 555.347 541.315Z" fill="#5BCBF5"/>
<path d="M590.147 638.415L588.747 675.715L586.447 638.415C554.347 638.615 520.647 638.015 487.647 635.815C486.147 639.915 482.347 651.915 479.047 676.915C479.047 676.915 480.047 648.415 483.047 635.515C468.547 634.515 454.147 633.115 440.047 631.515C428.247 630.415 412.247 628.215 404.247 627.715C402.547 627.615 400.847 627.615 399.147 627.815C396.347 633.415 388.647 650.415 386.147 667.715C386.147 667.715 389.647 643.215 396.347 628.315C395.447 628.515 394.647 629.015 394.047 629.615L396.847 623.315C404.747 624.915 428.847 628.515 438.847 629.915C491.847 634.615 606.047 639.015 780.847 627.815C780.847 627.815 740.147 631.515 692.047 634.515C692.747 637.715 696.247 655.515 695.647 667.615L686.947 634.815C658.947 636.615 625.547 638.015 590.147 638.415Z" fill="#5BCBF5"/>
<path d="M814.783 760.341L751.083 758.341C751.083 758.341 789.483 764.141 814.783 760.341Z" fill="#93C4D6"/>
<path d="M812.183 737.941L749.883 736.141C749.883 736.141 787.483 741.241 812.183 737.941Z" fill="#93C4D6"/>
<path d="M806.683 711.141L761.883 709.941C776.683 712.341 791.783 712.741 806.683 711.141Z" fill="#93C4D6"/>
<path d="M794.283 711.341C798.883 719.341 801.283 728.441 801.283 737.641C801.283 737.641 803.583 720.641 797.183 711.441L794.283 711.341Z" fill="#93C4D6"/>
<path d="M763.783 710.441C768.383 718.441 770.783 727.541 770.783 736.741C770.783 736.741 773.083 719.741 766.683 710.541L763.783 710.441Z" fill="#93C4D6"/>
<path d="M782.683 710.741C782.683 710.741 778.283 699.841 773.083 696.441C773.083 696.441 779.183 703.441 780.183 710.741H782.683Z" fill="#93C4D6"/>
<path d="M787.583 738.341C788.183 745.741 788.183 753.141 787.583 760.641L785.683 738.241L787.583 738.341Z" fill="#93C4D6"/>
<path d="M802.283 761.241L802.683 775.641C802.683 775.641 805.483 761.141 804.983 760.941C804.183 760.941 803.183 761.041 802.283 761.241Z" fill="#93C4D6"/>
<path d="M769.183 759.941L769.583 775.641C769.583 775.641 772.383 759.841 771.883 759.641C770.983 759.641 770.083 759.741 769.183 759.941Z" fill="#93C4D6"/>
<path d="M754.783 736.241C754.783 736.641 757.283 749.941 757.183 758.341C757.183 758.341 758.783 743.241 757.883 736.541L754.783 736.241Z" fill="#93C4D6"/>
<path d="M754.84 713.982C766.64 692.282 784.34 693.982 790.74 695.482C783.84 695.682 775.54 697.182 770.34 702.582L769.44 707.782L790.34 710.682L771.74 712.682C771.74 712.682 775.84 726.682 775.84 734.182L801.24 737.682L777.84 739.182C777.84 739.182 779.04 751.682 778.74 756.882L806.64 760.382L779.64 762.082L780.54 772.282L799.94 771.382L805.14 765.582V772.882L814.64 771.682C817.54 755.582 817.44 739.082 814.14 723.082C820.04 740.682 820.24 762.482 819.04 777.882H742.64C742.54 765.782 743.34 735.082 754.84 713.982Z" fill="#93C4D6"/>
<g opacity="0.4">
<path opacity="0.4" d="M373.483 747.718L375.283 700.818C384.783 587.418 461.083 544.518 517.583 528.318C509.983 532.518 507.983 536.318 507.983 536.318L520.683 542.418L496.283 540.218C477.983 545.418 449.183 579.018 449.183 579.018L463.983 586.418C463.083 586.018 453.983 586.418 453.983 586.418L438.683 627.418L462.283 633.918L420.783 636.518L412.883 666.218L465.683 680.218L425.083 679.318L419.883 695.018L412.483 678.418L405.983 726.018L427.383 733.018L406.483 730.818L404.283 766.618C429.183 770.518 470.583 771.018 470.583 771.018L475.783 750.518L479.683 775.718C437.383 774.618 400.583 772.718 372.583 770.318L373.483 747.718Z" fill="#B5DFF2"/>
</g>
<path opacity="0.2" d="M1366.73 841.497C1366.12 853.179 1298.3 859.204 1215.13 854.89C1132.06 850.58 1065.1 837.531 1065.71 825.85C1066.32 814.169 1134.15 808.143 1217.32 812.457C1300.48 816.771 1367.34 829.816 1366.73 841.497Z" fill="#9BD6EA"/>
<path d="M1238.87 668.379L1240.98 668.053L1241.38 667.967L1241.79 667.882C1249.03 666.735 1256.18 665.385 1263.41 664.438C1297.78 659.941 1331.97 680.243 1344.65 712.395C1345.29 714.117 1346.03 715.744 1346.67 717.467C1346.93 718.776 1347.08 719.982 1347.34 721.291C1346.3 722.355 1345.26 723.519 1344.22 724.582L1348.73 727.341C1349.16 729.256 1349.69 731.176 1350.13 733.091C1351.33 747.237 1350.74 761.319 1346.16 774.962C1342.69 785.443 1344.48 794.207 1353.24 801.316C1354.89 802.674 1356.44 804.228 1357.99 805.683C1357.41 807.763 1357.43 810.164 1356.27 811.824C1349.07 823.175 1340.07 831.661 1325.14 829.538C1324.7 827.822 1324.78 825.524 1323.62 824.583C1312.91 816.006 1302 807.622 1291.1 799.139L1282.41 792.933C1276.94 789.44 1271.8 784.659 1265.77 782.648C1239.96 774.242 1213.72 766.521 1187.5 758.501C1186.61 758.269 1185.6 758.434 1183.2 758.35L1189.09 772.96C1192.64 783.186 1196.38 793.419 1199.72 803.739C1203.24 814.664 1198.13 823.288 1191.26 831.149L1155.44 825.593C1159.95 822.55 1160.38 818.864 1157.84 814.174C1154.45 808.154 1151.47 801.948 1148.28 795.835C1146.49 792.872 1144.9 789.715 1142.9 786.845C1135.65 776.689 1128.3 766.629 1120.95 756.569C1119 755.2 1117.27 753.139 1115.09 752.563C1101.62 748.79 1088.89 743.943 1077.28 735.535C1071.62 731.436 1064.09 729.371 1057.15 727.628C1045.75 724.728 1034.12 722.72 1022.6 720.316C1020.02 719.725 1017.55 718.839 1014.98 718.048C1014.6 711.734 1014.12 705.416 1013.74 699.201L1016.89 697.711L1020.84 696.249C1025.21 694.401 1028.02 691.199 1031.32 688.314C1031.73 688.128 1031.83 688.132 1032.24 687.946L1033.15 687.578L1038.22 685.555L1042.28 683.897L1045.32 682.903L1070.38 678.38C1074.59 680.828 1078.71 683.373 1083.03 685.525C1086.57 687.249 1088.73 691.426 1085.92 694.528C1080.19 700.929 1085.58 706.919 1085.26 713.209C1086.6 712.056 1087.66 710.493 1088.41 708.919C1093.08 698.58 1093.69 686.798 1090.17 675.973C1105.52 671.809 1121.04 668.352 1136.12 663.379C1149.38 658.943 1161.21 661.058 1172.88 667.468L1184.05 691.265L1197.84 671.643L1223.8 670.252L1238.87 668.379ZM1134.21 686.518C1120.47 690.337 1110.84 722.607 1120.19 732.637C1124.83 717.396 1129.57 701.859 1134.21 686.518ZM1270.47 765.708L1272.76 765.789C1273.11 764.6 1273.35 763.409 1273.59 762.217C1275.52 752.782 1277.35 743.444 1279.38 734.013C1279.86 731.63 1281.14 729.274 1281.43 726.883C1281.68 725.492 1281.16 723.073 1280.18 722.639C1278.69 722.187 1276.98 722.627 1275.84 723.687C1274.06 725.925 1272.16 728.659 1271.57 731.339C1270.24 737.794 1269.41 744.466 1269.08 751.056C1268.9 756.051 1269.93 760.889 1270.47 765.708ZM1078.48 695.668L1081.26 696.065C1081.64 693.878 1081.92 691.687 1082.29 689.5L1079.31 689.095L1078.48 695.668Z" fill="#F8F8F8"/>
<path d="M1189.1 772.86L1183.21 758.25C1185.7 758.338 1186.71 758.173 1187.5 758.401C1213.73 766.421 1239.96 774.242 1265.97 782.755C1272 784.766 1277.03 789.544 1282.61 793.04C1273.44 789.318 1263.92 786.884 1254.02 787.037C1232.05 785.867 1210.66 782.517 1190.6 772.912C1190.1 772.895 1189.6 772.777 1189.1 772.86Z" fill="#E4E5E7"/>
<path d="M1139.28 810.223C1138.39 812.792 1137.49 815.462 1136.6 818.031L1099.65 813.636L1115.96 779.199C1118.53 782.99 1120.99 786.877 1123.76 790.575C1128.73 797.251 1134 803.737 1139.28 810.223Z" fill="#E4E5E7"/>
<path d="M1139.28 810.223C1134.11 803.64 1128.83 797.254 1123.76 790.575C1120.99 786.977 1118.53 782.99 1115.96 779.199C1117.63 771.556 1119.29 764.013 1121.06 756.373C1128.41 766.432 1135.76 776.492 1143 786.648C1145 789.519 1146.6 792.575 1148.39 795.639L1139.28 810.223Z" fill="#D1D2D4"/>
<path d="M1281.46 820.106L1279.15 829.027C1270.79 827.934 1262.42 827.04 1254.07 825.547C1250.09 824.808 1246.35 823.077 1242.5 821.741C1244.34 817.805 1246.27 813.972 1248.11 810.035C1249.87 805.396 1251.54 800.653 1253.3 796.014C1258.57 799.699 1264.26 802.999 1269.11 807.17C1273.58 811.028 1277.31 815.759 1281.46 820.106Z" fill="#E3E4E6"/>
<path d="M1281.46 820.106C1277.41 815.763 1273.58 811.028 1269.11 807.17C1264.16 802.996 1258.57 799.699 1253.3 796.014C1253.51 793.02 1253.81 790.03 1254.02 787.037C1264.02 786.987 1273.44 789.318 1282.61 793.04L1291.3 799.245C1288.05 806.233 1284.7 813.218 1281.46 820.106Z" fill="#D0D1D4"/>
<path d="M1325.24 829.641C1340.16 831.865 1349.17 823.278 1356.37 811.928C1357.42 810.264 1357.51 807.867 1358.08 805.786L1365.97 809.063C1365.31 810.741 1364.55 812.314 1363.7 813.885C1359.78 820.049 1355.86 826.313 1351.65 832.267C1344.19 842.708 1327.47 845.823 1316.61 838.941C1313.38 836.828 1314.94 835.182 1317.39 833.867C1320.04 832.46 1322.69 831.052 1325.24 829.641Z" fill="#E3E5E7"/>
<path d="M1099.64 813.736L1136.6 818.131C1138.07 821.883 1137.38 824.46 1132.88 824.402C1118.78 824.408 1104.67 824.514 1090.58 824.22C1088.08 824.133 1085.52 822.843 1083.05 822.156L1082.51 820.337C1084.86 819.019 1087.12 817.298 1089.65 816.386C1092.79 815.296 1096.22 814.416 1099.64 813.736Z" fill="#CED1D3"/>
<path d="M1242.5 821.741C1246.35 823.077 1250.09 824.808 1254.07 825.547C1262.32 827.037 1270.79 827.934 1279.15 829.027C1280.24 832.266 1278.71 833.112 1275.71 833.007C1262.83 832.456 1250.04 832.008 1237.16 831.456L1224.47 828.111L1227.53 823.418L1230.47 822.32L1242.5 821.741Z" fill="#CDCFD2"/>
<path d="M1155.45 825.493L1191.26 831.049C1189.22 832.277 1187.13 834.605 1185.03 834.631C1172.32 834.886 1159.52 834.738 1146.73 834.49C1145.13 834.434 1143.59 832.679 1141.92 831.721C1143.48 830.175 1144.75 828.119 1146.68 827.286C1149.42 826.182 1152.52 826.091 1155.45 825.493Z" fill="#E1E4E7"/>
<path d="M1090.18 675.773C1093.7 686.599 1093.08 698.38 1088.42 708.719C1087.76 710.396 1086.61 711.856 1085.27 713.009C1085.59 706.719 1080.3 700.733 1085.92 694.328C1088.73 691.226 1086.58 687.049 1083.04 685.325C1078.71 683.173 1074.61 680.529 1070.39 678.18L1090.18 675.773Z" fill="#E4E5E8"/>
<path d="M1197.85 671.443L1184.06 691.065L1172.89 667.268L1197.85 671.443Z" fill="#E3E5E7"/>
<path d="M1008.2 714.51C1004.65 710.285 1007.2 705.873 1007.56 701.485C1007.77 700.992 1008.09 700.603 1008.59 700.521L1013.65 698.898C1014.03 705.212 1014.51 711.53 1014.89 717.745L1008.2 714.51Z" fill="#D8DADD"/>
<path d="M1134.21 686.518C1129.57 701.859 1124.83 717.396 1120.19 732.637C1110.84 722.707 1120.47 690.437 1134.21 686.518Z" fill="#E6E7E9"/>
<path d="M1270.47 765.708C1269.93 760.889 1268.9 756.051 1269.17 751.26C1269.5 744.67 1270.34 737.997 1271.66 731.542C1272.26 728.763 1274.05 726.125 1275.93 723.89C1277.07 722.83 1278.69 722.386 1280.27 722.842C1281.15 723.273 1281.67 725.692 1281.52 727.087C1281.14 729.474 1279.95 731.833 1279.47 734.217C1277.44 743.648 1275.61 752.986 1273.68 762.42C1273.44 763.612 1273.1 764.8 1272.86 765.992L1270.47 765.708Z" fill="#E6E7E9"/>
<path d="M1078.48 695.667L1079.21 689.092L1082.19 689.496C1081.82 691.684 1081.54 693.874 1081.16 696.062L1078.48 695.667Z" fill="#E6E7E9"/>
<path d="M1347.44 721.394C1347.86 723.41 1348.29 725.525 1348.72 727.541L1344.22 724.782C1345.36 723.622 1346.4 722.458 1347.44 721.394Z" fill="#ECEFF1"/>
<path d="M1377.31 856.471L1379.24 858.54L1377.31 856.471Z" fill="#4472A2"/>
<path d="M1035.03 695.752C1034.98 696.965 1036.29 697.996 1037.95 698.054C1039.6 698.112 1040.98 697.175 1041.02 695.962C1041.06 694.748 1039.76 693.717 1038.1 693.659C1036.45 693.601 1035.07 694.538 1035.03 695.752Z" fill="black"/>
<path d="M1007.16 701.271C1007.16 701.271 1009.98 706.471 1005.19 709.104C1003.91 708.359 1003.37 703.839 1003.69 703.45C1003.71 702.65 1005.66 701.218 1007.16 701.271Z" fill="black"/>
<path opacity="0.2" d="M1665.2 892.974C1664.69 901.858 1613.22 906.456 1550.22 903.149C1487.22 899.841 1436.46 889.961 1436.87 881.073C1437.28 872.186 1488.85 867.591 1551.85 870.898C1614.85 874.206 1665.62 883.986 1665.2 892.974Z" fill="#9BD6EA"/>
<path d="M1568.49 761.456L1570.1 761.213L1570.4 761.123L1570.7 761.034C1576.14 760.124 1581.57 759.214 1587.1 758.408C1613.12 755.018 1639.09 770.331 1648.74 794.775C1649.29 796.095 1649.75 797.311 1650.31 798.631C1650.47 799.637 1650.64 800.543 1650.8 801.549C1649.97 802.42 1649.25 803.194 1648.41 804.066L1651.84 806.186L1652.89 810.624C1653.81 821.358 1653.34 832.044 1649.87 842.425C1647.19 850.433 1648.56 856.983 1655.17 862.415C1656.44 863.46 1657.6 864.601 1658.86 865.745C1658.5 867.333 1658.44 869.131 1657.59 870.402C1652.09 879.011 1645.36 885.477 1634.02 883.779C1633.67 882.467 1633.73 880.668 1632.85 880.038C1624.68 873.55 1616.4 867.158 1608.22 860.77L1601.58 856.037C1597.38 853.389 1593.5 849.752 1588.95 848.293C1569.18 841.799 1549.28 835.9 1529.39 829.802C1528.29 829.664 1527.19 829.625 1526.09 829.687L1530.6 840.747C1533.33 848.545 1536.16 856.245 1538.69 864.136C1541.4 872.432 1537.47 878.896 1532.26 884.915L1505.1 880.663C1508.58 878.384 1508.88 875.494 1506.9 872.024C1504.36 867.434 1502.03 862.751 1499.59 858.165C1498.26 855.918 1497.05 853.475 1495.53 851.321C1490.09 843.629 1484.46 836.03 1478.93 828.334C1477.46 827.283 1476.12 825.735 1474.53 825.28C1464.33 822.422 1454.66 818.682 1445.88 812.373C1441.59 809.222 1435.94 807.724 1430.59 806.336C1421.96 804.134 1413.11 802.623 1404.38 800.717C1402.39 800.347 1400.52 799.581 1398.64 799.015C1398.3 794.203 1397.97 789.49 1397.64 784.677L1400.08 783.562L1403.02 782.465C1406.37 781.082 1408.45 778.655 1410.93 776.441C1411.23 776.351 1411.34 776.255 1411.54 776.162L1412.25 775.887L1416.1 774.322L1419.15 773.028L1421.48 772.309L1440.5 768.875C1443.74 770.689 1446.87 772.699 1450.11 774.313C1452.77 775.606 1454.45 778.866 1452.27 781.19C1447.9 786.038 1452.04 790.584 1451.77 795.376C1452.81 794.512 1453.65 793.341 1454.19 792.06C1457.77 784.183 1458.18 775.296 1455.57 767.102C1467.18 764.008 1478.97 761.321 1490.41 757.521C1500.43 754.171 1509.48 755.688 1518.31 760.598L1526.78 778.599L1537.2 763.761L1556.94 762.752L1568.49 761.456ZM1489.09 775.278C1478.68 778.214 1471.42 802.666 1478.46 810.314C1481.96 798.734 1485.58 786.858 1489.09 775.278ZM1592.51 835.314L1594.21 835.374C1594.44 834.482 1594.67 833.59 1594.9 832.698C1596.35 825.547 1597.8 818.396 1599.25 811.345C1599.61 809.457 1600.57 807.791 1600.84 805.9C1600.98 804.804 1600.64 802.992 1599.95 802.668C1598.76 802.326 1597.55 802.684 1596.62 803.451C1595.17 805.101 1593.99 807.16 1593.42 809.34C1592.44 814.307 1591.77 819.285 1591.49 824.276C1591.26 827.969 1592.13 831.7 1592.51 835.314ZM1446.84 782.2L1448.93 782.473C1449.19 780.782 1449.44 779.19 1449.7 777.499L1447.41 777.219L1446.84 782.2Z" fill="#FDFDFD"/>
<path d="M1530.8 840.754L1526.29 829.694C1527.39 829.632 1528.49 829.671 1529.59 829.809C1549.48 835.907 1569.38 841.805 1589.15 848.3C1593.7 849.759 1597.58 853.396 1601.78 856.044C1594.89 853.102 1587.54 851.544 1580.04 851.481C1563.37 850.597 1547.15 848.028 1531.9 840.793C1531.5 840.779 1531.11 840.665 1530.8 840.754Z" fill="#E4E5E7"/>
<path d="M1492.9 869.133C1492.23 871.11 1491.56 873.087 1490.89 875.064L1462.8 871.779L1475.12 845.705C1477.12 848.575 1478.91 851.539 1481.02 854.313C1484.94 859.252 1488.97 864.194 1492.9 869.133Z" fill="#E4E5E7"/>
<path d="M1492.9 869.133C1488.97 864.194 1484.94 859.252 1481.12 854.217C1479.02 851.443 1477.12 848.476 1475.22 845.608C1476.52 839.853 1477.82 834.097 1479.03 828.238C1484.56 835.933 1490.2 843.532 1495.63 851.224C1497.15 853.378 1498.37 855.722 1499.69 858.068L1492.9 869.133Z" fill="#D1D2D4"/>
<path d="M1600.76 876.613L1599.03 883.354C1592.65 882.53 1586.28 881.807 1580.02 880.687C1577.03 880.182 1574.18 878.782 1571.22 877.778C1572.62 874.827 1574.02 871.875 1575.43 868.924L1579.3 858.257C1583.3 861.098 1587.62 863.549 1591.31 866.679C1594.9 869.706 1597.68 873.304 1600.76 876.613Z" fill="#E3E4E6"/>
<path d="M1600.76 876.613C1597.68 873.304 1594.8 869.703 1591.41 866.783C1587.71 863.653 1583.4 861.101 1579.4 858.36C1579.58 856.066 1579.75 853.872 1579.94 851.578C1587.43 851.64 1594.78 853.198 1601.68 856.14L1608.32 860.874C1605.83 866.088 1603.25 871.299 1600.76 876.613Z" fill="#D0D1D4"/>
<path d="M1634.02 883.879C1645.36 885.577 1652.19 879.015 1657.59 870.502C1658.43 869.231 1658.5 867.433 1658.85 865.845L1664.87 868.256C1664.42 869.541 1663.78 870.719 1663.14 871.897C1660.18 876.594 1657.21 881.291 1654.05 885.782C1648.38 893.684 1635.69 896.041 1627.47 890.852C1625.03 889.266 1626.17 888.005 1628.01 886.969C1630.04 885.941 1632.08 884.912 1634.02 883.879Z" fill="#E3E5E7"/>
<path d="M1462.8 871.779L1490.89 875.064C1491.99 877.903 1491.52 879.887 1488.02 879.865C1477.32 879.89 1466.62 879.915 1455.92 879.74C1454.02 879.674 1452.16 878.708 1450.18 878.138L1449.72 876.822C1451.46 875.683 1453.2 874.644 1455.13 873.811C1457.76 872.903 1460.28 872.291 1462.8 871.779Z" fill="#CED1D3"/>
<path d="M1571.21 877.878C1574.18 878.882 1577.03 880.182 1580.01 880.787C1586.27 881.907 1592.65 882.53 1599.02 883.453C1599.84 885.883 1598.71 886.543 1596.42 886.463C1586.63 886.02 1576.94 885.68 1567.15 885.238L1557.54 882.7L1559.86 879.181L1562.09 878.359L1571.21 877.878Z" fill="#CDCFD2"/>
<path d="M1505.2 880.666L1532.36 884.919C1530.82 885.865 1529.26 887.611 1527.66 887.655C1517.95 887.915 1508.35 887.778 1498.66 887.539C1497.46 887.497 1496.21 886.153 1495.03 885.511C1496.17 884.351 1497.22 882.788 1498.65 882.137C1500.68 881.208 1502.98 881.089 1505.2 880.666Z" fill="#E1E4E7"/>
<path d="M1455.67 767.106C1458.38 775.303 1457.87 784.187 1454.29 792.063C1453.75 793.344 1452.91 794.415 1451.87 795.379C1452.14 790.588 1448.1 786.045 1452.37 781.193C1454.45 778.866 1452.86 775.709 1450.21 774.316C1446.97 772.702 1443.84 770.692 1440.6 768.878L1455.67 767.106Z" fill="#E4E5E8"/>
<path d="M1537.4 763.868L1526.98 778.706L1518.5 760.705L1537.4 763.868Z" fill="#E3E5E7"/>
<path d="M1393.52 796.536C1390.83 793.341 1392.75 790.007 1393.07 786.618C1393.18 786.221 1393.49 786.032 1393.9 785.846L1397.74 784.681C1398.07 789.493 1398.4 794.206 1398.74 799.019L1393.52 796.536Z" fill="#D8DADD"/>
<path d="M1489.09 775.278C1485.58 786.858 1481.96 798.734 1478.46 810.214C1471.42 802.666 1478.68 778.214 1489.09 775.278Z" fill="#E6E7E9"/>
<path d="M1592.51 835.314C1592.13 831.7 1591.36 827.973 1591.49 824.376C1591.77 819.385 1592.34 814.304 1593.41 809.44C1593.99 807.26 1595.16 805.3 1596.62 803.551C1597.55 802.783 1598.76 802.426 1599.95 802.768C1600.64 803.092 1601.07 804.907 1600.84 805.999C1600.57 807.89 1599.61 809.557 1599.25 811.445C1597.69 818.592 1596.34 825.746 1594.9 832.797C1594.66 833.689 1594.43 834.582 1594.2 835.474L1592.51 835.314Z" fill="#E6E7E9"/>
<path d="M1446.84 782.2L1447.41 777.219L1449.7 777.599C1449.44 779.29 1449.18 780.882 1448.92 782.573L1446.84 782.2Z" fill="#E6E7E9"/>
<path d="M1650.9 801.652L1651.94 806.289L1648.51 804.169C1649.24 803.394 1650.07 802.523 1650.9 801.652Z" fill="#ECEFF1"/>
<path d="M1673.51 904.167L1674.96 905.719L1673.51 904.167Z" fill="#4472A2"/>
<path d="M1413.82 782.278C1413.79 783.216 1414.79 784.012 1416.06 784.056C1417.33 784.101 1418.39 783.376 1418.42 782.439C1418.45 781.501 1417.45 780.704 1416.18 780.66C1414.91 780.615 1413.86 781.34 1413.82 782.278Z" fill="black"/>
<path d="M1392.68 786.404C1392.68 786.404 1394.84 790.38 1391.17 792.352C1390.19 791.818 1389.81 788.304 1390.02 788.011C1390.55 787.129 1391.57 786.465 1392.68 786.404Z" fill="black"/>
<defs>
<linearGradient id="paint0_linear_108_2580" x1="960.096" y1="0.0237" x2="960.096" y2="651.024" gradientUnits="userSpaceOnUse">
<stop stop-color="#115BB1"/>
<stop offset="1" stop-color="#1D66BB"/>
</linearGradient>
<linearGradient id="paint1_linear_108_2580" x1="959.904" y1="1130" x2="959.904" y2="830" gradientUnits="userSpaceOnUse">
<stop stop-color="#08366B"/>
<stop offset="1" stop-color="#1C73D8"/>
</linearGradient>
<linearGradient id="paint2_linear_108_2580" x1="1036.03" y1="887.931" x2="1036.03" y2="972.217" gradientUnits="userSpaceOnUse">
<stop stop-color="#E6F5FA"/>
<stop offset="1" stop-color="#E6F5FA"/>
</linearGradient>
<linearGradient id="paint3_linear_108_2580" x1="1036.03" y1="887.931" x2="1036.03" y2="972.217" gradientUnits="userSpaceOnUse">
<stop/>
<stop offset="1" stop-color="white"/>
</linearGradient>
<linearGradient id="paint4_linear_108_2580" x1="1104.07" y1="912.632" x2="1082.74" y2="956.632" gradientUnits="userSpaceOnUse">
<stop/>
<stop offset="1" stop-color="white"/>
</linearGradient>
<linearGradient id="paint5_linear_108_2580" x1="1238.07" y1="958.585" x2="1150.07" y2="982.585" gradientUnits="userSpaceOnUse">
<stop/>
<stop offset="1" stop-color="white"/>
</linearGradient>
<linearGradient id="paint6_linear_108_2580" x1="1292.47" y1="971.656" x2="1332.47" y2="1003.66" gradientUnits="userSpaceOnUse">
<stop/>
<stop offset="1" stop-color="white"/>
</linearGradient>
<linearGradient id="paint7_linear_108_2580" x1="1580.15" y1="994.763" x2="1366.82" y2="980.097" gradientUnits="userSpaceOnUse">
<stop/>
<stop offset="1" stop-color="white"/>
</linearGradient>
<linearGradient id="paint8_linear_108_2580" x1="1810.03" y1="994.966" x2="1810.03" y2="1037.12" gradientUnits="userSpaceOnUse">
<stop/>
<stop offset="1" stop-color="white"/>
</linearGradient>
<linearGradient id="paint9_linear_108_2580" x1="1699.94" y1="958.072" x2="1699.94" y2="1021.02" gradientUnits="userSpaceOnUse">
<stop/>
<stop offset="1" stop-color="white"/>
</linearGradient>
<linearGradient id="paint10_linear_108_2580" x1="796.53" y1="803.016" x2="796.53" y2="866.009" gradientUnits="userSpaceOnUse">
<stop/>
<stop offset="1" stop-color="white"/>
</linearGradient>
<linearGradient id="paint11_linear_108_2580" x1="622.545" y1="801.016" x2="622.545" y2="883.016" gradientUnits="userSpaceOnUse">
<stop/>
<stop offset="1" stop-color="white"/>
</linearGradient>
<linearGradient id="paint12_linear_108_2580" x1="540.574" y1="800.953" x2="540.574" y2="904.938" gradientUnits="userSpaceOnUse">
<stop/>
<stop offset="1" stop-color="white"/>
</linearGradient>
<linearGradient id="paint13_linear_108_2580" x1="403.048" y1="815" x2="403.048" y2="905" gradientUnits="userSpaceOnUse">
<stop/>
<stop offset="1" stop-color="white"/>
</linearGradient>
<linearGradient id="paint14_linear_108_2580" x1="142.55" y1="929.42" x2="142.55" y2="815" gradientUnits="userSpaceOnUse">
<stop/>
<stop offset="1" stop-color="white"/>
</linearGradient>
<linearGradient id="paint15_linear_108_2580" x1="960.025" y1="676.531" x2="960.025" y2="1007.05" gradientUnits="userSpaceOnUse">
<stop stop-color="#EFFBFF"/>
<stop offset="1" stop-color="#CCCCCC"/>
</linearGradient>
</defs>
</svg>
