<svg width="1920" height="1025" viewBox="0 0 1920 1025" fill="none" xmlns="http://www.w3.org/2000/svg">
<path d="M1920 14.8998V968.3V968.4C1918.1 973 1914.9 976.8 1910.9 979.6C1910.8 979.6 1910.8 979.7 1910.7 979.7C1910.2 980.1 1909.6 980.4 1909.1 980.7C1895.2 988.4 1874.1 995.3 1847.3 1000.9C1847 1001 1846.7 1001 1846.5 1001.1C1838.7 1002.7 1830.5 1004.2 1821.8 1005.5C1797.2 1009.4 1769.2 1012.2 1738.5 1013.6C1738.4 1013.6 1738.3 1013.6 1738.2 1013.6C1737.9 1013.6 1737.5 1013.6 1737.2 1013.6C1733.7 1013.8 1730.1 1013.9 1726.5 1014C1717.6 1014.3 1708.4 1014.5 1699.1 1014.5C1693.3 1014.5 1687.4 1014.5 1681.5 1014.5C1674.4 1014.4 1667.1 1014.3 1659.8 1014.1H1659.7C1658.1 1014.2 1656.5 1014.1 1654.9 1013.9C1636.1 1013.2 1616.7 1012.1 1597 1010.3C1596.9 1010.3 1596.7 1010.3 1596.6 1010.3C1596.5 1010.3 1596.5 1010.3 1596.5 1010.3C1557.3 1006.8 1516.6 1001.1 1475.5 992.8C1136.3 921.2 995.4 986.9 885.5 996.7C750.8 1010.4 644.8 1054.1 533.8 990.4C448.6 934 335.7 945.7 259.5 962.3C259.2 962.4 258.9 962.4 258.6 962.5C231.8 968.4 209.6 974.8 194.9 979C185.8 981.8 173.3 985.1 158.8 988.5H158.7C155.8 989.2 152.7 989.9 149.6 990.6C149.1 990.7 148.6 990.8 148.1 990.9C147.3 991.1 146.4 991.3 145.6 991.4C145 991.5 144.5 991.7 143.9 991.8C128.2 995.1 111 998.4 93.8 1001.1C92.2 1001.4 90.6 1001.6 89 1001.8C88.7 1001.8 88.4 1001.9 88 1001.9C87.5 1002 87.1 1002 86.6 1002.1C86.5 1002.1 86.5 1002.1 86.4 1002.1C79.1 1003.2 71.8 1004.1 64.6 1004.9C64.4 1004.9 64.1 1005 63.9 1005C60.2 1005.4 56.5 1005.8 52.9 1006.1C39.2 1007.4 26.1 1008 14.7 1007.7C11.3 1007.6 8.1 1007.4 5 1007.2C3.3 1007.1 1.6 1006.9 0 1006.7V823.6V823.1C0 823.2 0 823.3 0 823.4V55.4999C198 -46.6001 529.3 50.8998 714.6 70.1998C893.2 85.2998 1063.8 11.8999 1234.5 2.29994C1377 -14.5001 1414.2 74.4 1532.1 78.6C1533.1 78.7 1534.2 78.7998 1535.4 78.8998C1623.4 86.3998 1814.8 10.7998 1920 14.8998Z" fill="url(#paint0_linear_108_161)"/>
<path d="M1919.96 534.103V968.203V968.303C1918.06 972.903 1914.86 976.703 1910.86 979.503C1910.76 979.503 1910.76 979.603 1910.66 979.603C1910.16 980.003 1909.56 980.303 1909.06 980.603C1895.16 988.303 1874.06 995.203 1847.26 1000.8C1846.96 1000.9 1846.66 1000.9 1846.46 1001C1838.66 1002.6 1830.46 1004.1 1821.76 1005.4C1797.16 1009.3 1769.16 1012.1 1738.46 1013.5C1738.36 1013.5 1738.26 1013.5 1738.16 1013.5C1737.86 1013.5 1737.46 1013.5 1737.16 1013.5C1733.66 1013.7 1730.06 1013.8 1726.46 1013.9C1717.56 1014.2 1708.36 1014.4 1699.06 1014.4C1700.16 1009.1 1701.36 1002.9 1702.76 996.003C1703.86 990.903 1704.96 985.303 1706.16 979.503C1706.46 978.003 1706.76 976.403 1707.16 974.803C1711.16 955.203 1715.86 932.403 1720.76 908.703C1721.46 905.303 1722.16 901.903 1722.86 898.503C1724.46 891.103 1725.96 883.603 1727.56 876.103C1728.36 872.303 1729.16 868.403 1729.96 864.603C1736.96 831.503 1743.86 799.103 1749.66 773.603C1749.66 773.603 1749.66 773.603 1749.66 773.503C1749.96 773.203 1751.26 771.203 1753.66 768.403C1756.36 765.103 1760.36 760.503 1765.26 755.803C1768.16 753.003 1771.36 750.203 1774.76 747.503C1775.56 746.903 1776.46 746.203 1777.26 745.603C1778.56 744.603 1779.96 743.703 1781.36 742.803C1784.66 740.603 1788.16 738.703 1791.76 737.103L1804.26 741.903L1817.66 737.103L1817.76 739.203L1817.86 741.303L1818.56 773.603V774.803L1818.66 780.803V780.903C1818.66 780.903 1818.66 780.903 1818.66 780.803V780.703V780.503C1818.66 780.303 1818.76 780.003 1818.76 779.603V779.503C1819.06 776.903 1819.86 770.803 1820.96 762.203C1822.46 750.503 1824.66 734.103 1827.26 715.803C1827.26 715.803 1827.26 715.803 1827.26 715.703V715.603C1827.26 715.603 1827.26 715.503 1827.26 715.403C1827.26 715.303 1827.26 715.103 1827.36 715.003C1827.46 714.703 1827.46 714.303 1827.56 713.803C1827.56 713.603 1827.66 713.303 1827.66 713.003C1827.66 712.803 1827.76 712.703 1827.76 712.503C1828.06 710.303 1828.36 708.103 1828.66 705.903C1828.96 703.703 1829.36 701.403 1829.66 699.103C1830.16 695.703 1830.66 692.203 1831.26 688.803C1832.16 682.903 1833.06 676.903 1834.06 670.903C1834.56 667.903 1834.96 664.903 1835.46 662.003C1840.16 632.703 1845.36 604.503 1850.26 586.503C1850.36 586.503 1884.96 546.703 1919.96 534.103Z" fill="url(#paint1_linear_108_161)"/>
<path opacity="0.5" d="M1919.96 579.503V968.203V968.303C1918.06 972.903 1914.86 976.703 1910.86 979.503C1910.76 979.503 1910.76 979.603 1910.66 979.603L1910.86 977.303V844.203L1910.56 838.903L1910.26 832.903L1904.66 734.903L1868.36 821.903L1867.36 831.003L1866.06 843.203L1863.66 866.103L1863.06 872.103L1860.76 894.103V894.403L1853.86 959.103L1847.46 1000.9C1847.16 1001 1846.86 1001 1846.66 1001.1C1838.86 1002.7 1830.66 1004.2 1821.96 1005.5C1797.36 1009.4 1769.36 1012.2 1738.66 1013.6C1738.56 1013.6 1738.46 1013.6 1738.36 1013.6C1738.06 1013.6 1737.66 1013.6 1737.36 1013.6C1733.86 1013.8 1730.26 1013.9 1726.66 1014C1717.76 1014.3 1708.56 1014.5 1699.26 1014.5L1703.06 996.003L1706.36 979.603L1709.86 962.503L1747.66 909.103L1764.36 937.803L1791.36 900.203L1793.06 897.903L1803.16 883.803L1811.66 861.303L1819.26 841.003L1820.66 837.303L1820.46 832.103L1818.76 781.003V780.903V780.803V780.703V780.503L1818.86 779.803V779.703L1822.16 757.503L1828.26 715.903L1828.56 713.703L1831.66 715.803L1841.36 722.403L1858.26 742.303L1868.36 790.003L1892.96 736.303L1899.16 712.803L1906.76 683.903L1910.16 670.903V604.203L1914.16 594.303L1919.96 579.503Z" fill="url(#paint2_linear_108_161)"/>
<path d="M1919.96 531.803V586.103C1917.76 590.503 1915.76 594.203 1914.16 597.203C1911.86 601.403 1910.26 603.903 1910.16 604.203L1901.26 605.003L1868.26 607.803L1850.36 586.603C1874.06 548.203 1901.76 535.703 1919.96 531.803Z" fill="#2FA7FE"/>
<path d="M1817.66 737.203L1802.96 751.703L1787.66 770.003L1749.56 773.603C1749.56 773.603 1756.76 755.803 1791.76 737.103L1817.66 737.203Z" fill="#0C83DE"/>
<path opacity="0.5" d="M1860.56 894.003V894.303L1846.36 1001C1838.56 1002.6 1830.36 1004.1 1821.66 1005.4L1828.56 966.603L1827.26 904.903L1826.66 899.303L1823.36 866.603L1823.06 863.303L1820.66 839.603L1820.46 837.303L1820.26 832.103L1819.36 805.403V805.303V804.103L1818.56 780.503L1818.36 774.803V773.703V773.603L1818.46 773.003L1820.86 762.303L1821.96 757.603L1828.36 781.403L1843.26 833.903L1844.96 839.803L1852.26 865.403L1853.16 868.503L1860.56 894.003Z" fill="url(#paint3_linear_108_161)"/>
<path opacity="0.5" d="M1919.96 582.603V696.403L1915.66 707.203L1904.56 734.903L1892.86 736.403L1899.06 712.903L1906.66 684.003L1910.16 671.003V604.203V604.103L1915.06 593.403L1919.96 582.603Z" fill="url(#paint4_linear_108_161)"/>
<path opacity="0.5" d="M1919.96 865.303V968.203V968.303C1918.06 972.903 1914.86 976.703 1910.86 979.503V877.703L1917.36 869.003L1918.66 867.203L1919.96 865.303Z" fill="url(#paint5_linear_108_161)"/>
<path opacity="0.5" d="M1594.56 1007.3L1596.96 1010.4C1596.86 1010.4 1596.66 1010.4 1596.56 1010.4C1596.46 1010.4 1596.46 1010.4 1596.46 1010.4C1593.86 1007.1 1592.56 1004.9 1592.46 1004.7L1594.56 1007.3Z" fill="url(#paint6_linear_108_161)"/>
<path opacity="0.5" d="M1731.36 1006L1731.66 1006.3L1738.16 1013.6C1737.86 1013.6 1737.46 1013.6 1737.16 1013.6L1731.36 1006C1731.46 1006 1731.46 1006 1731.36 1006Z" fill="url(#paint7_linear_108_161)"/>
<path opacity="0.4" d="M1919.96 829.803V835.203C1919.76 835.303 1919.66 835.303 1919.56 835.403C1917.36 836.303 1915.06 836.703 1912.86 837.503C1911.96 837.903 1911.26 838.303 1910.56 838.903C1909.96 839.403 1909.36 839.903 1908.56 840.403C1904.76 843.103 1900.46 844.803 1895.86 845.503C1893.86 845.703 1891.66 845.603 1889.56 845.803C1886.16 846.003 1882.86 846.603 1879.36 846.203C1877.56 846.003 1875.86 845.503 1874.06 845.203C1871.86 845.003 1869.66 844.603 1867.46 844.003C1866.86 843.803 1866.36 843.603 1865.96 843.303C1864.66 842.603 1863.46 841.703 1861.96 841.203C1858.06 840.403 1854.16 840.003 1850.16 840.103C1848.46 840.103 1846.76 840.003 1845.06 839.803C1841.76 839.503 1838.56 838.903 1835.26 838.403C1832.46 838.103 1829.56 838.203 1826.76 838.703C1825.06 839.003 1823.66 838.903 1822.06 839.203C1821.76 839.303 1821.36 839.303 1820.96 839.503C1820.86 839.503 1820.76 839.603 1820.66 839.603C1819.76 839.903 1819.36 840.403 1819.06 841.003C1818.76 841.603 1818.46 842.303 1817.86 843.103C1816.96 844.103 1815.96 845.003 1814.76 845.603C1812.76 846.903 1810.76 848.203 1808.66 849.403C1808.46 849.503 1808.26 849.603 1808.06 849.803C1804.06 852.303 1801.26 856.103 1797.56 859.003C1796.66 859.603 1795.86 860.303 1795.16 861.103C1794.66 862.003 1794.06 862.803 1793.26 863.403C1792.06 864.103 1790.96 864.703 1789.76 865.403C1787.46 866.903 1785.36 869.403 1782.76 870.203C1781.76 870.503 1780.76 870.603 1779.76 871.003C1777.96 871.703 1776.56 872.503 1774.46 872.303C1773.66 872.203 1772.86 871.903 1772.06 871.803C1769.26 871.403 1766.36 871.603 1763.56 872.203C1755.66 873.703 1747.96 877.203 1739.86 877.803C1735.66 878.103 1731.36 877.603 1727.36 876.403C1728.16 872.603 1728.96 868.703 1729.76 864.903C1731.06 865.403 1732.36 865.803 1733.66 866.103C1735.56 866.403 1737.46 866.403 1739.36 866.703C1742.56 867.203 1745.66 867.403 1748.86 867.503C1750.26 867.503 1751.66 867.603 1753.16 867.503C1755.36 867.403 1757.56 866.603 1759.76 866.803C1761.96 866.903 1763.86 867.503 1766.16 867.503C1769.76 867.603 1773.36 867.103 1776.76 866.203C1780.76 865.203 1784.36 863.603 1788.26 862.303C1790.86 861.603 1793.26 860.403 1795.36 858.803C1796.86 857.503 1798.16 856.303 1799.86 855.103C1802.16 853.603 1804.26 852.003 1806.26 850.103C1806.66 849.703 1807.16 849.303 1807.56 848.803C1809.86 846.703 1812.06 844.803 1813.46 841.803C1814.06 840.603 1814.16 838.903 1814.86 837.803C1815.36 837.203 1815.86 836.703 1816.46 836.303C1817.66 835.103 1818.16 833.603 1819.56 832.603C1819.76 832.403 1819.96 832.303 1820.26 832.203C1820.66 832.003 1821.06 831.903 1821.46 831.803C1822.76 831.503 1824.06 831.603 1825.56 831.603C1829.56 831.603 1833.26 833.303 1837.26 833.403C1839.36 833.503 1841.36 833.803 1843.36 834.003C1843.76 834.003 1844.26 834.103 1844.66 834.103C1846.66 834.003 1848.76 833.803 1850.66 833.503C1855.46 832.903 1860.06 832.103 1864.86 831.603C1865.66 831.503 1866.36 831.403 1867.16 831.303C1870.46 830.703 1873.46 830.003 1876.76 831.503C1877.46 831.903 1878.26 832.203 1879.06 832.303C1880.06 832.503 1881.16 832.703 1882.16 832.903C1886.36 833.803 1890.96 833.503 1895.26 833.503C1897.66 833.503 1900.66 833.103 1903.06 833.603C1904.26 834.003 1905.46 834.203 1906.76 833.903C1906.86 833.903 1907.96 833.503 1908.16 833.403C1908.56 833.303 1908.86 833.303 1909.26 833.303C1909.56 833.303 1909.76 833.203 1910.06 833.103C1911.06 832.803 1912.26 832.303 1913.16 832.103C1915.56 831.303 1917.76 830.503 1919.96 829.803Z" fill="#99A9BF"/>
<path opacity="0.4" d="M1786.56 900.303C1790.16 899.703 1793.46 897.903 1796.06 895.403C1794.16 897.703 1791.96 899.703 1789.56 901.503C1788.66 902.003 1788.06 902.703 1787.16 903.203C1785.36 904.403 1782.36 904.703 1780.36 904.903C1777.86 905.303 1775.36 905.503 1772.86 905.503C1770.16 905.503 1767.56 906.003 1764.76 906.103C1758.86 906.203 1753.16 907.703 1747.46 909.103C1740.96 910.603 1734.36 910.703 1727.76 910.503C1725.36 910.403 1722.96 909.803 1720.76 908.803C1721.46 905.403 1722.16 902.003 1722.86 898.603H1722.96C1726.86 899.303 1730.66 900.303 1734.56 900.803C1739.06 901.403 1743.56 901.003 1748.16 901.403C1754.26 902.103 1760.36 902.203 1766.46 901.703C1773.16 901.103 1779.96 901.403 1786.56 900.303Z" fill="#99A9BF"/>
<path d="M1796.06 895.403C1796.96 894.403 1797.96 893.303 1798.96 892.403C1798.06 893.503 1797.16 894.503 1796.06 895.403Z" fill="#99A9BF"/>
<path opacity="0.4" d="M1919.96 866.903V868.103C1919.36 868.303 1918.76 868.503 1918.26 868.703C1917.96 868.803 1917.66 868.903 1917.36 869.003C1916.66 869.303 1915.86 869.603 1915.26 869.903C1914.66 870.403 1914.06 870.803 1913.46 871.203C1912.66 871.603 1911.76 872.003 1910.96 872.303C1910.96 872.303 1910.96 872.303 1910.86 872.303C1909.76 872.503 1908.86 872.403 1907.76 872.703C1906.36 873.103 1904.86 873.403 1903.36 873.503C1899.96 873.703 1896.56 874.503 1893.16 874.703C1889.76 874.903 1886.36 874.703 1882.96 874.803C1880.36 874.803 1878.16 874.303 1875.56 874.103C1873.36 874.003 1871.06 874.503 1868.86 874.003C1867.06 873.603 1864.66 873.103 1862.96 872.103C1862.66 872.003 1862.46 871.803 1862.26 871.603C1861.76 871.203 1861.26 870.703 1860.76 870.303C1859.56 869.703 1858.26 869.303 1856.86 869.103C1855.66 868.803 1854.56 868.603 1853.36 868.503C1848.66 867.903 1843.86 867.903 1839.06 867.403C1835.96 867.103 1832.96 867.303 1829.86 866.803C1828.36 866.603 1826.96 866.603 1825.46 866.703C1825.06 866.703 1824.66 866.703 1824.26 866.703C1823.96 866.703 1823.76 866.703 1823.46 866.703C1822.26 866.703 1821.16 866.903 1820.46 867.903C1819.66 869.103 1819.26 871.103 1818.66 872.403C1818.16 873.403 1817.66 874.303 1817.06 875.203C1816.06 876.803 1814.96 878.403 1813.76 879.803C1811.66 882.303 1808.76 883.903 1806.26 885.903C1804.86 887.003 1803.86 888.303 1802.56 889.503C1801.46 890.603 1800.16 891.303 1798.96 892.403C1799.96 891.303 1800.86 890.103 1801.76 888.903C1804.96 884.403 1810.46 881.403 1813.06 876.503C1813.96 874.903 1814.46 873.103 1815.36 871.403C1815.36 871.303 1815.46 871.303 1815.46 871.203C1816.16 869.903 1816.86 868.703 1817.66 867.503C1818.46 866.203 1819.16 863.803 1820.66 863.003C1821.56 862.503 1822.36 862.903 1823.16 863.203C1823.26 863.303 1823.46 863.303 1823.56 863.303C1823.66 863.303 1823.86 863.403 1823.96 863.403C1825.86 863.803 1827.96 863.303 1829.86 863.403C1832.76 863.503 1835.46 864.103 1838.46 864.003C1840.66 864.103 1842.76 864.303 1844.96 864.603C1847.46 864.903 1849.96 865.203 1852.46 865.203C1852.96 865.203 1853.56 865.203 1854.06 865.203C1856.76 865.103 1859.36 865.003 1861.96 865.203C1862.56 865.303 1863.06 865.603 1863.56 865.903C1864.36 866.503 1865.06 867.303 1865.86 867.703C1868.26 868.903 1870.86 869.503 1873.56 869.503C1875.66 869.503 1877.76 869.503 1879.86 869.503C1882.96 869.503 1885.86 869.003 1889.06 868.803C1894.06 868.603 1898.86 868.203 1903.86 868.203C1906.16 868.203 1908.46 868.103 1910.76 867.903C1911.96 867.803 1913.16 867.703 1914.36 867.503C1915.76 867.303 1917.16 867.103 1918.56 866.803C1919.06 867.103 1919.56 867.003 1919.96 866.903Z" fill="#99A9BF"/>
<path opacity="0.4" d="M1919.96 653.103V660.503C1919.76 660.603 1919.56 660.603 1919.36 660.603C1917.96 661.003 1916.56 661.303 1915.06 661.403C1913.86 661.303 1912.56 661.203 1911.36 661.403C1910.86 661.503 1910.66 662.003 1910.16 662.103C1909.46 662.203 1908.66 662.003 1907.96 662.003C1907.26 662.103 1906.76 662.503 1906.16 662.603C1905.46 662.703 1904.76 662.603 1903.96 662.703C1900.56 663.303 1897.16 664.403 1893.66 664.803C1885.66 665.903 1877.56 667.003 1869.56 667.903C1865.66 668.303 1861.76 668.503 1857.86 668.803C1855.56 669.003 1853.36 669.303 1851.16 669.603C1848.06 670.003 1844.96 670.403 1841.76 670.503C1839.16 670.603 1836.56 670.903 1834.06 670.803C1834.56 667.803 1834.96 664.803 1835.46 661.903H1843.86C1847.06 661.903 1850.16 661.703 1853.36 661.603C1855.26 661.503 1857.16 661.403 1859.16 661.303C1863.86 661.003 1868.46 660.103 1873.06 659.703C1876.76 659.303 1880.56 658.403 1884.26 658.303C1885.46 658.203 1886.76 658.403 1887.96 658.303C1889.16 658.003 1890.46 657.803 1891.66 657.703C1893.66 657.603 1895.36 657.303 1897.36 657.103C1899.46 656.903 1901.46 657.403 1903.56 657.003C1904.86 656.703 1906.16 656.603 1907.36 656.503C1908.26 656.403 1909.26 656.203 1910.16 655.903C1911.06 655.603 1911.96 655.403 1912.86 655.203C1915.06 654.703 1917.26 653.803 1919.56 653.303C1919.66 653.203 1919.86 653.203 1919.96 653.103Z" fill="#99A9BF"/>
<path opacity="0.4" d="M1919.96 684.603V707.203C1918.86 707.203 1917.86 707.203 1916.86 707.203C1916.46 707.203 1916.06 707.203 1915.66 707.303C1914.36 707.403 1913.16 707.603 1911.96 707.903C1910.56 708.303 1909.16 708.703 1907.76 709.303C1906.46 709.603 1905.16 710.003 1903.96 710.503C1902.86 711.003 1901.86 711.603 1900.86 712.103C1900.26 712.403 1899.66 712.703 1899.06 713.003C1898.76 713.103 1898.56 713.303 1898.26 713.403C1897.46 713.503 1896.76 713.603 1895.96 713.503C1894.56 713.603 1893.16 713.803 1891.86 714.103C1888.46 714.603 1884.96 714.603 1881.56 714.803C1876.26 715.103 1870.96 715.903 1865.56 715.903C1856.16 716.003 1846.46 717.403 1837.16 716.403C1835.36 716.103 1833.56 716.003 1831.66 715.903C1831.56 715.903 1831.36 715.903 1831.26 715.903C1830.26 716.003 1829.26 716.103 1828.26 716.003C1827.96 716.003 1827.66 716.003 1827.46 715.903V715.803V715.703C1827.46 715.703 1827.46 715.603 1827.46 715.503C1827.46 715.303 1827.56 715.003 1827.56 714.603C1827.56 714.403 1827.66 714.203 1827.66 714.003C1827.66 713.703 1827.76 713.503 1827.76 713.203C1827.76 713.003 1827.86 712.903 1827.86 712.703C1828.16 710.503 1828.46 708.303 1828.76 706.103C1829.06 703.903 1829.46 701.603 1829.76 699.303C1830.26 695.903 1830.76 692.403 1831.36 689.003C1834.46 689.503 1837.46 690.203 1840.56 690.803C1843.36 691.403 1846.16 692.103 1848.96 692.703C1852.06 693.303 1855.16 693.703 1858.26 693.703C1861.86 693.703 1864.76 692.403 1868.16 691.203C1871.46 690.103 1874.66 688.403 1878.06 687.403C1881.96 686.403 1886.06 685.703 1890.06 685.503C1893.06 685.203 1895.96 684.903 1899.06 684.903C1901.16 684.803 1903.16 684.603 1905.26 684.303C1905.76 684.203 1906.26 684.103 1906.76 684.003C1908.66 683.503 1910.36 682.603 1912.36 683.003C1912.96 683.103 1913.26 683.503 1913.86 683.703C1914.56 683.903 1915.46 683.503 1916.26 683.603C1917.46 683.903 1918.76 684.303 1919.96 684.603Z" fill="#99A9BF"/>
<path opacity="0.72" d="M1787.76 770.103L1799.06 817.803L1811.56 861.303L1826.86 899.303L1819.56 805.203L1817.76 737.203L1799.06 755.403L1787.76 770.103Z" fill="url(#paint8_linear_108_161)"/>
<path d="M1777.66 771.103L1793.86 762.203L1788.56 773.803L1777.66 771.103Z" fill="#2FA7FE"/>
<path d="M1901.26 604.903L1915.06 593.403L1910.16 614.403L1901.26 604.903Z" fill="#2FA7FE"/>
<path d="M1868.26 607.703L1850.76 671.003L1827.36 715.903C1827.36 715.903 1840.06 621.603 1850.36 586.503L1868.26 607.703Z" fill="#0C83DE"/>
<path d="M168.5 845.63L133.5 844.73L129.5 844.63L113.8 844.23H113.7L89.9 843.63L75.9 843.23L11.8 841.53L2.89998 841.33H2.19998L0.0999756 841.23V823.83V823.33C0.0999756 823.43 0.0999756 823.53 0.0999756 823.63V211.73C6.19998 192.63 13.4 175.13 21.9 162.83C21.9 162.83 52.3 166.93 71.8 188.33C77 194.03 81.5 201.03 84.3 209.53C84.3 209.63 84.4 209.63 84.4 209.73V209.83V210.73C84.4 211.23 84.4 211.93 84.5 212.73L101.6 569.33L124 581.23C124 581.23 134 636.33 144.7 698.13C145 699.93 145.3 701.63 145.6 703.43C147.4 713.73 149.2 724.23 150.9 734.53C158.5 778.63 165.4 821.23 168.5 845.63Z" fill="url(#paint9_linear_108_161)"/>
<path d="M21.8 162.83C21.8 162.83 8.60002 194.33 10.2 210.03C11.8 225.83 72.7 278.43 80.1 276.53C87.5 274.63 84.4 209.73 84.4 209.73C84.4 209.73 65.5 160.73 21.8 162.83Z" fill="#093E9A"/>
<path d="M124 581.33C124 581.33 102.5 611.43 75.8 627.63C75.6 627.73 75.5 627.83 75.3 627.93C67.6 632.53 59.4 636.03 51.3 637.23C41.7 638.63 22.8 640.43 0 642.33V615.53L24.1 608.43L24.3 608.33L24.6 608.23L26.8 607.63H26.9L38.9 604.13L101.6 569.33L124 581.33Z" fill="#2256D5"/>
<path d="M143.823 991.799C128.123 995.099 110.923 998.399 93.723 1001.1C92.123 1001.4 90.523 1001.6 88.923 1001.8C88.623 1001.8 88.323 1001.9 87.923 1001.9C87.423 1002 87.023 1002 86.523 1002.1C86.423 1002.1 86.423 1002.1 86.323 1002.1C79.023 1003.2 71.723 1004.1 64.523 1004.9C64.323 1004.9 64.023 1005 63.823 1005C60.123 1005.4 56.423 1005.8 52.823 1006.1C39.123 1007.4 26.023 1008 14.623 1007.7C11.223 1007.6 8.02297 1007.4 4.92297 1007.2C3.22297 1007.1 1.52297 1006.9 -0.0770264 1006.7V823.599V823.099C-0.0770264 823.199 -0.0770264 823.299 -0.0770264 823.399V552.299C12.023 570.599 25.323 607.299 25.323 607.299C25.323 607.299 25.423 607.299 25.523 607.399C25.723 607.499 26.123 607.599 26.723 607.799C32.523 609.699 55.523 617.599 75.223 628.099C80.023 630.699 84.623 633.399 88.723 636.199L88.923 636.299C92.623 638.899 95.923 641.499 98.623 644.199C98.723 644.299 98.823 644.399 98.923 644.499C99.123 644.699 99.323 644.799 99.423 644.999L99.523 645.099C99.523 645.199 99.623 645.199 99.623 645.199L119.423 736.599L122.223 765.599L129.723 842.999C129.723 842.899 129.723 842.799 129.823 842.699L129.923 842.399C130.923 838.499 131.723 834.599 132.523 830.599V830.499C134.623 819.699 136.023 808.699 136.623 797.699C137.223 786.599 136.123 768.399 135.223 751.399V751.299C134.123 730.899 133.423 712.099 136.623 708.999C137.923 707.699 141.323 705.699 145.723 703.399C160.423 695.899 187.023 685.699 191.623 690.499C192.123 690.999 192.823 692.599 193.723 695.099C203.323 722.099 233.123 853.199 233.323 860.199C233.323 861.799 232.023 864.599 230.023 867.899C230.023 867.999 229.923 867.999 229.923 868.099C228.823 869.799 227.623 871.699 226.223 873.699C218.123 884.999 206.023 898.799 205.423 899.399C206.023 899.899 231.523 919.499 239.823 927.299C242.923 930.299 250.823 944.899 259.523 962.199C259.223 962.299 258.923 962.299 258.623 962.399C231.823 968.299 209.623 974.699 194.923 978.899C185.823 981.699 173.323 984.999 158.823 988.399H158.723C155.823 989.099 152.723 989.799 149.623 990.499C149.123 990.599 148.623 990.699 148.123 990.799C147.323 990.999 146.423 991.199 145.623 991.299C145.023 991.599 144.423 991.699 143.823 991.799Z" fill="url(#paint10_linear_108_161)"/>
<path opacity="0.5" d="M0.0230103 971.799L4.72302 996.999L0.0230103 996.599V971.799Z" fill="url(#paint11_linear_108_161)"/>
<path opacity="0.5" d="M24.623 608.399L0.0230103 641.599V631.499L24.123 608.599L25.323 607.399L24.623 608.399Z" fill="url(#paint12_linear_108_161)"/>
<path opacity="0.5" d="M149.623 990.599C149.123 990.699 148.623 990.799 148.123 990.899V990.599L141.523 956.699L140.823 953.099V952.999L135.923 927.899L135.423 925.399L133.923 917.499L124.923 870.799L124.423 868.199L92.323 845.299L89.923 843.499L76.423 833.499L75.923 843.099L73.323 892.599L72.123 916.099L72.023 918.399L71.823 921.999L71.523 926.999L71.923 928.699L73.423 935.199L75.823 945.599L78.323 956.399L78.423 956.799L78.923 959.099L84.323 982.099L86.323 990.799V1002C79.023 1003.1 71.723 1004 64.523 1004.8C64.323 1004.8 64.023 1004.9 63.823 1004.9C60.123 1005.3 56.423 1005.7 52.823 1006C40.823 1000.7 15.223 988.799 19.523 984.699C20.023 984.299 20.223 982.799 20.323 980.499C20.423 977.199 20.223 972.299 19.723 966.099C19.523 963.599 19.223 960.899 18.923 958.099C18.223 951.499 17.423 943.899 16.423 935.899C16.323 934.799 16.123 933.599 16.023 932.499C15.623 929.599 15.223 926.699 14.823 923.699C14.523 921.399 14.223 919.099 13.923 916.699C13.623 914.799 13.423 912.799 13.123 910.799C12.623 907.199 12.123 903.499 11.623 899.899C11.123 896.499 10.623 893.199 10.223 889.799C9.32302 883.499 8.42301 877.299 7.52301 871.399C5.82301 859.799 4.123 849.199 2.823 840.999C1.323 831.599 0.32301 825.199 0.0230103 823.399V659.399L13.623 676.999L62.823 695.699L81.223 819.399L98.923 830.999L113.723 843.899L113.823 843.999V794.299L122.323 765.099L129.823 842.499L136.823 790.799C136.823 790.799 135.623 771.599 135.223 751.099V750.999C134.923 734.699 135.023 717.599 136.623 708.699V708.799L147.523 730.499L148.823 732.999L151.023 734.299L151.323 734.399C151.323 734.399 151.423 734.399 151.423 734.499L172.423 746.599L180.423 830.299L185.423 856.199L233.423 859.799C233.323 860.099 230.723 865.799 226.223 873.299C223.923 877.199 221.123 881.499 217.823 885.699C217.823 885.699 217.823 885.799 217.723 885.799C214.223 890.399 210.223 894.899 205.823 898.599C205.623 898.799 205.523 898.899 205.423 898.999C205.423 898.999 205.423 898.999 205.423 899.099L205.323 899.199L164.523 931.799L167.523 948.399L216.723 957.699L239.823 926.999C240.323 927.999 248.923 943.699 258.523 962.099C231.723 967.999 209.523 974.399 194.823 978.599C185.723 981.399 173.223 984.699 158.723 988.099H158.623C155.723 989.199 152.723 989.899 149.623 990.599Z" fill="url(#paint13_linear_108_161)"/>
<path d="M136.623 709.099C136.623 709.099 145.423 731.499 151.423 734.899L172.423 746.999C172.423 746.999 186.123 729.999 192.123 719.799C198.123 709.599 192.123 687.699 192.123 687.699C192.123 687.699 180.523 684.199 164.423 687.699C150.823 690.599 139.723 701.499 136.623 709.099Z" fill="#0C83DE"/>
<path d="M99.623 644.999C90.323 682.999 62.823 695.999 62.823 695.999C46.323 695.399 13.623 677.299 13.623 677.299L0.0230103 659.699V638.499C8.32301 626.299 20.623 612.599 24.323 608.499C24.823 607.899 25.223 607.599 25.323 607.399V607.299C25.323 607.299 25.423 607.299 25.523 607.399C26.023 607.499 26.423 607.599 26.923 607.799C47.923 613.599 64.123 621.099 75.723 627.799C80.923 630.799 85.323 633.699 88.723 636.199L88.923 636.299C94.023 639.999 97.223 642.899 98.623 644.199C98.723 644.299 98.823 644.399 98.923 644.499C99.123 644.699 99.323 644.799 99.423 644.999C99.523 644.899 99.523 644.899 99.623 644.999Z" fill="#0C83DE"/>
<path d="M1.22302 587.699C0.923022 588.699 0.52301 589.599 0.0230103 590.599V564.299C2.62301 571.599 3.82302 579.899 1.22302 587.699Z" fill="#0C8BDE"/>
<path opacity="0.5" d="M84.423 982.399L20.423 980.899H18.723L17.023 966.699L16.023 958.699L13.423 937.099L13.223 935.699L11.623 922.799L10.923 916.699L10.423 912.099L8.62302 897.099L7.72302 889.699L5.52301 871.299L1.923 841.399L-0.177002 823.999V823.499C-0.177002 823.599 -0.177002 823.699 -0.177002 823.799V746.399L8.12302 793.899L11.523 841.599L13.423 868.299L16.423 874.499L30.723 904.599L53.323 917.299L59.023 920.499L64.423 923.499L71.323 927.399L71.723 929.099L73.223 935.599L75.623 945.999L78.123 956.799L78.223 957.199L78.723 959.499L84.423 982.399Z" fill="url(#paint14_linear_108_161)"/>
<path opacity="0.5" d="M4.72302 996.999H0.0230103V971.799L4.72302 996.999Z" fill="url(#paint15_linear_108_161)"/>
<path opacity="0.5" d="M185.423 856.599L160.223 894.499L146.123 911.399L133.423 871.399V840.399L132.523 829.999L129.723 842.699L124.823 870.599L140.723 952.899L164.423 927.899L205.323 899.399C205.323 899.399 226.223 880.599 233.323 860.199L185.423 856.599Z" fill="url(#paint16_linear_108_161)"/>
<path d="M64.655 1005.09C64.455 1005.09 64.155 1005.19 63.955 1005.19C68.555 1001.39 72.555 998.293 75.255 996.693C76.755 995.793 80.555 995.093 86.255 994.393C89.355 994.093 93.055 993.693 97.155 993.393C98.455 993.293 99.855 993.193 101.255 993.093C101.555 993.093 101.755 993.093 102.055 992.993C113.255 992.293 127.055 991.793 142.455 991.393C143.455 991.393 144.455 991.293 145.455 991.293C144.855 991.393 144.355 991.593 143.755 991.693C128.055 994.993 110.855 998.293 93.655 1000.99C92.055 1001.29 90.455 1001.49 88.855 1001.69C88.555 1001.69 88.255 1001.79 87.855 1001.79C87.355 1001.89 86.955 1001.89 86.455 1001.99C86.355 1001.99 86.355 1001.99 86.255 1001.99C79.055 1003.29 71.755 1004.29 64.655 1005.09Z" fill="url(#paint17_linear_108_161)"/>
<path d="M143.855 991.793C128.155 995.093 110.955 998.393 93.755 1001.09C92.155 1001.39 90.555 1001.59 88.955 1001.79C88.455 1001.69 88.055 1001.49 87.555 1001.39C87.155 1001.29 86.755 1001.19 86.355 1000.99C79.155 998.693 75.955 996.893 75.355 996.593C77.955 995.893 81.655 995.193 86.355 994.593C89.555 994.193 93.155 993.793 97.155 993.393C98.455 993.293 99.855 993.193 101.355 992.993C101.655 992.993 101.955 992.893 102.155 992.893C112.955 991.993 125.855 991.293 140.055 990.793C142.655 990.693 145.355 990.593 148.055 990.493C148.555 990.493 149.055 990.493 149.655 990.493C149.155 990.593 148.655 990.693 148.155 990.793C147.355 990.993 146.455 991.193 145.655 991.293C145.055 991.593 144.455 991.693 143.855 991.793Z" fill="#25A9FF"/>
<path opacity="0.5" d="M87.955 1001.99C87.455 1002.09 87.055 1002.09 86.555 1002.19C86.455 1002.19 86.455 1002.19 86.355 1002.19C79.055 1003.29 71.755 1004.19 64.555 1004.99C70.555 1000.19 74.755 996.893 75.255 996.593C75.755 996.993 78.855 998.993 86.255 1001.39C86.555 1001.49 86.755 1001.59 87.055 1001.69C87.355 1001.89 87.655 1001.89 87.955 1001.99Z" fill="url(#paint18_linear_108_161)"/>
<path d="M158.617 988.555C155.717 989.255 152.617 989.955 149.517 990.655C149.017 990.755 148.517 990.855 148.017 990.955C147.217 991.155 146.317 991.355 145.517 991.455C144.917 991.555 144.417 991.755 143.817 991.855C128.117 995.155 110.917 998.455 93.717 1001.15C92.117 1001.45 90.517 1001.65 88.917 1001.85C88.617 1001.85 88.317 1001.95 87.917 1001.95C87.417 1002.05 87.017 1002.05 86.517 1002.15C86.417 1002.15 86.417 1002.15 86.317 1002.15C79.017 1003.25 71.717 1004.15 64.517 1004.95C64.317 1004.95 64.017 1005.05 63.817 1005.05C60.117 1005.45 56.417 1005.85 52.817 1006.15C39.117 1007.45 26.017 1008.05 14.617 1007.75C11.217 1007.65 8.01699 1007.45 4.91699 1007.25C3.21699 1007.15 1.51699 1006.95 -0.0830078 1006.75V869.355C1.81699 869.855 3.71699 870.455 5.61699 870.955C6.21699 871.155 6.81699 871.355 7.41699 871.455C10.417 872.355 13.517 873.255 16.517 874.155C18.017 874.655 19.617 875.055 21.117 875.555C23.517 876.255 26.017 877.055 28.417 877.855C30.517 878.555 32.717 879.155 34.817 879.855C37.617 880.755 40.417 881.655 43.217 882.555C46.017 883.455 48.817 884.355 51.517 885.255C53.117 885.755 54.617 886.255 56.217 886.855C57.017 887.155 57.817 887.355 58.517 887.655C60.017 888.155 61.617 888.655 63.117 889.255C63.917 889.555 64.617 889.755 65.417 890.055C66.917 890.555 68.417 891.055 69.917 891.555C70.917 891.955 72.017 892.255 73.017 892.655C74.017 893.055 75.017 893.355 76.017 893.755C77.017 894.155 78.017 894.455 79.017 894.755C79.617 894.955 80.317 895.255 80.917 895.455C83.017 896.255 85.217 896.955 87.217 897.755C88.617 898.255 90.017 898.755 91.317 899.255C96.017 901.055 100.517 902.755 104.817 904.355C106.617 905.055 108.417 905.755 110.117 906.455C111.317 906.955 112.417 907.355 113.517 907.855C114.617 908.355 115.717 908.755 116.717 909.255C117.217 909.455 117.717 909.655 118.217 909.955C119.217 910.355 120.217 910.855 121.217 911.255C121.717 911.455 122.217 911.655 122.617 911.855C124.517 912.755 126.217 913.555 127.917 914.355C128.717 914.755 129.517 915.155 130.317 915.555C130.617 915.655 130.917 915.855 131.117 915.955C131.617 916.255 132.217 916.555 132.717 916.855C133.017 916.955 133.217 917.155 133.517 917.255C133.617 917.255 133.617 917.355 133.717 917.355C134.617 917.855 135.517 918.355 136.317 918.855C137.317 919.455 138.217 920.055 138.917 920.655C139.317 920.955 139.617 921.255 140.017 921.455C140.317 921.755 140.617 921.955 140.917 922.255C144.817 925.955 148.017 933.055 150.717 942.255C150.717 942.355 150.817 942.555 150.817 942.655C151.217 944.055 151.617 945.455 152.017 946.955C155.117 958.855 157.217 973.255 158.617 988.555Z" fill="url(#paint19_linear_108_161)"/>
<path d="M141.017 922.355C139.417 924.255 137.717 926.055 135.917 927.855C123.117 940.355 103.717 950.255 78.517 957.055C78.017 957.155 77.417 957.355 76.917 957.455C60.317 961.855 41.217 964.855 19.817 966.355C18.917 966.455 18.017 966.455 17.117 966.555C11.617 966.955 5.917 967.155 0.117004 967.355V869.455C2.017 869.955 3.917 870.555 5.817 871.055C6.417 871.255 7.017 871.355 7.617 871.555C10.617 872.455 13.717 873.355 16.817 874.255C18.317 874.755 19.917 875.155 21.417 875.655C23.817 876.355 26.317 877.155 28.717 877.955C30.817 878.655 33.017 879.255 35.117 879.955C37.917 880.855 40.717 881.755 43.517 882.655C46.317 883.555 49.117 884.455 51.817 885.355C53.417 885.855 54.917 886.355 56.517 886.955C57.317 887.255 58.117 887.455 58.817 887.755C60.317 888.255 61.917 888.755 63.417 889.355C64.217 889.655 64.917 889.855 65.717 890.155C67.217 890.655 68.717 891.155 70.217 891.655C71.217 892.055 72.317 892.355 73.317 892.755C74.317 893.155 75.317 893.455 76.317 893.755C77.317 894.155 78.317 894.455 79.317 894.755C79.917 894.955 80.617 895.255 81.217 895.455C83.317 896.255 85.517 896.955 87.517 897.755C88.917 898.255 90.317 898.755 91.617 899.255C96.317 901.055 100.817 902.755 105.117 904.355C106.917 905.055 108.717 905.755 110.417 906.455C111.617 906.955 112.717 907.355 113.817 907.855C114.917 908.355 116.017 908.755 117.017 909.255C117.517 909.455 118.017 909.655 118.517 909.955C119.517 910.355 120.517 910.855 121.517 911.255C122.017 911.455 122.517 911.655 122.917 911.855C124.817 912.755 126.517 913.555 128.217 914.355C129.017 914.755 129.817 915.155 130.617 915.555C130.917 915.655 131.217 915.855 131.417 915.955C131.917 916.255 132.517 916.555 133.017 916.855C133.317 916.955 133.517 917.155 133.817 917.255C133.917 917.255 133.917 917.355 134.017 917.355C134.917 917.855 135.817 918.355 136.617 918.855C137.617 919.455 138.517 920.055 139.217 920.655C139.617 920.955 139.917 921.255 140.317 921.455C140.417 921.855 140.717 922.055 141.017 922.355Z" fill="url(#paint20_linear_108_161)"/>
<g opacity="0.76">
<g opacity="0.76">
<path opacity="0.76" d="M17.756 928.032C17.756 929.632 17.156 931.232 16.056 932.832C15.356 933.832 14.456 934.732 13.356 935.632C12.456 936.432 11.356 937.232 10.256 937.932C7.25598 939.932 3.55599 941.732 -0.0440063 943.132V920.932C3.95599 921.232 8.35598 921.732 11.756 922.732C12.956 923.132 13.956 923.532 14.856 924.032C16.556 924.932 17.656 926.232 17.756 928.032Z" fill="#2490E6"/>
<path opacity="0.76" d="M27.656 922.432C28.256 922.132 28.856 921.832 29.556 921.732C35.556 920.632 40.656 919.532 45.356 922.232C48.056 923.832 48.956 925.332 45.456 926.932C41.456 928.732 37.756 929.432 33.356 928.032C31.656 927.532 30.056 926.832 28.556 925.932C27.956 925.532 27.556 925.132 27.256 924.632C26.556 923.932 26.856 922.932 27.656 922.432Z" fill="#2490E6"/>
<path opacity="0.76" d="M95.156 929.132C84.756 923.332 71.956 934.632 66.056 941.232C61.356 946.532 77.056 946.332 82.356 945.332C89.156 944.032 97.056 942.532 99.756 938.332C101.156 936.132 100.956 934.832 99.756 933.132C98.956 932.032 98.056 931.132 97.056 930.332C96.456 929.832 95.856 929.432 95.156 929.132Z" fill="#2490E6"/>
<path opacity="0.76" d="M64.756 923.332C63.756 923.632 62.756 924.132 61.956 924.732C61.656 925.032 61.356 925.232 60.956 925.432C60.256 925.832 58.956 925.932 58.656 926.532C56.756 929.332 63.656 928.932 66.056 928.932C69.556 928.932 75.256 929.432 76.656 926.832C77.056 926.032 76.756 925.232 76.156 924.532C74.456 922.432 71.556 921.632 68.956 922.332L64.756 923.332Z" fill="#2490E6"/>
<path opacity="0.76" d="M44.256 947.132C43.956 948.132 44.056 949.032 43.256 950.032C41.756 952.132 38.756 953.732 34.456 955.332C30.256 956.932 24.856 957.932 18.956 958.432C17.956 958.532 17.056 958.532 16.056 958.632C14.656 958.732 13.156 958.732 11.756 958.732C8.55601 958.832 4.35603 958.832 0.0560303 958.732V941.032C0.25603 941.032 0.456036 940.932 0.656036 940.932C2.05604 940.532 3.45601 940.132 4.75601 939.532C6.45601 938.932 8.35601 938.432 10.256 937.932C10.856 937.832 11.356 937.632 11.956 937.532C12.456 937.432 13.056 937.232 13.556 937.132C14.556 936.832 15.556 936.532 16.456 936.232C17.156 936.032 17.856 935.832 18.456 935.632H18.556C23.156 934.232 28.056 934.332 32.756 935.632C34.256 936.032 35.656 936.532 36.956 937.232C40.956 939.232 44.656 941.932 45.456 944.432C45.756 945.232 44.556 946.132 44.256 947.132Z" fill="#2490E6"/>
</g>
</g>
<path d="M152.816 946.455C155.216 956.155 157.316 969.655 158.716 988.555H158.616C155.716 989.255 152.616 989.955 149.516 990.655C149.016 990.755 148.516 990.855 148.016 990.955C147.216 991.155 146.316 991.355 145.516 991.455C144.916 991.555 144.416 991.755 143.816 991.855C143.416 991.755 142.916 991.655 142.516 991.555C141.716 991.355 140.916 991.155 140.016 990.955C132.716 989.155 123.716 986.355 114.016 981.855C113.216 981.455 112.416 981.155 111.616 980.755C101.116 975.755 89.916 968.855 79.016 959.455C78.316 958.855 77.616 958.255 76.916 957.555L78.416 956.755L135.416 925.455L141.016 922.355C141.316 922.455 146.616 924.455 151.516 941.555C151.516 941.655 151.616 941.855 151.616 942.055C152.016 943.355 152.416 944.855 152.816 946.455Z" fill="#2062C4"/>
<path opacity="0.5" d="M5.01599 1007.45C3.51599 1006.35 1.81599 1005.15 0.0159912 1003.95V998.755C5.01599 1001.95 10.016 1005.05 14.716 1007.95C11.316 1007.85 8.11599 1007.65 5.01599 1007.45Z" fill="url(#paint21_linear_108_161)"/>
<path d="M106.216 904.855C106.216 904.855 92.216 911.055 71.916 914.955C67.716 915.755 63.416 916.355 59.116 916.755C55.616 917.055 52.116 917.055 48.716 916.955C39.616 916.455 27.116 915.455 13.916 913.455C12.916 913.355 12.016 913.155 11.016 913.055C7.31601 912.455 3.61602 911.855 -0.0839844 911.155V902.855C5.81602 902.555 6.11601 899.655 5.01601 895.155C4.51601 892.955 2.71601 889.155 0.516006 884.955C0.316006 884.555 0.116016 884.155 -0.0839844 883.755V880.455C0.716016 882.055 1.71602 883.655 2.71602 885.255C4.41602 887.955 6.41601 890.755 8.61601 893.455C9.51601 894.555 10.516 895.655 11.516 896.655C13.616 898.955 16.016 901.055 18.616 903.055C25.716 908.455 34.516 912.455 45.416 913.255C48.216 913.455 50.816 913.555 53.416 913.655C60.216 913.755 66.416 913.455 71.916 912.755C94.816 909.955 103.216 903.855 103.216 903.855L106.216 904.855Z" fill="#2490E6"/>
<path opacity="0.5" d="M152.116 947.055C152.416 946.755 152.616 946.555 152.816 946.355C152.416 944.755 152.016 943.355 151.616 941.955C151.416 942.155 151.116 942.455 150.916 942.755C148.716 945.055 145.216 948.555 140.716 953.055C133.116 960.555 100.016 991.755 88.816 1001.85C92.716 1001.25 88.816 1001.85 92.716 1001.25C103.116 991.555 134.116 963.255 141.416 956.655C146.416 952.155 150.216 948.755 152.116 947.055Z" fill="url(#paint22_linear_108_161)"/>
<path d="M724.9 683.9C725.2 683.7 725.5 683.5 725.7 683.3C725.4 683.5 725.1 683.7 724.9 683.9Z" fill="url(#paint23_linear_108_161)"/>
<path d="M949.9 844.3L949.7 844.9C949.8 844.6 949.8 844.5 949.9 844.3Z" fill="url(#paint24_linear_108_161)"/>
<path d="M953.9 830.6C953.9 830.7 953.8 830.8 953.8 830.9L953.9 830.6Z" fill="url(#paint25_linear_108_161)"/>
<defs>
<linearGradient id="paint0_linear_108_161" x1="959.975" y1="0.333937" x2="959.975" y2="1024.05" gradientUnits="userSpaceOnUse">
<stop stop-color="#007DFF"/>
<stop offset="0.143" stop-color="#0970F7"/>
<stop offset="0.403" stop-color="#224FE4"/>
<stop offset="1" stop-color="#2289E4"/>
</linearGradient>
<linearGradient id="paint1_linear_108_161" x1="1809.52" y1="534.11" x2="1809.52" y2="1014.58" gradientUnits="userSpaceOnUse">
<stop stop-color="#0C48A4"/>
<stop offset="1" stop-color="#2572FF"/>
</linearGradient>
<linearGradient id="paint2_linear_108_161" x1="1809.52" y1="579.48" x2="1809.52" y2="1014.58" gradientUnits="userSpaceOnUse">
<stop stop-color="#3D85D6"/>
<stop offset="1" stop-color="#7B93FF"/>
</linearGradient>
<linearGradient id="paint3_linear_108_161" x1="1839.54" y1="757.55" x2="1839.54" y2="1005.45" gradientUnits="userSpaceOnUse">
<stop stop-color="#38327F"/>
<stop offset="1" stop-color="#7B93FF"/>
</linearGradient>
<linearGradient id="paint4_linear_108_161" x1="1906.41" y1="582.61" x2="1906.41" y2="736.37" gradientUnits="userSpaceOnUse">
<stop stop-color="#38327F"/>
<stop offset="1" stop-color="#7B93FF"/>
</linearGradient>
<linearGradient id="paint5_linear_108_161" x1="1915.41" y1="865.34" x2="1915.41" y2="979.5" gradientUnits="userSpaceOnUse">
<stop stop-color="#38327F"/>
<stop offset="1" stop-color="#7B93FF"/>
</linearGradient>
<linearGradient id="paint6_linear_108_161" x1="1594.68" y1="1004.55" x2="1594.68" y2="1010.33" gradientUnits="userSpaceOnUse">
<stop stop-color="#38327F"/>
<stop offset="1" stop-color="#7B93FF"/>
</linearGradient>
<linearGradient id="paint7_linear_108_161" x1="1734.77" y1="1005.89" x2="1734.77" y2="1013.61" gradientUnits="userSpaceOnUse">
<stop stop-color="#38327F"/>
<stop offset="1" stop-color="#7B93FF"/>
</linearGradient>
<linearGradient id="paint8_linear_108_161" x1="1807.25" y1="899.305" x2="1807.25" y2="737.211" gradientUnits="userSpaceOnUse">
<stop stop-color="#38327F"/>
<stop offset="1" stop-color="#7B93FF"/>
</linearGradient>
<linearGradient id="paint9_linear_108_161" x1="84.215" y1="162.88" x2="84.215" y2="845.58" gradientUnits="userSpaceOnUse">
<stop stop-color="#254FF8"/>
<stop offset="1" stop-color="#09489A"/>
</linearGradient>
<linearGradient id="paint10_linear_108_161" x1="129.72" y1="552.26" x2="129.72" y2="1007.98" gradientUnits="userSpaceOnUse">
<stop stop-color="#0D49A8"/>
<stop offset="1" stop-color="#2572FF"/>
</linearGradient>
<linearGradient id="paint11_linear_108_161" x1="2.38002" y1="971.8" x2="2.38002" y2="996.95" gradientUnits="userSpaceOnUse">
<stop stop-color="#38327F"/>
<stop offset="1" stop-color="#7B93FF"/>
</linearGradient>
<linearGradient id="paint12_linear_108_161" x1="12.7" y1="607.31" x2="12.7" y2="641.51" gradientUnits="userSpaceOnUse">
<stop stop-color="#38327F"/>
<stop offset="1" stop-color="#7B93FF"/>
</linearGradient>
<linearGradient id="paint13_linear_108_161" x1="129.275" y1="659.63" x2="129.275" y2="1006.3" gradientUnits="userSpaceOnUse">
<stop stop-color="#38327F"/>
<stop offset="1" stop-color="#7B93FF"/>
</linearGradient>
<linearGradient id="paint14_linear_108_161" x1="42.18" y1="746.21" x2="42.18" y2="982.37" gradientUnits="userSpaceOnUse">
<stop stop-color="#38327F"/>
<stop offset="1" stop-color="#7B93FF"/>
</linearGradient>
<linearGradient id="paint15_linear_108_161" x1="2.38002" y1="971.8" x2="2.38002" y2="997.03" gradientUnits="userSpaceOnUse">
<stop stop-color="#38327F"/>
<stop offset="1" stop-color="#7B93FF"/>
</linearGradient>
<linearGradient id="paint16_linear_108_161" x1="179.093" y1="952.973" x2="179.093" y2="830.022" gradientUnits="userSpaceOnUse">
<stop stop-color="#38327F"/>
<stop offset="1" stop-color="#7B93FF"/>
</linearGradient>
<linearGradient id="paint17_linear_108_161" x1="104.76" y1="991.45" x2="104.76" y2="1005.16" gradientUnits="userSpaceOnUse">
<stop stop-color="#482ACC"/>
<stop offset="1" stop-color="#2588FF"/>
</linearGradient>
<linearGradient id="paint18_linear_108_161" x1="76.28" y1="996.65" x2="76.28" y2="1005.09" gradientUnits="userSpaceOnUse">
<stop stop-color="#7B93FF"/>
<stop offset="1" stop-color="#38327F"/>
</linearGradient>
<linearGradient id="paint19_linear_108_161" x1="79.32" y1="869.49" x2="79.32" y2="1007.98" gradientUnits="userSpaceOnUse">
<stop stop-color="#134BAB"/>
<stop offset="1" stop-color="#2559C2"/>
</linearGradient>
<linearGradient id="paint20_linear_108_161" x1="4.40602e-06" y1="918.44" x2="140.98" y2="918.44" gradientUnits="userSpaceOnUse">
<stop stop-color="#001463"/>
<stop offset="0.241" stop-color="#001763"/>
<stop offset="0.463" stop-color="#032266"/>
<stop offset="0.678" stop-color="#08356B"/>
<stop offset="0.887" stop-color="#0E4F72"/>
<stop offset="1" stop-color="#136177"/>
</linearGradient>
<linearGradient id="paint21_linear_108_161" x1="7.37" y1="998.71" x2="7.37" y2="1007.92" gradientUnits="userSpaceOnUse">
<stop/>
<stop offset="1" stop-color="#11868D"/>
</linearGradient>
<linearGradient id="paint22_linear_108_161" x1="120.865" y1="942.03" x2="120.865" y2="1001.87" gradientUnits="userSpaceOnUse">
<stop/>
<stop offset="1" stop-color="#11868D"/>
</linearGradient>
<linearGradient id="paint23_linear_108_161" x1="726.087" y1="685.937" x2="717.572" y2="643.597" gradientUnits="userSpaceOnUse">
<stop/>
<stop offset="0.137" stop-color="#000103"/>
<stop offset="0.264" stop-color="#01040E"/>
<stop offset="0.387" stop-color="#020A21"/>
<stop offset="0.507" stop-color="#04133B"/>
<stop offset="0.625" stop-color="#071D5D"/>
<stop offset="0.742" stop-color="#0A2B87"/>
<stop offset="0.858" stop-color="#0D3BB9"/>
<stop offset="0.97" stop-color="#124CF0"/>
<stop offset="0.994" stop-color="#1351FE"/>
</linearGradient>
<linearGradient id="paint24_linear_108_161" x1="949.707" y1="844.678" x2="949.905" y2="844.678" gradientUnits="userSpaceOnUse">
<stop/>
<stop offset="0.213" stop-color="#000003"/>
<stop offset="0.41" stop-color="#02030E"/>
<stop offset="0.6" stop-color="#060721"/>
<stop offset="0.787" stop-color="#0B0D3B"/>
<stop offset="0.969" stop-color="#11145D"/>
<stop offset="1" stop-color="#131664"/>
</linearGradient>
<linearGradient id="paint25_linear_108_161" x1="953.819" y1="830.919" x2="953.905" y2="830.919" gradientUnits="userSpaceOnUse">
<stop/>
<stop offset="0.213" stop-color="#000003"/>
<stop offset="0.41" stop-color="#02030E"/>
<stop offset="0.6" stop-color="#060721"/>
<stop offset="0.787" stop-color="#0B0D3B"/>
<stop offset="0.969" stop-color="#11145D"/>
<stop offset="1" stop-color="#131664"/>
</linearGradient>
</defs>
</svg>
