<svg width="1920" height="1086" viewBox="0 0 1920 1086" fill="none" xmlns="http://www.w3.org/2000/svg">
<path opacity="0.37" d="M2.44156e-05 1070.8V79C175.1 -31.2 522.3 67.8 715.8 78.2C823.4 86.4 1156.6 8.49994 1218.6 3.39994C1347 -16.4001 1416.7 56.3 1530.5 73.5C1621.1 84.6 1861.7 2.10009 1920 3.80009V1014.3C1920 1014.4 1919.9 1014.5 1919.9 1014.6C1873 1049.5 1677 1081.9 1474.6 1040.7C1135.4 969.1 996.3 1044.1 886.4 1053.9C751.7 1067.6 640 1117.6 529 1053.9C413.4 977.3 246.3 1034.4 189.8 1050.6C146.8 1063.9 44.3 1090.8 -0.0999756 1078.2V1070.8H2.44156e-05Z" fill="#2551B8"/>
</svg>
